<svg width="379" height="256" viewBox="0 0 379 256" fill="none" xmlns="http://www.w3.org/2000/svg">
<path d="M74.3578 138.653C64.4747 128.641 58.3993 114.865 58.3993 99.7193C58.3993 69.0857 83.257 44.228 113.891 44.228C144.524 44.228 169.425 69.0429 169.425 99.6765L126.683 67.1604L74.3578 138.653Z" fill="#FDC858"/>
<path d="M113.933 29.4246V35.4144" stroke="#D4C0E2" stroke-width="3.42275" stroke-miterlimit="10" stroke-linecap="round" stroke-linejoin="round"/>
<path d="M113.933 18.3011V24.5477" stroke="#D4C0E2" stroke-width="3.42275" stroke-miterlimit="10" stroke-linecap="round" stroke-linejoin="round"/>
<path d="M113.933 4.56689V12.7387" stroke="#D4C0E2" stroke-width="3.42275" stroke-miterlimit="10" stroke-linecap="round" stroke-linejoin="round"/>
<path d="M101.697 30.4944L102.767 36.3558" stroke="#D4C0E2" stroke-width="3.42275" stroke-miterlimit="10" stroke-linecap="round" stroke-linejoin="round"/>
<path d="M99.7717 19.5416L100.884 25.7026" stroke="#D4C0E2" stroke-width="3.42275" stroke-miterlimit="10" stroke-linecap="round" stroke-linejoin="round"/>
<path d="M97.3757 6.02197L98.8304 14.0654" stroke="#D4C0E2" stroke-width="3.42275" stroke-miterlimit="10" stroke-linecap="round" stroke-linejoin="round"/>
<path d="M89.8885 33.6605L91.9422 39.2653" stroke="#D4C0E2" stroke-width="3.42275" stroke-miterlimit="10" stroke-linecap="round" stroke-linejoin="round"/>
<path d="M86.0808 23.2216L88.22 29.083" stroke="#D4C0E2" stroke-width="3.42275" stroke-miterlimit="10" stroke-linecap="round" stroke-linejoin="round"/>
<path d="M81.3745 10.3007L84.1983 18.0018" stroke="#D4C0E2" stroke-width="3.42275" stroke-miterlimit="10" stroke-linecap="round" stroke-linejoin="round"/>
<path d="M78.7646 38.8373L81.7596 44.0142" stroke="#D4C0E2" stroke-width="3.42275" stroke-miterlimit="10" stroke-linecap="round" stroke-linejoin="round"/>
<path d="M73.2456 29.2107L76.3689 34.6443" stroke="#D4C0E2" stroke-width="3.42275" stroke-miterlimit="10" stroke-linecap="round" stroke-linejoin="round"/>
<path d="M66.3572 17.3165L70.4645 24.4187" stroke="#D4C0E2" stroke-width="3.42275" stroke-miterlimit="10" stroke-linecap="round" stroke-linejoin="round"/>
<path d="M68.7532 45.8538L72.6038 50.4317" stroke="#D4C0E2" stroke-width="3.42275" stroke-miterlimit="10" stroke-linecap="round" stroke-linejoin="round"/>
<path d="M61.6082 37.3396L65.6299 42.1314" stroke="#D4C0E2" stroke-width="3.42275" stroke-miterlimit="10" stroke-linecap="round" stroke-linejoin="round"/>
<path d="M52.7518 26.8145L58.0571 33.1037" stroke="#D4C0E2" stroke-width="3.42275" stroke-miterlimit="10" stroke-linecap="round" stroke-linejoin="round"/>
<path d="M60.1107 54.5396L64.6886 58.3474" stroke="#D4C0E2" stroke-width="3.42275" stroke-miterlimit="10" stroke-linecap="round" stroke-linejoin="round"/>
<path d="M51.5967 47.3947L56.3457 51.4164" stroke="#D4C0E2" stroke-width="3.42275" stroke-miterlimit="10" stroke-linecap="round" stroke-linejoin="round"/>
<path d="M41.0288 38.538L47.3181 43.8004" stroke="#D4C0E2" stroke-width="3.42275" stroke-miterlimit="10" stroke-linecap="round" stroke-linejoin="round"/>
<path d="M53.0513 64.55L58.2282 67.545" stroke="#D4C0E2" stroke-width="3.42275" stroke-miterlimit="10" stroke-linecap="round" stroke-linejoin="round"/>
<path d="M43.4249 58.9883L48.8585 62.1115" stroke="#D4C0E2" stroke-width="3.42275" stroke-miterlimit="10" stroke-linecap="round" stroke-linejoin="round"/>
<path d="M31.5308 52.1005L38.633 56.2078" stroke="#D4C0E2" stroke-width="3.42275" stroke-miterlimit="10" stroke-linecap="round" stroke-linejoin="round"/>
<path d="M47.8743 75.6746L53.5218 77.6854" stroke="#D4C0E2" stroke-width="3.42275" stroke-miterlimit="10" stroke-linecap="round" stroke-linejoin="round"/>
<path d="M37.4349 71.8667L43.3392 74.0059" stroke="#D4C0E2" stroke-width="3.42275" stroke-miterlimit="10" stroke-linecap="round" stroke-linejoin="round"/>
<path d="M24.5142 67.1606L32.2153 69.9416" stroke="#D4C0E2" stroke-width="3.42275" stroke-miterlimit="10" stroke-linecap="round" stroke-linejoin="round"/>
<path d="M44.7083 87.4829L50.6125 88.5097" stroke="#D4C0E2" stroke-width="3.42275" stroke-miterlimit="10" stroke-linecap="round" stroke-linejoin="round"/>
<path d="M33.7983 85.5576L39.9165 86.6272" stroke="#D4C0E2" stroke-width="3.42275" stroke-miterlimit="10" stroke-linecap="round" stroke-linejoin="round"/>
<path d="M20.2357 83.1616L28.322 84.5735" stroke="#D4C0E2" stroke-width="3.42275" stroke-miterlimit="10" stroke-linecap="round" stroke-linejoin="round"/>
<path d="M43.6388 99.6763H49.6286" stroke="#D4C0E2" stroke-width="3.42275" stroke-miterlimit="10" stroke-linecap="round" stroke-linejoin="round"/>
<path d="M32.5575 99.6763H38.804" stroke="#D4C0E2" stroke-width="3.42275" stroke-miterlimit="10" stroke-linecap="round" stroke-linejoin="round"/>
<path d="M18.781 99.6763H26.9956" stroke="#D4C0E2" stroke-width="3.42275" stroke-miterlimit="10" stroke-linecap="round" stroke-linejoin="round"/>
<path d="M44.7083 111.871L50.6125 110.844" stroke="#D4C0E2" stroke-width="3.42275" stroke-miterlimit="10" stroke-linecap="round" stroke-linejoin="round"/>
<path d="M33.7983 113.796L39.9165 112.726" stroke="#D4C0E2" stroke-width="3.42275" stroke-miterlimit="10" stroke-linecap="round" stroke-linejoin="round"/>
<path d="M20.2357 116.192L28.322 114.78" stroke="#D4C0E2" stroke-width="3.42275" stroke-miterlimit="10" stroke-linecap="round" stroke-linejoin="round"/>
<path d="M47.8743 123.721L53.5218 121.668" stroke="#D4C0E2" stroke-width="3.42275" stroke-miterlimit="10" stroke-linecap="round" stroke-linejoin="round"/>
<path d="M37.4349 127.529L43.3392 125.39" stroke="#D4C0E2" stroke-width="3.42275" stroke-miterlimit="10" stroke-linecap="round" stroke-linejoin="round"/>
<path d="M24.5142 132.235L32.2153 129.411" stroke="#D4C0E2" stroke-width="3.42275" stroke-miterlimit="10" stroke-linecap="round" stroke-linejoin="round"/>
<path d="M53.0513 134.803L58.2282 131.808" stroke="#D4C0E2" stroke-width="3.42275" stroke-miterlimit="10" stroke-linecap="round" stroke-linejoin="round"/>
<path d="M43.4249 140.365L48.8585 137.241" stroke="#D4C0E2" stroke-width="3.42275" stroke-miterlimit="10" stroke-linecap="round" stroke-linejoin="round"/>
<path d="M31.5308 147.253L38.633 143.146" stroke="#D4C0E2" stroke-width="3.42275" stroke-miterlimit="10" stroke-linecap="round" stroke-linejoin="round"/>
<path d="M179.95 75.6746L174.302 77.6854" stroke="#D4C0E2" stroke-width="3.42275" stroke-miterlimit="10" stroke-linecap="round" stroke-linejoin="round"/>
<path d="M190.389 71.8667L184.485 74.0059" stroke="#D4C0E2" stroke-width="3.42275" stroke-miterlimit="10" stroke-linecap="round" stroke-linejoin="round"/>
<path d="M174.772 64.55L169.596 67.545" stroke="#D4C0E2" stroke-width="3.42275" stroke-miterlimit="10" stroke-linecap="round" stroke-linejoin="round"/>
<path d="M184.399 58.9883L178.966 62.1115" stroke="#D4C0E2" stroke-width="3.42275" stroke-miterlimit="10" stroke-linecap="round" stroke-linejoin="round"/>
<path d="M196.293 52.1005L189.191 56.2078" stroke="#D4C0E2" stroke-width="3.42275" stroke-miterlimit="10" stroke-linecap="round" stroke-linejoin="round"/>
<path d="M167.713 54.5396L163.178 58.3474" stroke="#D4C0E2" stroke-width="3.42275" stroke-miterlimit="10" stroke-linecap="round" stroke-linejoin="round"/>
<path d="M176.228 47.3947L171.479 51.4164" stroke="#D4C0E2" stroke-width="3.42275" stroke-miterlimit="10" stroke-linecap="round" stroke-linejoin="round"/>
<path d="M186.795 38.538L180.506 43.8004" stroke="#D4C0E2" stroke-width="3.42275" stroke-miterlimit="10" stroke-linecap="round" stroke-linejoin="round"/>
<path d="M159.071 45.8538L155.22 50.4317" stroke="#D4C0E2" stroke-width="3.42275" stroke-miterlimit="10" stroke-linecap="round" stroke-linejoin="round"/>
<path d="M166.216 37.3396L162.194 42.1314" stroke="#D4C0E2" stroke-width="3.42275" stroke-miterlimit="10" stroke-linecap="round" stroke-linejoin="round"/>
<path d="M175.072 26.8145L169.81 33.1037" stroke="#D4C0E2" stroke-width="3.42275" stroke-miterlimit="10" stroke-linecap="round" stroke-linejoin="round"/>
<path d="M149.059 38.8373L146.064 44.0142" stroke="#D4C0E2" stroke-width="3.42275" stroke-miterlimit="10" stroke-linecap="round" stroke-linejoin="round"/>
<path d="M154.578 29.2107L151.455 34.6443" stroke="#D4C0E2" stroke-width="3.42275" stroke-miterlimit="10" stroke-linecap="round" stroke-linejoin="round"/>
<path d="M161.467 17.3165L157.36 24.4187" stroke="#D4C0E2" stroke-width="3.42275" stroke-miterlimit="10" stroke-linecap="round" stroke-linejoin="round"/>
<path d="M137.935 33.6605L135.882 39.2653" stroke="#D4C0E2" stroke-width="3.42275" stroke-miterlimit="10" stroke-linecap="round" stroke-linejoin="round"/>
<path d="M141.744 23.2216L139.604 29.083" stroke="#D4C0E2" stroke-width="3.42275" stroke-miterlimit="10" stroke-linecap="round" stroke-linejoin="round"/>
<path d="M146.449 10.3007L143.626 18.0018" stroke="#D4C0E2" stroke-width="3.42275" stroke-miterlimit="10" stroke-linecap="round" stroke-linejoin="round"/>
<path d="M126.127 30.4944L125.057 36.3558" stroke="#D4C0E2" stroke-width="3.42275" stroke-miterlimit="10" stroke-linecap="round" stroke-linejoin="round"/>
<path d="M128.052 19.5416L126.94 25.7026" stroke="#D4C0E2" stroke-width="3.42275" stroke-miterlimit="10" stroke-linecap="round" stroke-linejoin="round"/>
<path d="M130.448 6.02197L128.993 14.0654" stroke="#D4C0E2" stroke-width="3.42275" stroke-miterlimit="10" stroke-linecap="round" stroke-linejoin="round"/>
<path d="M65.1163 254H5.47498" stroke="#523160" stroke-width="3.42275" stroke-miterlimit="10" stroke-linecap="round" stroke-linejoin="round"/>
<path d="M157.958 254H72.6036" stroke="#523160" stroke-width="3.42275" stroke-miterlimit="10" stroke-linecap="round" stroke-linejoin="round"/>
<path d="M312.41 254H304.666" stroke="#523160" stroke-width="3.42275" stroke-miterlimit="10" stroke-linecap="round" stroke-linejoin="round"/>
<path d="M356.905 254H319.854" stroke="#523160" stroke-width="3.42275" stroke-miterlimit="10" stroke-linecap="round" stroke-linejoin="round"/>
<path d="M366.104 254H363.323" stroke="#523160" stroke-width="3.42275" stroke-miterlimit="10" stroke-linecap="round" stroke-linejoin="round"/>
<path d="M42.9971 181.223L126.897 67.3315L173.789 103.399" stroke="#D4C0E2" stroke-width="3.42275" stroke-miterlimit="10" stroke-linecap="round" stroke-linejoin="round"/>
<path d="M152.353 132.492L212.294 51.1163L314.035 143.53" stroke="#D4C0E2" stroke-width="3.42275" stroke-miterlimit="10" stroke-linecap="round" stroke-linejoin="round"/>
<path d="M22.5748 205.092C25.9176 202.539 27.7201 199.282 26.6017 197.817C25.4829 196.353 21.8663 197.235 18.5236 199.788C15.1812 202.341 13.3785 205.598 14.4973 207.063C15.616 208.528 19.2325 207.645 22.5748 205.092Z" fill="#FDC858"/>
<path d="M22.5562 191.537C25.8985 188.984 27.701 185.727 26.5826 184.262C25.4638 182.797 21.8473 183.679 18.5045 186.233C15.1622 188.786 13.3595 192.043 14.4782 193.507C15.597 194.972 19.2135 194.09 22.5562 191.537Z" fill="#FDC858"/>
<path d="M22.5686 237.996C25.9113 235.443 27.7138 232.186 26.595 230.721C25.4766 229.256 21.8601 230.138 18.5173 232.692C15.1749 235.245 13.3722 238.501 14.4909 239.966C15.6096 241.431 19.2262 240.549 22.5686 237.996Z" fill="#FDC858"/>
<path d="M22.5747 221.094C25.917 218.541 27.7199 215.284 26.6011 213.82C25.4823 212.355 21.8658 213.237 18.5234 215.79C15.1809 218.343 13.3782 221.6 14.4969 223.065C15.6157 224.529 19.2324 223.647 22.5747 221.094Z" fill="#FDC858"/>
<path d="M22.5748 205.092C25.9176 202.539 27.7201 199.282 26.6017 197.817C25.4829 196.353 21.8663 197.235 18.5236 199.788C15.1812 202.341 13.3785 205.598 14.4973 207.063C15.616 208.528 19.2325 207.645 22.5748 205.092Z" stroke="#523160" stroke-width="3.42275" stroke-miterlimit="10" stroke-linecap="round" stroke-linejoin="round"/>
<path d="M22.5562 191.537C25.8985 188.984 27.701 185.727 26.5826 184.262C25.4638 182.797 21.8473 183.679 18.5045 186.233C15.1622 188.786 13.3595 192.043 14.4782 193.507C15.597 194.972 19.2135 194.09 22.5562 191.537Z" stroke="#523160" stroke-width="3.42275" stroke-miterlimit="10" stroke-linecap="round" stroke-linejoin="round"/>
<path d="M22.5686 237.996C25.9113 235.443 27.7138 232.186 26.595 230.721C25.4766 229.256 21.8601 230.138 18.5173 232.692C15.1749 235.245 13.3722 238.501 14.4909 239.966C15.6096 241.431 19.2262 240.549 22.5686 237.996Z" stroke="#523160" stroke-width="3.42275" stroke-miterlimit="10" stroke-linecap="round" stroke-linejoin="round"/>
<path d="M22.5747 221.094C25.917 218.541 27.7199 215.284 26.6011 213.82C25.4823 212.355 21.8658 213.237 18.5234 215.79C15.1809 218.343 13.3782 221.6 14.4969 223.065C15.6157 224.529 19.2324 223.647 22.5747 221.094Z" stroke="#523160" stroke-width="3.42275" stroke-miterlimit="10" stroke-linecap="round" stroke-linejoin="round"/>
<path d="M14.4565 193.561C15.5752 192.097 13.7725 188.84 10.43 186.287C7.08751 183.733 3.471 182.851 2.35224 184.316C1.23351 185.781 3.03618 189.038 6.37871 191.591C9.72119 194.144 13.3377 195.026 14.4565 193.561Z" fill="#FDC858"/>
<path d="M14.4359 233.191C15.5546 231.726 13.7519 228.469 10.4094 225.916C7.0669 223.363 3.45035 222.481 2.33162 223.946C1.21286 225.41 3.01557 228.667 6.35805 231.22C9.70058 233.773 13.3171 234.655 14.4359 233.191Z" fill="#FDC858"/>
<path d="M14.4458 216.243C15.5645 214.778 13.7618 211.521 10.4193 208.967C7.07678 206.415 3.46026 205.532 2.34149 206.997C1.22277 208.462 3.02544 211.718 6.36797 214.272C9.71045 216.825 13.327 217.707 14.4458 216.243Z" fill="#FDC858"/>
<path d="M14.4565 193.561C15.5752 192.097 13.7725 188.84 10.43 186.287C7.08751 183.733 3.471 182.851 2.35224 184.316C1.23351 185.781 3.03618 189.038 6.37871 191.591C9.72119 194.144 13.3377 195.026 14.4565 193.561Z" stroke="#523160" stroke-width="3.42275" stroke-miterlimit="10" stroke-linecap="round" stroke-linejoin="round"/>
<path d="M14.4359 233.191C15.5546 231.726 13.7519 228.469 10.4094 225.916C7.0669 223.363 3.45035 222.481 2.33162 223.946C1.21286 225.41 3.01557 228.667 6.35805 231.22C9.70058 233.773 13.3171 234.655 14.4359 233.191Z" stroke="#523160" stroke-width="3.42275" stroke-miterlimit="10" stroke-linecap="round" stroke-linejoin="round"/>
<path d="M14.4458 216.243C15.5645 214.778 13.7618 211.521 10.4193 208.967C7.07678 206.415 3.46026 205.532 2.34149 206.997C1.22277 208.462 3.02544 211.718 6.36797 214.272C9.71045 216.825 13.327 217.707 14.4458 216.243Z" stroke="#523160" stroke-width="3.42275" stroke-miterlimit="10" stroke-linecap="round" stroke-linejoin="round"/>
<path d="M14.46 191.021V253.187" stroke="#523160" stroke-width="3.42275" stroke-miterlimit="10" stroke-linecap="round" stroke-linejoin="round"/>
<path d="M58.0887 241.282C61.4315 238.729 63.234 235.472 62.1152 234.007C60.9968 232.543 57.3802 233.425 54.0375 235.978C50.6952 238.531 48.8923 241.788 50.0111 243.253C51.1299 244.718 54.7464 243.835 58.0887 241.282Z" stroke="#523160" stroke-width="3.42275" stroke-miterlimit="10" stroke-linecap="round" stroke-linejoin="round"/>
<path d="M58.0887 227.079C61.4315 224.526 63.234 221.269 62.1152 219.804C60.9968 218.34 57.3802 219.222 54.0375 221.775C50.6952 224.328 48.8923 227.585 50.0111 229.049C51.1299 230.514 54.7464 229.632 58.0887 227.079Z" stroke="#523160" stroke-width="3.42275" stroke-miterlimit="10" stroke-linecap="round" stroke-linejoin="round"/>
<path d="M58.0793 214.246C61.4216 211.694 63.2245 208.436 62.1057 206.972C60.9869 205.507 57.3703 206.39 54.028 208.943C50.6853 211.495 48.8828 214.753 50.0016 216.217C51.12 217.682 54.7365 216.799 58.0793 214.246Z" stroke="#523160" stroke-width="3.42275" stroke-miterlimit="10" stroke-linecap="round" stroke-linejoin="round"/>
<path d="M49.9454 233.187C51.0638 231.723 49.2613 228.465 45.9186 225.912C42.5763 223.36 38.9597 222.477 37.8409 223.942C36.7221 225.406 38.525 228.664 41.8673 231.216C45.2101 233.769 48.8266 234.652 49.9454 233.187Z" stroke="#523160" stroke-width="3.42275" stroke-miterlimit="10" stroke-linecap="round" stroke-linejoin="round"/>
<path d="M49.9554 216.239C51.0742 214.775 49.2713 211.518 45.929 208.965C42.5863 206.411 38.9701 205.529 37.8513 206.994C36.7325 208.459 38.535 211.716 41.8778 214.269C45.2201 216.822 48.8366 217.704 49.9554 216.239Z" stroke="#523160" stroke-width="3.42275" stroke-miterlimit="10" stroke-linecap="round" stroke-linejoin="round"/>
<path d="M49.9707 214.466V253.186" stroke="#523160" stroke-width="3.42275" stroke-miterlimit="10" stroke-linecap="round" stroke-linejoin="round"/>
<path d="M99.7717 104.34L103.965 109.731L114.104 105.709L127.239 110.758L132.673 105.709L142.941 109.089L148.503 100.618L161.552 105.837L166.686 97.9224" stroke="#D4C0E2" stroke-width="3.42275" stroke-miterlimit="10" stroke-linecap="round" stroke-linejoin="round"/>
<path d="M185.768 87.0981L198.775 84.1032L203.524 92.874L217.001 85.6007L226.841 91.8044L233.216 82.3918L249.731 85.13" stroke="#D4C0E2" stroke-width="3.42275" stroke-miterlimit="10" stroke-linecap="round" stroke-linejoin="round"/>
<path d="M240.447 55.095H301.372C301.714 54.2821 301.928 53.3409 301.928 52.3996C301.928 48.5918 298.804 45.4686 294.997 45.4686C294.227 45.4686 293.499 45.5969 292.857 45.8108C291.274 41.4896 287.082 38.4092 282.204 38.4092C280.921 38.4092 279.68 38.6231 278.525 39.0081C276.086 33.6173 270.61 29.8523 264.32 29.8523C255.678 29.8523 248.704 36.8261 248.704 45.4686C248.704 46.3243 248.79 47.1799 248.918 48.0356C244.982 48.763 241.816 51.4584 240.447 55.095Z" stroke="#D4C0E2" stroke-width="3.42275" stroke-miterlimit="10" stroke-linecap="round" stroke-linejoin="round"/>
<path d="M346.167 82.9477C346.167 82.905 346.167 82.8622 346.167 82.8194C346.167 78.7121 342.829 75.4177 338.765 75.4177C337.995 75.4177 337.267 75.5461 336.583 75.76C336.583 75.5461 336.583 75.3321 336.583 75.1182C336.583 68.615 331.32 63.3525 324.817 63.3525C318.314 63.3525 313.052 68.615 313.052 75.1182C313.052 75.8028 313.094 76.4445 313.223 77.0863C313.18 77.0863 313.094 77.0863 313.052 77.0863C309.885 77.0863 307.276 79.6534 307.276 82.8622C307.276 82.905 307.276 82.9478 307.276 83.0333H346.167V82.9477Z" stroke="#D4C0E2" stroke-width="3.42275" stroke-miterlimit="10" stroke-linecap="round" stroke-linejoin="round"/>
<path d="M119.196 253.999C108.372 253.999 99.558 245.186 99.558 234.361C99.558 223.537 108.372 214.723 119.196 214.723C130.02 214.723 138.834 223.537 138.834 234.361C138.834 245.186 130.02 253.999 119.196 253.999Z" fill="#5C3F6B"/>
<path d="M119.196 253.999C108.372 253.999 99.558 245.186 99.558 234.361C99.558 223.537 108.372 214.723 119.196 214.723C130.02 214.723 138.834 223.537 138.834 234.361C138.834 245.186 130.02 253.999 119.196 253.999Z" stroke="#523160" stroke-width="3.42275" stroke-miterlimit="10" stroke-linecap="round" stroke-linejoin="round"/>
<path d="M119.196 244.63C113.548 244.63 108.927 240.009 108.927 234.361C108.927 228.714 113.548 224.093 119.196 224.093C124.843 224.093 129.464 228.714 129.464 234.361C129.464 240.009 124.843 244.63 119.196 244.63Z" fill="#FDC858"/>
<path d="M119.196 244.63C113.548 244.63 108.927 240.009 108.927 234.361C108.927 228.714 113.548 224.093 119.196 224.093C124.843 224.093 129.464 228.714 129.464 234.361C129.464 240.009 124.843 244.63 119.196 244.63Z" stroke="#523160" stroke-width="3.42275" stroke-miterlimit="10" stroke-linecap="round" stroke-linejoin="round"/>
<path d="M119.196 237.741C117.313 237.741 115.816 236.201 115.816 234.361C115.816 232.479 117.356 230.981 119.196 230.981C121.078 230.981 122.576 232.522 122.576 234.361C122.576 236.201 121.078 237.741 119.196 237.741Z" fill="#FDC858"/>
<path d="M119.196 237.741C117.313 237.741 115.816 236.201 115.816 234.361C115.816 232.479 117.356 230.981 119.196 230.981C121.078 230.981 122.576 232.522 122.576 234.361C122.576 236.201 121.078 237.741 119.196 237.741Z" stroke="#523160" stroke-width="3.42275" stroke-miterlimit="10" stroke-linecap="round" stroke-linejoin="round"/>
<path d="M276.214 174.592L272.192 159.318C270.609 153.2 265.39 148.75 259.1 148.066C241.131 146.14 219.354 145.028 193.94 145.028C164.847 145.028 120.137 147.253 106.703 148.793C104.264 149.05 102.168 150.633 101.183 152.9L93.0973 171.811C89.375 178.485 87.1075 185.844 86.4657 193.46L86.2946 235.987L95.322 236.158C95.2793 235.559 95.2365 234.96 95.2365 234.361C95.2365 221.141 105.933 210.445 119.153 210.445C132.373 210.445 143.069 221.141 143.069 234.361C143.069 235.132 143.027 235.902 142.941 236.629L205.834 237.399C205.706 236.415 205.62 235.388 205.62 234.361C205.62 221.141 216.316 210.445 229.536 210.445C242.757 210.445 253.453 221.141 253.453 234.361C253.453 235.559 253.367 236.715 253.196 237.87L278.567 238.126V193.802C278.696 187.342 277.84 180.881 276.214 174.592Z" fill="#8E63AD"/>
<g opacity="0.36">
<path opacity="0.36" d="M91.0864 235.987L91.2575 193.46C91.8993 185.844 94.1669 178.485 97.8891 171.811L105.975 152.9C106.959 150.633 109.056 149.092 111.495 148.793C124.544 147.295 167.029 145.156 196.122 145.028C195.395 145.028 194.667 145.028 193.94 145.028C164.847 145.028 120.137 147.253 106.703 148.793C104.264 149.05 102.168 150.633 101.183 152.9L93.0973 171.811C89.375 178.485 87.1075 185.844 86.4657 193.46L86.2946 235.987L95.322 236.158C95.322 236.116 95.322 236.116 95.322 236.073L91.0864 235.987Z" fill="#8E63AD"/>
<path opacity="0.36" d="M258.074 237.87C258.245 236.714 258.33 235.559 258.33 234.361C258.33 221.141 247.634 210.445 234.414 210.445C233.601 210.445 232.831 210.488 232.018 210.573C244.126 211.771 253.539 221.954 253.539 234.361C253.539 235.559 253.453 236.714 253.282 237.87L278.653 238.126V238.083L258.074 237.87Z" fill="#8E63AD"/>
<path opacity="0.36" d="M147.776 236.586C147.861 235.859 147.904 235.088 147.904 234.318C147.904 221.098 137.208 210.402 123.987 210.402C123.175 210.402 122.404 210.445 121.592 210.53C133.7 211.728 143.112 221.911 143.112 234.318C143.112 235.088 143.069 235.859 142.984 236.586L205.877 237.356V237.313L147.776 236.586Z" fill="#8E63AD"/>
</g>
<path opacity="0.36" d="M147.861 232.735H205.021V227.045H146.749C147.348 228.885 147.69 230.767 147.861 232.735Z" fill="#8E63AD"/>
<g opacity="0.25">
<path opacity="0.25" d="M277.07 174.164L273.048 158.89C271.465 152.772 266.245 148.322 259.956 147.638C241.987 145.712 220.209 144.6 194.796 144.6C165.702 144.6 120.993 146.825 107.558 148.365C105.462 148.622 103.579 149.82 102.51 151.617C102.51 151.617 102.51 150.889 102.553 150.889C115.987 149.349 160.697 147.852 189.79 147.852C215.247 147.852 236.981 148.964 254.95 150.889C261.24 151.574 266.417 156.024 268.042 162.142L272.064 177.416C273.733 183.705 274.546 190.165 274.546 196.626V237.656L279.594 237.699V193.374C279.551 186.914 278.696 180.453 277.07 174.164Z" fill="#8E63AD"/>
</g>
<path d="M276.214 174.592L272.192 159.318C270.609 153.2 265.39 148.75 259.1 148.066C241.131 146.14 219.354 145.028 193.94 145.028C164.847 145.028 120.137 147.253 106.703 148.793C104.264 149.05 102.168 150.633 101.183 152.9L93.0973 171.811C89.375 178.485 87.1075 185.844 86.4657 193.46L86.2946 235.987L95.322 236.158C95.2793 235.559 95.2365 234.96 95.2365 234.361C95.2365 221.141 105.933 210.445 119.153 210.445C132.373 210.445 143.069 221.141 143.069 234.361C143.069 235.132 143.027 235.902 142.941 236.629L205.834 237.399C205.706 236.415 205.62 235.388 205.62 234.361C205.62 221.141 216.316 210.445 229.536 210.445C242.757 210.445 253.453 221.141 253.453 234.361C253.453 235.559 253.367 236.715 253.196 237.87L278.567 238.126V193.802C278.696 187.342 277.84 180.881 276.214 174.592Z" stroke="#523160" stroke-width="3.42275" stroke-miterlimit="10" stroke-linecap="round" stroke-linejoin="round"/>
<path d="M229.622 253.999C218.798 253.999 209.984 245.186 209.984 234.361C209.984 223.537 218.798 214.723 229.622 214.723C240.446 214.723 249.26 223.537 249.26 234.361C249.26 245.186 240.446 253.999 229.622 253.999Z" fill="#5C3F6B"/>
<path d="M229.622 253.999C218.798 253.999 209.984 245.186 209.984 234.361C209.984 223.537 218.798 214.723 229.622 214.723C240.446 214.723 249.26 223.537 249.26 234.361C249.26 245.186 240.446 253.999 229.622 253.999Z" stroke="#523160" stroke-width="3.42275" stroke-miterlimit="10" stroke-linecap="round" stroke-linejoin="round"/>
<path d="M229.622 244.63C223.975 244.63 219.354 240.009 219.354 234.361C219.354 228.714 223.975 224.093 229.622 224.093C235.27 224.093 239.89 228.714 239.89 234.361C239.89 240.009 235.27 244.63 229.622 244.63Z" fill="#FDC858"/>
<path d="M229.622 244.63C223.975 244.63 219.354 240.009 219.354 234.361C219.354 228.714 223.975 224.093 229.622 224.093C235.27 224.093 239.89 228.714 239.89 234.361C239.89 240.009 235.27 244.63 229.622 244.63Z" stroke="#523160" stroke-width="3.42275" stroke-miterlimit="10" stroke-linecap="round" stroke-linejoin="round"/>
<path d="M229.622 237.741C227.74 237.741 226.242 236.201 226.242 234.361C226.242 232.479 227.782 230.981 229.622 230.981C231.505 230.981 233.002 232.522 233.002 234.361C233.002 236.201 231.505 237.741 229.622 237.741Z" fill="#FDC858"/>
<path d="M229.622 237.741C227.74 237.741 226.242 236.201 226.242 234.361C226.242 232.479 227.782 230.981 229.622 230.981C231.505 230.981 233.002 232.522 233.002 234.361C233.002 236.201 231.505 237.741 229.622 237.741Z" stroke="#523160" stroke-width="3.42275" stroke-miterlimit="10" stroke-linecap="round" stroke-linejoin="round"/>
<path d="M86.2948 239.795H81.6313C79.706 239.795 78.1658 238.255 78.1658 236.329V222.51C78.1658 220.585 79.706 219.044 81.6313 219.044H86.2948V239.795Z" fill="white"/>
<path d="M86.2948 239.795H81.6313C79.706 239.795 78.1658 238.255 78.1658 236.329V222.51C78.1658 220.585 79.706 219.044 81.6313 219.044H86.2948V239.795Z" stroke="#523160" stroke-width="3.42275" stroke-miterlimit="10" stroke-linecap="round" stroke-linejoin="round"/>
<path d="M86.9792 213.483H85.2679C83.9843 213.483 82.9575 212.456 82.9575 211.172V200.562C82.9575 199.278 83.9843 198.251 85.2679 198.251H86.9792C88.2628 198.251 89.2896 199.278 89.2896 200.562V211.172C89.2896 212.456 88.2628 213.483 86.9792 213.483Z" fill="white"/>
<path d="M86.9792 213.483H85.2679C83.9843 213.483 82.9575 212.456 82.9575 211.172V200.562C82.9575 199.278 83.9843 198.251 85.2679 198.251H86.9792C88.2628 198.251 89.2896 199.278 89.2896 200.562V211.172C89.2896 212.456 88.2628 213.483 86.9792 213.483Z" stroke="#523160" stroke-width="3.42275" stroke-miterlimit="10" stroke-linecap="round" stroke-linejoin="round"/>
<path d="M281.947 243.09H263.55C261.411 243.09 259.699 241.378 259.699 239.239V236.244C259.699 234.105 261.411 232.394 263.55 232.394H281.947C284.087 232.394 285.798 234.105 285.798 236.244V239.239C285.798 241.335 284.044 243.09 281.947 243.09Z" fill="white"/>
<path d="M263.807 238.94C263.807 237.87 264.705 236.971 265.775 236.971H285.755V236.244C285.755 234.105 284.044 232.394 281.905 232.394H263.507C261.368 232.394 259.657 234.105 259.657 236.244V239.239C259.657 241.378 261.368 243.09 263.507 243.09H263.807V238.94Z" fill="#D8D8D8"/>
<path d="M281.947 243.09H263.55C261.411 243.09 259.699 241.378 259.699 239.239V236.244C259.699 234.105 261.411 232.394 263.55 232.394H281.947C284.087 232.394 285.798 234.105 285.798 236.244V239.239C285.798 241.335 284.044 243.09 281.947 243.09Z" stroke="#523160" stroke-width="3.42275" stroke-miterlimit="10" stroke-linecap="round" stroke-linejoin="round"/>
<path d="M250.8 184.518H230.991C228.724 184.518 226.884 182.678 226.884 180.41V160.43C226.884 158.162 228.724 156.323 230.991 156.323H243.013C247.763 156.323 251.784 159.788 252.512 164.495L254.822 179.769C255.25 182.293 253.325 184.518 250.8 184.518Z" fill="#FDC858"/>
<path opacity="0.56" d="M235.27 165.35C235.27 163.083 237.109 161.243 239.377 161.243H251.399C249.731 158.291 246.565 156.366 243.013 156.366H230.991C228.724 156.366 226.884 158.205 226.884 160.473V180.453C226.884 182.721 228.724 184.561 230.991 184.561H235.27V165.35Z" fill="#FDC858"/>
<path d="M250.8 184.518H230.991C228.724 184.518 226.884 182.678 226.884 180.41V160.43C226.884 158.162 228.724 156.323 230.991 156.323H243.013C247.763 156.323 251.784 159.788 252.512 164.495L254.822 179.769C255.25 182.293 253.325 184.518 250.8 184.518Z" stroke="#523160" stroke-width="3.42275" stroke-miterlimit="10" stroke-linecap="round" stroke-linejoin="round"/>
<path d="M213.707 184.09H169.981C167.713 184.09 165.874 182.25 165.874 179.983V160.002C165.874 157.735 167.713 155.895 169.981 155.895H213.707C215.974 155.895 217.814 157.735 217.814 160.002V179.983C217.771 182.25 215.974 184.09 213.707 184.09Z" fill="#FDC858"/>
<path opacity="0.56" d="M173.789 164.409C173.789 162.142 175.628 160.302 177.896 160.302H217.771V160.002C217.771 157.735 215.931 155.895 213.664 155.895H169.981C167.713 155.895 165.874 157.735 165.874 160.002V179.983C165.874 182.25 167.713 184.09 169.981 184.09H173.832V164.409H173.789Z" fill="#FDC858"/>
<path d="M213.707 184.09H169.981C167.713 184.09 165.874 182.25 165.874 179.983V160.002C165.874 157.735 167.713 155.895 169.981 155.895H213.707C215.974 155.895 217.814 157.735 217.814 160.002V179.983C217.771 182.25 215.974 184.09 213.707 184.09Z" stroke="#523160" stroke-width="3.42275" stroke-miterlimit="10" stroke-linecap="round" stroke-linejoin="round"/>
<path d="M145.979 184.518H104.777C102.467 184.518 100.798 181.951 101.44 179.341L106.189 159.361C106.617 157.606 107.986 156.366 109.526 156.366H145.979C147.904 156.366 149.444 158.205 149.444 160.473V180.453C149.487 182.678 147.904 184.518 145.979 184.518Z" fill="#FDC858"/>
<path opacity="0.56" d="M109.142 183.534L113.891 163.553C114.319 161.799 115.688 160.558 117.228 160.558H149.444V160.43C149.444 158.162 147.904 156.323 145.979 156.323H109.527C107.986 156.323 106.617 157.563 106.189 159.318L101.44 179.298C100.841 181.908 102.467 184.475 104.778 184.475H109.013C109.056 184.175 109.099 183.876 109.142 183.534Z" fill="#FDC858"/>
<path d="M145.979 184.518H104.777C102.467 184.518 100.798 181.951 101.44 179.341L106.189 159.361C106.617 157.606 107.986 156.366 109.526 156.366H145.979C147.904 156.366 149.444 158.205 149.444 160.473V180.453C149.487 182.678 147.904 184.518 145.979 184.518Z" stroke="#523160" stroke-width="3.42275" stroke-miterlimit="10" stroke-linecap="round" stroke-linejoin="round"/>
<path opacity="0.48" d="M150.214 147.039C155.092 147.039 159.028 150.975 159.028 155.852V236.8" stroke="#523160" stroke-width="0.855686" stroke-miterlimit="10" stroke-linecap="round" stroke-linejoin="round"/>
<path d="M138.834 194.786H151.669" stroke="#523160" stroke-width="3.42275" stroke-miterlimit="10" stroke-linecap="round" stroke-linejoin="round"/>
<path d="M205.449 193.802H216.402" stroke="#523160" stroke-width="3.42275" stroke-miterlimit="10" stroke-linecap="round" stroke-linejoin="round"/>
<path d="M279.808 223.537H278.14V182.678H279.808C282.632 182.678 284.942 184.989 284.942 187.812V218.403C284.942 221.227 282.632 223.537 279.808 223.537Z" fill="#D8D8D8"/>
<path d="M279.808 223.537H278.14V182.678H279.808C282.632 182.678 284.942 184.989 284.942 187.812V218.403C284.942 221.227 282.632 223.537 279.808 223.537Z" stroke="#523160" stroke-width="3.42275" stroke-miterlimit="10" stroke-linecap="round" stroke-linejoin="round"/>
<path d="M259.699 160.644H264.876" stroke="#523160" stroke-width="3.42275" stroke-miterlimit="10" stroke-linecap="round" stroke-linejoin="round"/>
<path d="M261.839 168.003H267.016" stroke="#523160" stroke-width="3.42275" stroke-miterlimit="10" stroke-linecap="round" stroke-linejoin="round"/>
<path d="M263.849 175.32H269.026" stroke="#523160" stroke-width="3.42275" stroke-miterlimit="10" stroke-linecap="round" stroke-linejoin="round"/>
<path d="M264.705 182.678H269.925" stroke="#523160" stroke-width="3.42275" stroke-miterlimit="10" stroke-linecap="round" stroke-linejoin="round"/>
<path d="M202.155 239.453H146.835C144.524 239.453 142.684 237.613 142.684 235.303C142.684 232.993 144.524 231.153 146.835 231.153H202.155C204.465 231.153 206.305 232.993 206.305 235.303C206.305 237.57 204.465 239.453 202.155 239.453Z" fill="white"/>
<path d="M202.155 239.453H146.835C144.524 239.453 142.684 237.613 142.684 235.303C142.684 232.993 144.524 231.153 146.835 231.153H202.155C204.465 231.153 206.305 232.993 206.305 235.303C206.305 237.57 204.465 239.453 202.155 239.453Z" fill="white"/>
<path d="M206.305 231.153H142.684V235.303H206.305V231.153Z" fill="#D8D8D8"/>
<path d="M202.155 239.453H146.835C144.524 239.453 142.684 237.613 142.684 235.303C142.684 232.993 144.524 231.153 146.835 231.153H202.155C204.465 231.153 206.305 232.993 206.305 235.303C206.305 237.57 204.465 239.453 202.155 239.453Z" stroke="#523160" stroke-width="3.42275" stroke-miterlimit="10" stroke-linecap="round" stroke-linejoin="round"/>
<path d="M112.907 173.908L121.292 165.479" stroke="#523160" stroke-width="1.71137" stroke-miterlimit="10" stroke-linecap="round" stroke-linejoin="round"/>
<path d="M120.009 174.677L131.304 163.296" stroke="#523160" stroke-width="1.71137" stroke-miterlimit="10" stroke-linecap="round" stroke-linejoin="round"/>
<path d="M178.067 172.923L186.41 164.452" stroke="#523160" stroke-width="1.71137" stroke-miterlimit="10" stroke-linecap="round" stroke-linejoin="round"/>
<path d="M185.169 173.694L196.464 162.313" stroke="#523160" stroke-width="1.71137" stroke-miterlimit="10" stroke-linecap="round" stroke-linejoin="round"/>
<path d="M232.318 173.736L239.206 166.762" stroke="#523160" stroke-width="1.71137" stroke-miterlimit="10" stroke-linecap="round" stroke-linejoin="round"/>
<path d="M238.179 174.378L247.463 164.965" stroke="#523160" stroke-width="1.71137" stroke-miterlimit="10" stroke-linecap="round" stroke-linejoin="round"/>
<path d="M302.655 196.326L337.995 112.64C338.765 110.843 341.332 110.843 342.102 112.64L377.442 196.326C381.677 206.338 372.65 216.82 359.815 216.82H320.282C307.447 216.82 298.419 206.338 302.655 196.326Z" fill="#FDC858"/>
<path d="M302.655 196.326L337.995 112.64C338.765 110.843 341.332 110.843 342.102 112.64L377.442 196.326C381.677 206.338 372.65 216.82 359.815 216.82H320.282C307.447 216.82 298.419 206.338 302.655 196.326Z" fill="#FDC858"/>
<path opacity="0.56" d="M319.94 200.262L345.14 119.785L342.145 112.64C341.375 110.843 338.808 110.843 338.038 112.64L302.698 196.326C298.462 206.338 307.49 216.82 320.325 216.82H323.32C319.555 213.654 318.1 208.391 319.94 200.262Z" fill="#FDC858"/>
<path d="M340.048 254V128.043" stroke="#523160" stroke-width="3.42275" stroke-miterlimit="10" stroke-linecap="round" stroke-linejoin="round"/>
<path d="M350.231 145.584L340.048 155.297L329.908 145.584" stroke="#523160" stroke-width="3.42275" stroke-miterlimit="10" stroke-linecap="round" stroke-linejoin="round"/>
<path d="M352.156 164.067L340.048 175.661L327.94 164.067" stroke="#523160" stroke-width="3.42275" stroke-miterlimit="10" stroke-linecap="round" stroke-linejoin="round"/>
<path d="M360.243 185.117L340.048 201.161L319.854 185.117" stroke="#523160" stroke-width="3.42275" stroke-miterlimit="10" stroke-linecap="round" stroke-linejoin="round"/>
<path d="M226.627 2L221.493 7.13412L216.359 2" stroke="#D4C0E2" stroke-width="3.42275" stroke-miterlimit="10" stroke-linecap="round" stroke-linejoin="round"/>
<path d="M264.834 8.67456L259.699 13.8087L254.523 8.67456" stroke="#D4C0E2" stroke-width="3.42275" stroke-miterlimit="10" stroke-linecap="round" stroke-linejoin="round"/>
<path d="M346.209 36.2705L341.032 41.4046L335.898 36.2705" stroke="#D4C0E2" stroke-width="3.42275" stroke-miterlimit="10" stroke-linecap="round" stroke-linejoin="round"/>
<path d="M296.366 254H177.425" stroke="#523160" stroke-width="3.42275" stroke-miterlimit="10" stroke-linecap="round" stroke-linejoin="round"/>
<path d="M179.008 254H164.59" stroke="#523160" stroke-width="3.42275" stroke-miterlimit="10" stroke-linecap="round" stroke-linejoin="round"/>
</svg>
