<svg width="321" height="254" viewBox="0 0 321 254" fill="none" xmlns="http://www.w3.org/2000/svg">
<path d="M299.037 13.3602H51.5396C48.5841 13.3602 45.7497 14.5343 43.6599 16.6241C41.5701 18.7139 40.396 21.5483 40.396 24.5038V190.505C40.396 193.461 41.5701 196.295 43.6599 198.385C45.7497 200.475 48.5841 201.649 51.5396 201.649H159.154V221.006H135.201C130.437 221.007 125.868 222.9 122.5 226.269C119.132 229.639 117.239 234.208 117.239 238.972H232.675C232.675 234.208 230.782 229.639 227.414 226.269C224.046 222.9 219.477 221.007 214.713 221.006H190.755V201.649H299.018C301.974 201.649 304.808 200.475 306.898 198.385C308.988 196.295 310.162 193.461 310.162 190.505V24.5038C310.162 21.5516 308.991 18.72 306.905 16.6307C304.819 14.5414 301.989 13.3651 299.037 13.3602Z" fill="#161730"/>
<path d="M292.854 20.6819H57.7228C52.1946 20.6819 47.7131 25.1634 47.7131 30.6916V171.349C47.7131 176.878 52.1946 181.359 57.7228 181.359H292.854C298.382 181.359 302.864 176.878 302.864 171.349V30.6916C302.864 25.1634 298.382 20.6819 292.854 20.6819Z" fill="white"/>
<path d="M231.849 50.0109H103.062V137.475H231.849V50.0109Z" fill="#CCCCFF"/>
<path d="M249.101 64.8551H120.314V152.319H249.101V64.8551Z" fill="#161730"/>
<path d="M202.459 99.5739V95.458C202.459 90.7507 200.589 86.2361 197.26 82.9076C193.932 79.579 189.417 77.709 184.71 77.709C180.002 77.709 175.488 79.579 172.159 82.9076C168.831 86.2361 166.961 90.7507 166.961 95.458V99.5739C166.083 100.201 165.367 101.029 164.874 101.988C164.38 102.947 164.123 104.011 164.124 105.09V132.683C164.125 134.483 164.841 136.208 166.114 137.481C167.387 138.753 169.113 139.468 170.913 139.468H198.506C200.306 139.468 202.032 138.753 203.304 137.481C204.577 136.208 205.291 134.482 205.291 132.683V105.09C205.293 104.011 205.036 102.948 204.544 101.988C204.051 101.029 203.336 100.201 202.459 99.5739ZM170.442 95.458C170.408 93.5626 170.751 91.6794 171.453 89.9183C172.155 88.1573 173.2 86.5536 174.528 85.2011C175.857 83.8486 177.441 82.7743 179.189 82.0409C180.937 81.3075 182.814 80.9298 184.71 80.9298C186.606 80.9298 188.482 81.3075 190.23 82.0409C191.978 82.7743 193.563 83.8486 194.891 85.2011C196.219 86.5536 197.265 88.1573 197.967 89.9183C198.668 91.6794 199.012 93.5626 198.978 95.458V98.3186C198.824 98.3186 198.665 98.3186 198.511 98.3186H170.913C170.755 98.3186 170.596 98.3186 170.447 98.3186L170.442 95.458Z" fill="#5F9DFA"/>
<path d="M190.84 116.845C190.84 118.075 190.471 119.276 189.779 120.293C189.087 121.31 188.106 122.096 186.962 122.547V127.62H182.482V122.556C181.442 122.151 180.532 121.47 179.851 120.586C179.17 119.702 178.743 118.649 178.616 117.54C178.489 116.432 178.667 115.309 179.131 114.294C179.595 113.279 180.327 112.41 181.248 111.78C182.169 111.151 183.245 110.784 184.359 110.721C185.473 110.658 186.584 110.899 187.571 111.421C188.558 111.942 189.383 112.722 189.96 113.678C190.536 114.634 190.84 115.729 190.84 116.845Z" fill="#161730"/>
<path d="M94.1121 133.341V157.723H52.5989V128.693H71.1809V133.341H94.1121Z" fill="#161730"/>
<path d="M97.304 136.243V160.626H55.7908V131.595H74.3728V136.243H97.304Z" fill="#6562BE"/>
<path d="M94.1121 88.2669V112.649H52.5989V83.6191H71.1809V88.2669H94.1121Z" fill="#161730"/>
<path d="M97.304 91.1695V115.552H55.7908V86.5217H74.3728V91.1695H97.304Z" fill="#D1B7E5"/>
<path d="M94.1121 42.8572V67.2397H52.5989V38.2093H71.1809V42.8572H94.1121Z" fill="#161730"/>
<path d="M97.304 45.7597V70.1422H55.7908V41.1119H74.3728V45.7597H97.304Z" fill="#D1B7E5"/>
<path d="M293.95 133.434V157.817H252.437V128.786H271.019V133.434H293.95Z" fill="#161730"/>
<path d="M297.142 136.337V160.719H255.629V131.689H274.211V136.337H297.142Z" fill="#D1B7E5"/>
<path d="M293.95 88.3556V112.743H252.437V83.7124H271.019V88.3556H293.95Z" fill="#161730"/>
<path d="M297.142 91.2582V115.645H255.629V86.615H274.211V91.2582H297.142Z" fill="#D1B7E5"/>
<path d="M293.95 42.9505V67.333H252.437V38.3027H271.019V42.9505H293.95Z" fill="#161730"/>
<path d="M297.142 45.8531V70.2356H255.629V41.2052H274.211V45.8531H297.142Z" fill="#D1B7E5"/>
<path d="M266.068 28.2324H131.005V44.2011H266.068V28.2324Z" fill="#5F9DFA"/>
<path d="M257.748 31.8909H138.052V40.5379H257.748V31.8909Z" fill="white"/>
<path d="M119.642 148.633L118.98 150.098L118.466 151.232L117.314 152.534L115.704 153.467L114.542 155.465L60.7465 138.558C59.818 138.201 58.969 137.665 58.2479 136.979C57.5268 136.294 56.9476 135.474 56.5435 134.565C55.7275 132.729 55.674 130.645 56.3949 128.77C56.7519 127.841 57.2882 126.992 57.9733 126.271C58.6584 125.55 59.4788 124.971 60.3877 124.567C62.2233 123.751 64.3079 123.697 66.1829 124.418L115.181 145.446L119.642 148.633Z" fill="#FFC0C0"/>
<path d="M112.115 142.608L106.908 155.031L76.188 146.379L78.0733 127.088L112.115 142.608Z" fill="#5F9DFA"/>
<path d="M76.3093 175.657L102.568 226.643L111.999 222.126L93.3047 168.307L76.3093 175.657Z" fill="#FFC0C0"/>
<path d="M45.5338 188.517L29.915 216.857L35.9302 223.885L61.4373 194.775L66.1178 170.523L49.099 167.971L45.5338 188.517Z" fill="#FFC0C0"/>
<path d="M45.4358 180.827C45.4358 180.827 43.5692 160.294 49.9483 149.673L81.8205 145.338C81.8205 145.338 94.6814 164.172 97.178 174.779L75.4788 182.862L68.6517 162.861L66.5237 184.136L45.4358 180.827Z" fill="#5F9DFA"/>
<path d="M59.5519 111.431C59.3223 111.499 59.0965 111.578 58.8753 111.669C54.4421 113.461 52.1229 120.816 50.8256 125.767C50.0883 128.567 48.595 151.862 48.595 151.862L84.2191 148.446C84.7277 148.395 82.0305 133.812 81.7972 132.799C79.9306 124.75 76.58 114.367 69.3469 111.8C66.701 110.876 62.4172 110.596 59.5519 111.431Z" fill="#161730"/>
<path d="M106.628 240.423L137.403 226.643C135.845 223.008 131.047 223.554 127.296 224.804L115.354 226.643L112.391 218.831L99.8752 223.526L106.628 240.423Z" fill="#14AF6C"/>
<path d="M106.628 240.423C106.628 240.423 109.381 245.472 111.22 243.176C113.058 240.88 113.515 239.042 115.354 239.042C117.193 239.042 121.784 239.042 122.242 236.746C122.486 235.649 123.156 234.695 124.103 234.092C125.051 233.489 126.199 233.287 127.296 233.531C129.592 233.997 131.887 233.997 132.349 231.235C132.811 228.472 136.941 229.858 137.403 229.396C137.865 228.934 137.403 226.643 137.403 226.643L106.628 240.423Z" fill="#FE4877"/>
<path d="M129.512 224.193C129.512 224.193 128.518 230.031 129.512 230.171C130.506 230.311 137.403 226.643 137.403 226.643C137.403 226.643 136.316 222.662 129.512 224.193Z" fill="#F9851C"/>
<path d="M99.7351 223.885C99.7351 223.885 106.166 223.885 106.628 227.1C107.09 230.315 108.461 235.826 111.219 235.369C113.977 234.912 113.753 237.236 113.753 237.236L106.628 240.428L99.7351 223.885Z" fill="#F9851C"/>
<path d="M116.118 227.002L113.824 231.135L114.13 231.305L116.424 227.172L116.118 227.002Z" fill="#FFCB39"/>
<path d="M120.472 226.792L118.635 230.924L118.955 231.066L120.791 226.934L120.472 226.792Z" fill="#FFCB39"/>
<path d="M124.4 225.165L123.221 229.108L123.557 229.208L124.735 225.265L124.4 225.165Z" fill="#FFCB39"/>
<path d="M53.5742 170.831C56.8731 170.831 59.5473 168.157 59.5473 164.858C59.5473 161.559 56.8731 158.885 53.5742 158.885C50.2753 158.885 47.6011 161.559 47.6011 164.858C47.6011 168.157 50.2753 170.831 53.5742 170.831Z" fill="#161730"/>
<path d="M61.1524 180.71C62.6756 180.71 63.9103 179.476 63.9103 177.952C63.9103 176.429 62.6756 175.195 61.1524 175.195C59.6293 175.195 58.3945 176.429 58.3945 177.952C58.3945 179.476 59.6293 180.71 61.1524 180.71Z" fill="#161730"/>
<path d="M73.5514 164.63C77.8632 164.63 81.3585 161.134 81.3585 156.823C81.3585 152.511 77.8632 149.015 73.5514 149.015C69.2397 149.015 65.7444 152.511 65.7444 156.823C65.7444 161.134 69.2397 164.63 73.5514 164.63Z" fill="#161730"/>
<path d="M77.6861 174.733C78.9541 174.733 79.982 173.705 79.982 172.437C79.982 171.169 78.9541 170.141 77.6861 170.141C76.4181 170.141 75.3901 171.169 75.3901 172.437C75.3901 173.705 76.4181 174.733 77.6861 174.733Z" fill="#161730"/>
<path d="M90.0895 172.437C90.8498 172.437 91.4661 171.82 91.4661 171.06C91.4661 170.3 90.8498 169.683 90.0895 169.683C89.3292 169.683 88.7129 170.3 88.7129 171.06C88.7129 171.82 89.3292 172.437 90.0895 172.437Z" fill="#161730"/>
<path d="M55.1795 154.984C56.4475 154.984 57.4754 153.956 57.4754 152.688C57.4754 151.42 56.4475 150.392 55.1795 150.392C53.9115 150.392 52.8835 151.42 52.8835 152.688C52.8835 153.956 53.9115 154.984 55.1795 154.984Z" fill="#161730"/>
<path d="M65.2871 166.006C65.5397 166.006 65.7445 165.801 65.7445 165.549C65.7445 165.296 65.5397 165.092 65.2871 165.092C65.0346 165.092 64.8298 165.296 64.8298 165.549C64.8298 165.801 65.0346 166.006 65.2871 166.006Z" fill="#161730"/>
<path d="M85.0356 163.253C86.0511 163.253 86.8742 162.43 86.8742 161.414C86.8742 160.399 86.0511 159.576 85.0356 159.576C84.0202 159.576 83.197 160.399 83.197 161.414C83.197 162.43 84.0202 163.253 85.0356 163.253Z" fill="#161730"/>
<path d="M29.4531 212.863L18.2021 229.167L25.0946 243.867L49.4397 243.4C49.4397 243.4 47.1438 237.432 41.1707 237.889C35.1976 238.346 32.9016 238.356 32.9016 238.356L33.8349 229.625L39.1034 222.966L29.4531 212.863Z" fill="#14AF6C"/>
<path d="M17.9735 228.939C17.9735 228.939 14.7582 232.154 17.0402 233.073C19.3221 233.993 16.1069 235.369 17.5068 236.288C18.9068 237.208 20.2601 236.288 19.8027 237.665C19.3454 239.042 18.8694 241.338 20.2694 241.338C21.6693 241.338 21.6693 242.271 21.6693 244.096C21.6693 245.92 22.6026 247.773 25.3419 246.391C28.0811 245.01 26.2752 246.391 28.5571 246.858C30.839 247.325 30.853 245.925 32.6916 245.458C34.5302 244.991 33.1583 247.759 35.9068 246.858C38.6554 245.957 39.1221 244.557 40.0414 245.019C40.9607 245.481 40.0414 246.419 42.7946 245.953C45.5478 245.486 44.6332 244.114 46.0098 244.553C47.3864 244.991 47.4098 246.853 48.7677 245.953C50.1257 245.052 49.2344 243.195 49.2344 243.195H24.8659L17.9735 228.939Z" fill="#FE4877"/>
<path d="M21.3286 235.602C21.3286 235.602 28.5197 230.773 27.1617 227.557C25.8038 224.342 28.095 221.589 28.5384 219.75C28.9817 217.912 29.005 214.972 27.1617 216.078L17.9734 228.939L21.3286 235.602Z" fill="#F9851C"/>
<path d="M39.7938 243.176H49.2108C48.7241 241.661 47.7761 240.335 46.4994 239.385C45.2227 238.435 43.6811 237.907 42.0898 237.875C42.0898 237.875 39.1032 241.338 39.7938 243.176Z" fill="#F9851C"/>
<path d="M33.629 231.295L29.9211 231.518L29.9421 231.867L33.65 231.644L33.629 231.295Z" fill="#FFCB39"/>
<path d="M33.3088 234.097L29.2039 234.505L29.2385 234.853L33.3434 234.445L33.3088 234.097Z" fill="#FFCB39"/>
<path d="M32.8824 236.799L29.2063 237.262L29.25 237.609L32.9262 237.146L32.8824 236.799Z" fill="#FFCB39"/>
<path d="M15.8735 243.853C15.6473 243.853 15.4213 243.839 15.1968 243.811C8.25773 242.878 7.73042 240.544 7.69775 240.456L8.03841 240.386C8.03841 240.386 8.61239 242.579 15.2388 243.461C21.9353 244.357 30.601 230.367 30.685 230.222L30.9836 230.409C30.6383 230.992 22.6632 243.853 15.8735 243.853Z" fill="#FFCB39"/>
<path d="M75.3294 98.0993L74.5828 105.099C74.4488 106.327 73.8332 107.452 72.8709 108.228C71.9087 109.003 70.6783 109.364 69.4496 109.234H69.1789C69.1463 109.518 69.1183 109.803 69.0856 110.088C69.0156 110.778 68.9409 111.487 68.8663 112.159C68.8196 112.603 68.9409 113.13 68.633 113.508C68.3046 113.825 67.8992 114.05 67.457 114.161C66.281 114.535 63.7751 114.25 63.9618 112.481L64.5824 106.653L65.0257 96.9933L75.3294 98.0993Z" fill="#FFC0C0"/>
<path d="M74.858 100.148C75.5206 100.218 76.6359 103.942 76.6359 103.942L74.48 103.713L74.858 100.148Z" fill="#FF534A"/>
<path d="M70.299 105.192C71.2217 105.192 71.9696 104.444 71.9696 103.522C71.9696 102.599 71.2217 101.851 70.299 101.851C69.3764 101.851 68.6284 102.599 68.6284 103.522C68.6284 104.444 69.3764 105.192 70.299 105.192Z" fill="#FF534A"/>
<path d="M71.7175 100.33C71.7338 100.309 71.7526 100.29 71.7735 100.274C71.8762 100.211 71.9939 100.177 72.1142 100.176C72.6461 100.12 74.0134 99.9379 74.1254 100.727C74.2094 101.356 73.3601 101.193 72.9075 101.1C72.4548 101.006 71.3442 100.876 71.7175 100.33Z" fill="white"/>
<path d="M73.318 100.153C73.318 100.153 72.7534 100.461 73.2107 101.165C73.2107 101.165 74.2233 101.422 74.144 100.741C74.1299 100.647 74.0972 100.557 74.0477 100.477C73.9982 100.396 73.9329 100.326 73.8558 100.271C73.7788 100.216 73.6914 100.178 73.599 100.157C73.5066 100.137 73.4111 100.135 73.318 100.153Z" fill="#0C0604"/>
<path d="M73.3741 106.891C73.1745 106.878 72.9809 106.818 72.8089 106.716C72.637 106.613 72.4917 106.472 72.3848 106.303L72.6834 106.116C73.1034 106.798 74.0134 106.466 74.0274 106.462L74.1487 106.788C73.901 106.878 73.6367 106.913 73.3741 106.891Z" fill="#33270A"/>
<path d="M74.0508 99.2052C74.0508 99.2052 72.8375 98.5519 71.2229 99.7839C71.2229 99.7839 73.7475 99.7185 74.0508 99.2052Z" fill="#0C0604"/>
<path d="M75.7587 95.9293C76.8554 97.5486 76.356 100.129 76.356 100.129L68.591 100.796L68.0917 97.7773L67.9703 100.838L64.5778 101.305L64.1858 97.8473C64.1716 97.5352 64.1888 97.2226 64.2371 96.914C63.6635 97.112 63.0535 97.1821 62.4499 97.1193C61.6236 97.0358 60.8407 96.7093 60.2 96.1809C59.5593 95.6526 59.0896 94.9462 58.8503 94.1509C58.611 93.3557 58.6128 92.5074 58.8555 91.7132C59.0982 90.919 59.5709 90.2146 60.2139 89.689C60.8569 89.1634 61.6412 88.8403 62.4678 88.7603C63.2944 88.6804 64.1261 88.8474 64.8579 89.24C65.5896 89.6327 66.1885 90.2335 66.5789 90.9665C66.9693 91.6995 67.1336 92.5318 67.051 93.3581C66.9914 93.9615 66.8003 94.5445 66.4911 95.066C67.6717 94.8887 69.2536 94.9587 71.1296 94.8514C70.5332 94.1827 70.1663 93.3409 70.0824 92.4489C69.9986 91.5569 70.2022 90.6615 70.6635 89.8934C71.1248 89.1254 71.8196 88.525 72.6465 88.1799C73.4733 87.8349 74.3888 87.7633 75.2592 87.9757C76.1296 88.188 76.9093 88.6731 77.4844 89.3601C78.0595 90.0472 78.3998 90.9001 78.4556 91.7943C78.5114 92.6885 78.2797 93.5771 77.7945 94.3303C77.3093 95.0835 76.596 95.6618 75.7587 95.9807V95.9293Z" fill="#0C0604"/>
<path d="M66.2343 103.414C67.2936 103.414 68.1523 102.556 68.1523 101.496C68.1523 100.437 67.2936 99.5785 66.2343 99.5785C65.1751 99.5785 64.3164 100.437 64.3164 101.496C64.3164 102.556 65.1751 103.414 66.2343 103.414Z" fill="#FD925A"/>
<path d="M66.8456 101.576C66.9588 101.891 66.9718 102.233 66.883 102.556L66.5423 102.481C66.5956 102.323 66.6124 102.155 66.5914 101.989C66.5704 101.823 66.5121 101.664 66.421 101.524C66.3236 101.424 66.2068 101.344 66.0777 101.289C65.9486 101.235 65.8098 101.207 65.6697 101.207V100.857C66.025 100.857 66.367 100.992 66.6263 101.235C66.7206 101.063 66.7519 100.863 66.715 100.671C66.6998 100.611 66.6653 100.559 66.617 100.521L66.7616 100.204C66.8971 100.276 66.9991 100.398 67.0463 100.545C67.083 100.721 67.0842 100.903 67.0497 101.08C67.0153 101.257 66.9459 101.426 66.8456 101.576Z" fill="#0C0604"/>
<path d="M94.9146 163.206C91.052 159.952 86.108 158.268 81.0621 158.486C76.0161 158.705 71.2365 160.811 67.6701 164.388C64.1037 167.964 62.0109 172.75 61.8061 177.796C61.6014 182.843 63.2997 187.782 66.5647 191.636C69.8297 195.489 74.423 197.975 79.4346 198.602C84.4462 199.229 89.5105 197.951 93.624 195.02C97.7375 192.089 100.6 187.721 101.645 182.779C102.689 177.838 101.839 172.684 99.2638 168.339L138.117 135.394L143.908 142.221L148.817 138.059L143.026 131.222L146.657 128.142L153.19 135.828L165.575 125.328L154.711 112.514L94.9146 163.206ZM82.5484 188.009C81.5211 188.881 80.2795 189.462 78.9521 189.693C77.6247 189.923 76.2597 189.795 74.9985 189.321C73.7373 188.847 72.6256 188.045 71.7786 186.997C70.9315 185.95 70.3799 184.694 70.1807 183.362C69.9815 182.029 70.1421 180.668 70.6458 179.418C71.1494 178.169 71.9779 177.076 73.0455 176.255C74.113 175.433 75.3808 174.911 76.7176 174.743C78.0545 174.576 79.4118 174.769 80.6491 175.302C81.7203 175.764 82.6699 176.468 83.4236 177.359C84.1773 178.249 84.7147 179.302 84.9936 180.435C85.3317 181.8 85.282 183.232 84.8499 184.57C84.4179 185.908 83.6208 187.099 82.5484 188.009Z" fill="#D1B7E5"/>
<path d="M104.728 155.194L101.084 155.353L103.184 157.051L103.156 157.079L108.219 160.738L107.276 161.848L102.479 157.952L101.611 159.072L106.39 162.516L105.447 163.234L100.939 159.94L100.015 161.139L104.672 163.958L103.342 165.064L99.1005 162.315L98.3772 163.248L102.064 165.95L101.233 167.117L89.9495 158.726L93.6313 150.537L99.2171 154.125L106.721 153.313L104.728 155.194Z" fill="#FFC0C0"/>
<path d="M97.4159 149.678L90.8268 161.862L71.8528 151.596L67.5269 149.263L66.5936 147.396L54.4607 126.976C54.0132 126.217 53.7248 125.375 53.6132 124.501C53.5015 123.627 53.5688 122.74 53.8111 121.893C54.0534 121.046 54.4656 120.257 55.0225 119.574C55.5795 118.892 56.2695 118.33 57.0506 117.923C58.1247 117.337 59.3321 117.04 60.5552 117.059C61.7497 117.064 62.9231 117.374 63.9637 117.961C65.0043 118.547 65.8776 119.39 66.5003 120.41L73.5 132.193L77.4012 138.847L85.3343 143.15L97.4159 149.678Z" fill="#5F9DFA"/>
<path d="M113.487 156.249L112.713 152.259L113.875 151.479L115.816 155.362L115.429 149.431L117.258 148.819L117.813 154.307L118.863 147.821L120.263 147.214L120.319 152.422L121.098 146.822L122.498 146.048L122.83 149.095C122.83 149.095 118.312 158.908 113.487 156.249Z" fill="#FFC0C0"/>
<path d="M112.433 145.716L118.588 143.775L119.587 146.323L117.757 147.378L117.258 145.548L112.713 147.49L112.433 145.716Z" fill="#FFC0C0"/>
</svg>
