<svg width="142" height="26" viewBox="0 0 142 26" fill="none" xmlns="http://www.w3.org/2000/svg">
<g clip-path="url(#clip0_222_245)">
<path d="M13.5471 1.19674C13.4506 1.20689 13.151 1.24244 12.8869 1.27291C10.2615 1.57252 7.5092 2.95884 5.69123 4.89361C4.05099 6.64049 3.0049 8.73267 2.57326 11.1194C2.43107 11.8913 2.38537 13.5264 2.47678 14.3795C2.54279 14.9585 2.54787 14.9838 2.64943 14.9534C3.08615 14.8112 3.46193 14.7299 3.71584 14.7299L4.01037 14.7249L3.9799 14.5624C3.90881 14.1967 3.88849 12.5514 3.94435 12.0385C4.06623 10.9366 4.3506 9.86509 4.80256 8.84439C5.04631 8.29088 5.1174 8.25533 5.1174 8.69205C5.1174 9.28111 5.42209 10.3272 5.80295 11.0635C6.44787 12.3026 7.10803 12.8155 8.72287 13.3284C10.0178 13.7397 10.3428 13.9174 10.5205 14.2881C10.6272 14.5167 10.6373 14.9686 10.5358 15.1667C10.4444 15.3393 10.099 15.6694 9.79435 15.8674C9.68263 15.9436 9.58615 16.0198 9.58615 16.0401C9.58615 16.0553 9.82482 16.1366 10.1194 16.2128L10.6526 16.3499L11.8561 15.9487C12.5213 15.7253 13.2881 15.4917 13.5623 15.4256C13.8315 15.3647 14.0549 15.2936 14.0549 15.2784C14.0549 15.2581 13.8315 15.1463 13.5623 15.0295C12.308 14.4913 12.0795 14.3491 11.851 13.9428C11.6529 13.6077 11.5768 13.303 11.4701 12.4956C11.3076 11.2565 11.1858 11.1499 10.2819 11.3936C10.0178 11.4647 9.70295 11.5256 9.58107 11.5256C9.3881 11.5256 9.33732 11.5003 9.12912 11.2768C8.82951 10.967 8.73303 10.6471 8.82443 10.2612C8.92599 9.84478 9.29162 9.39791 9.73849 9.15924C9.96701 9.03736 10.5154 9.03736 10.9115 9.15416C11.3076 9.27095 11.8764 9.66197 12.3283 10.1292C13.0951 10.9163 13.349 10.9823 13.8467 10.5354C14.1819 10.2307 14.4561 9.66705 14.5373 9.11353C14.583 8.82916 14.4916 8.67681 14.192 8.52447C13.9026 8.38228 13.801 8.24517 13.801 7.99127C13.801 7.6358 14.0701 7.36158 15.1061 6.65572C15.8932 6.12252 16.076 5.82799 15.8424 5.47252C15.7053 5.26431 15.558 5.16783 14.7151 4.74634C13.6588 4.21822 13.3643 4.03541 13.1865 3.79166C12.9326 3.44127 12.9987 3.17213 13.3846 2.97408C13.7654 2.78111 14.1666 2.71509 14.969 2.72017C15.9287 2.72525 16.7311 2.87252 17.8381 3.26353C18.2291 3.40064 18.3358 3.46666 18.6354 3.74595C19.4276 4.49244 19.9506 5.69088 19.9658 6.77759C19.9709 7.14322 19.9557 7.22447 19.8033 7.52916C19.4885 8.169 18.7725 8.78853 17.9904 9.10845C17.1983 9.43345 17.0002 9.54009 16.7717 9.78384C16.4416 10.1241 16.2436 10.5557 16.2029 10.9975C16.1471 11.6831 16.335 11.9928 16.9799 12.2569C17.8483 12.6225 18.1834 12.846 18.3561 13.171C18.4069 13.2674 18.4373 13.4858 18.4475 13.7549C18.4526 14.0038 18.4881 14.2678 18.5338 14.3694C18.7319 14.8366 19.5139 15.2327 20.2451 15.2327C20.4737 15.2327 20.6412 15.2631 20.7936 15.3393C21.0627 15.4713 21.3776 15.8217 21.469 16.0909C21.5705 16.3956 21.4842 16.5428 21.0424 16.8272C20.4178 17.2284 20.301 17.4061 20.301 17.9292V18.2338L20.7225 18.4268C20.951 18.5335 21.1694 18.6604 21.21 18.7061C21.3065 18.8178 21.2912 19.0463 21.1694 19.4475C20.9916 20.0366 21.0069 20.2803 21.2404 20.5901L21.4182 20.8237L21.2811 20.9506C20.9408 21.2503 20.108 21.8545 19.6662 22.1186C18.6557 22.7128 17.4928 23.1596 16.4467 23.3628L16.1217 23.4237L16.1572 23.8045C16.1725 24.0128 16.1877 24.3479 16.1877 24.551V24.9167L16.7615 24.7999C19.844 24.1651 22.5151 22.3573 24.2975 19.7014C25.7549 17.5229 26.476 14.735 26.2475 12.1198C26.0444 9.85494 25.2572 7.7983 23.8709 5.92447C23.3885 5.27955 22.2104 4.09127 21.5705 3.61392C19.8897 2.3647 18.0412 1.58775 16.0354 1.29322C15.4768 1.21197 13.9229 1.15103 13.5471 1.19674Z" fill="#F2F2F2"/>
<path d="M3.599 15.4883C3.26384 15.5391 2.52244 15.8996 2.38025 16.0824C2.24314 16.25 2.23806 16.5496 2.37009 16.6867C2.42088 16.7426 3.29939 17.3317 4.32517 17.9969C5.34588 18.6621 6.18377 19.2207 6.18377 19.236C6.18377 19.2563 5.96033 19.3832 5.69119 19.5254C5.42205 19.6625 4.86853 19.9672 4.46228 20.1957L3.72088 20.6121L3.41619 20.4445C2.30408 19.8301 1.6033 19.4949 1.37478 19.4645C0.800953 19.3985 0.252516 19.7235 0.308375 20.0942C0.323609 20.1856 0.577516 20.6883 0.872047 21.2113L1.40525 22.166L1.21228 22.3692C0.800953 22.8008 0.724781 23.0141 0.877125 23.3035C1.03963 23.6235 1.79119 23.8113 2.51736 23.7098C3.11658 23.6285 5.09705 23.1918 6.53924 22.8211C10.4494 21.8156 13.4252 20.8 15.6545 19.6981C17.706 18.6875 18.6303 17.743 18.417 16.8746C18.3306 16.5445 18.0615 16.2906 17.6502 16.1535L17.3252 16.0469L15.8881 16.707C15.0959 17.0727 14.4357 17.3621 14.4256 17.3469C14.4154 17.3367 14.4205 17.1945 14.4459 17.032L14.4865 16.7375L15.2939 16.3719C15.7357 16.1688 16.147 15.9809 16.208 15.9504C16.2892 15.9098 16.1115 15.8996 15.5021 15.9149C14.8369 15.9301 14.5881 15.9555 14.1361 16.0672C13.3795 16.25 12.5619 16.509 11.5818 16.8695L10.7642 17.1692L7.57009 16.3313C5.81814 15.8692 4.26931 15.4832 4.12713 15.468C3.99002 15.4578 3.75134 15.4629 3.599 15.4883Z" fill="#F2F2F2"/>
<path d="M12.6534 21.5719C11.7292 21.8969 10.937 22.1965 10.8862 22.2371C10.8405 22.2726 10.8049 22.3539 10.8049 22.4148C10.8049 22.5113 11.6834 23.5523 12.9174 24.9183C13.3897 25.4363 13.4659 25.4617 13.9534 25.2332C14.4663 24.9996 14.7506 24.6594 14.8674 24.1515C14.9081 23.9637 14.8877 23.664 14.7659 22.6281C14.6846 21.9172 14.6135 21.3027 14.6135 21.257C14.6135 21.1707 14.4409 20.9726 14.3749 20.9777C14.3495 20.9777 13.5776 21.2469 12.6534 21.5719Z" fill="#F2F2F2"/>
</g>
<path d="M34.6364 24.128V10.9974H30.2451V8.12032H42.2509V10.9974H37.8379V24.128H34.6364Z" fill="#DDDEE1"/>
<path d="M43.4057 24.128V12.5116H45.8717C47.458 12.5116 50.935 12.4567 50.8471 12.4684C50.7591 12.48 50.8471 15.7564 50.8471 15.7564C48.8819 15.4944 46.6072 13.6475 46.6072 16.9029V24.128H43.4057Z" fill="#DDDEE1"/>
<path d="M54.5963 24.2578C53.7166 24.2578 53.0028 23.9982 52.4548 23.479C51.9067 22.9599 51.6327 22.2388 51.6327 21.3158V20.2775C51.6327 19.3978 51.9428 18.6767 52.5629 18.1143C53.183 17.5374 54.1493 17.249 55.4616 17.249H58.4252V16.4486C58.4252 16.0881 58.3603 15.7925 58.2305 15.5617C58.1007 15.3166 57.8555 15.1435 57.495 15.0426C57.1489 14.9272 56.6153 14.8695 55.8942 14.8695H52.4115V13.0092C52.9739 12.8361 53.6229 12.6847 54.3584 12.5549C55.1083 12.4251 56.0096 12.3602 57.0624 12.3602C58.0286 12.3602 58.8506 12.4756 59.5284 12.7063C60.2206 12.937 60.7398 13.3336 61.0859 13.8961C61.4465 14.4585 61.6267 15.2372 61.6267 16.2323V24.128H59.0958L58.5766 22.895C58.4757 23.0103 58.3026 23.1401 58.0574 23.2844C57.8123 23.4286 57.5094 23.58 57.1489 23.7386C56.8028 23.8828 56.4062 24.0054 55.9591 24.1064C55.5265 24.2073 55.0722 24.2578 54.5963 24.2578ZM56.2187 22.0297C56.3629 22.0297 56.5216 22.0153 56.6946 21.9864C56.8821 21.9432 57.0696 21.8999 57.2571 21.8566C57.459 21.799 57.6392 21.7485 57.7979 21.7052C57.9709 21.6475 58.1079 21.5971 58.2089 21.5538C58.3242 21.5105 58.3963 21.4817 58.4252 21.4673V18.7633L56.4783 18.8931C55.9159 18.9363 55.4977 19.0805 55.2237 19.3257C54.9641 19.5709 54.8343 19.9025 54.8343 20.3208V20.7967C54.8343 21.0851 54.892 21.323 55.0073 21.5105C55.1371 21.698 55.303 21.835 55.5049 21.9215C55.7212 21.9936 55.9591 22.0297 56.2187 22.0297Z" fill="#DDDEE1"/>
<path d="M66.944 24.128L63.0502 12.5116H66.3599L68.8692 21.1644L71.4434 12.5116H74.7099L70.643 24.128H66.944Z" fill="#DDDEE1"/>
<path d="M80.7002 24.2362C79.4167 24.2362 78.3928 24.0703 77.6285 23.7386C76.8642 23.3925 76.3089 22.7868 75.9628 21.9215C75.6311 21.0563 75.4653 19.8593 75.4653 18.3306C75.4653 16.7587 75.6239 15.5401 75.9412 14.6748C76.2585 13.8095 76.7921 13.2038 77.542 12.8577C78.2919 12.5116 79.3086 12.3386 80.5921 12.3386C81.7458 12.3386 82.6687 12.4539 83.361 12.6847C84.0532 12.9154 84.5507 13.3192 84.8536 13.8961C85.1708 14.4729 85.3295 15.2877 85.3295 16.3405C85.3295 17.1192 85.1708 17.7393 84.8536 18.2008C84.5507 18.6479 84.1181 18.9724 83.5557 19.1743C82.9932 19.3617 82.3298 19.4555 81.5655 19.4555H78.6452C78.674 20.0468 78.7606 20.5227 78.9048 20.8832C79.0634 21.2293 79.3446 21.4817 79.7484 21.6403C80.1666 21.7845 80.7651 21.8566 81.5439 21.8566H84.9401V23.7386C84.3777 23.854 83.7576 23.9694 83.0798 24.0847C82.4164 24.1857 81.6232 24.2362 80.7002 24.2362ZM78.6019 17.5519H81.241C81.6737 17.5519 81.9909 17.4653 82.1928 17.2923C82.3947 17.1192 82.4957 16.8092 82.4957 16.3621C82.4957 15.9439 82.4308 15.6122 82.301 15.367C82.1712 15.1075 81.9693 14.9272 81.6953 14.8262C81.4213 14.7109 81.0536 14.6532 80.5921 14.6532C80.1018 14.6532 79.7124 14.7397 79.4239 14.9128C79.1355 15.0714 78.9264 15.3598 78.7966 15.778C78.6668 16.1963 78.6019 16.7875 78.6019 17.5519Z" fill="#DDDEE1"/>
<path d="M91.0643 24.1713C90.2423 24.1713 89.5573 24.0415 89.0093 23.7819C88.4757 23.5079 88.0791 23.0969 87.8195 22.5489C87.5599 21.9864 87.4302 21.2654 87.4302 20.3857V7.62278H90.6317V19.9098C90.6317 20.3424 90.675 20.6885 90.7615 20.9481C90.848 21.1933 90.9778 21.3735 91.1509 21.4889C91.3383 21.6043 91.5691 21.6836 91.8431 21.7268L92.73 21.8566V24.1713H91.0643Z" fill="#DDDEE1"/>
<path d="M99.7491 24.2578C98.8117 24.2578 97.9825 24.1496 97.2614 23.9333C96.5547 23.717 95.949 23.3204 95.4443 22.7436C94.954 22.1667 94.579 21.3447 94.3194 20.2775C94.0743 19.1959 93.9517 17.797 93.9517 16.0809C93.9517 14.4224 94.0815 13.0668 94.3411 12.0141C94.6151 10.9469 95.0045 10.1249 95.5092 9.54803C96.0139 8.95676 96.6269 8.54575 97.3479 8.31501C98.069 8.08426 98.8838 7.96889 99.7923 7.96889C100.513 7.96889 101.184 8.01216 101.804 8.09869C102.439 8.17079 103.008 8.26453 103.513 8.3799C104.018 8.48085 104.443 8.59622 104.789 8.72601V11.2137C104.53 11.156 104.176 11.0983 103.729 11.0406C103.297 10.983 102.799 10.9397 102.237 10.9108C101.674 10.8676 101.083 10.846 100.463 10.846C99.8572 10.846 99.3381 10.9181 98.9054 11.0623C98.4872 11.1921 98.1483 11.4444 97.8887 11.8194C97.6436 12.1799 97.4561 12.7063 97.3263 13.3985C97.2109 14.0908 97.1532 14.9921 97.1532 16.1025C97.1532 17.1697 97.2037 18.0494 97.3047 18.7416C97.42 19.4339 97.6003 19.9747 97.8455 20.364C98.0906 20.739 98.4223 21.0058 98.8405 21.1644C99.2732 21.3086 99.814 21.3807 100.463 21.3807C101.559 21.3807 102.446 21.3591 103.124 21.3158C103.816 21.2726 104.371 21.2221 104.789 21.1644V23.6305C104.4 23.7603 103.953 23.8756 103.448 23.9766C102.943 24.0631 102.388 24.128 101.782 24.1713C101.177 24.2289 100.499 24.2578 99.7491 24.2578Z" fill="#DDDEE1"/>
<path d="M106.134 24.128V12.5116H108.6L109.335 14.2854C109.753 13.7518 110.222 13.2976 110.741 12.9226C111.275 12.5477 111.902 12.3602 112.623 12.3602C112.782 12.3602 112.941 12.3674 113.099 12.3818C113.272 12.3962 113.431 12.4251 113.575 12.4684V15.7564C113.359 15.7276 113.128 15.7059 112.883 15.6915C112.652 15.6627 112.429 15.6483 112.212 15.6483C111.794 15.6483 111.412 15.6987 111.066 15.7997C110.734 15.8862 110.424 16.0232 110.136 16.2107C109.862 16.3837 109.595 16.6145 109.335 16.9029V24.128H106.134Z" fill="#DDDEE1"/>
<path d="M117.371 24.2578C116.491 24.2578 115.777 23.9982 115.229 23.479C114.681 22.9599 114.407 22.2388 114.407 21.3158V20.2775C114.407 19.3978 114.717 18.6767 115.337 18.1143C115.957 17.5374 116.924 17.249 118.236 17.249H121.2V16.4486C121.2 16.0881 121.135 15.7925 121.005 15.5617C120.875 15.3166 120.63 15.1435 120.269 15.0426C119.923 14.9272 119.39 14.8695 118.669 14.8695H115.186V13.0092C115.748 12.8361 116.397 12.6847 117.133 12.5549C117.883 12.4251 118.784 12.3602 119.837 12.3602C120.803 12.3602 121.625 12.4756 122.303 12.7063C122.995 12.937 123.514 13.3336 123.86 13.8961C124.221 14.4585 124.401 15.2372 124.401 16.2323V24.128H121.87L121.351 22.895C121.25 23.0103 121.077 23.1401 120.832 23.2844C120.587 23.4286 120.284 23.58 119.923 23.7386C119.577 23.8828 119.181 24.0054 118.734 24.1064C118.301 24.2073 117.847 24.2578 117.371 24.2578ZM118.993 22.0297C119.137 22.0297 119.296 22.0153 119.469 21.9864C119.656 21.9432 119.844 21.8999 120.031 21.8566C120.233 21.799 120.414 21.7485 120.572 21.7052C120.745 21.6475 120.882 21.5971 120.983 21.5538C121.099 21.5105 121.171 21.4817 121.2 21.4673V18.7633L119.253 18.8931C118.69 18.9363 118.272 19.0805 117.998 19.3257C117.738 19.5709 117.609 19.9025 117.609 20.3208V20.7967C117.609 21.0851 117.666 21.323 117.782 21.5105C117.912 21.698 118.077 21.835 118.279 21.9215C118.496 21.9936 118.734 22.0297 118.993 22.0297Z" fill="#DDDEE1"/>
<path d="M127.283 24.123V15.0808H125.639V13.0258L127.283 12.5066V11.7279C127.283 10.7472 127.413 9.94684 127.673 9.32673C127.947 8.69219 128.365 8.23071 128.927 7.94228C129.49 7.63943 130.232 7.48801 131.155 7.48801C131.66 7.48801 132.114 7.52406 132.518 7.59617C132.936 7.66827 133.282 7.74038 133.556 7.81249V10.1055H131.783C131.451 10.1055 131.191 10.156 131.004 10.2569C130.816 10.3579 130.687 10.5165 130.614 10.7328C130.542 10.9347 130.506 11.2087 130.506 11.5548V12.5066H135.958V15.0808H130.506V24.123H127.283Z" fill="#DDDEE1"/>
<path d="M139.657 24.128C138.763 24.128 138.034 23.9982 137.472 23.7386C136.924 23.479 136.527 23.0464 136.282 22.4407C136.037 21.835 135.929 21.0202 135.958 19.9963V9.26681H139.137V12.5116H141.863V15.0858H139.137V19.9747C139.137 20.2919 139.166 20.5515 139.224 20.7534C139.282 20.9553 139.361 21.1212 139.462 21.2509C139.577 21.3663 139.707 21.4528 139.851 21.5105C139.996 21.5682 140.14 21.6043 140.284 21.6187L141.755 21.7485V24.128H139.657Z" fill="#DDDEE1"/>
<defs>
<clipPath id="clip0_222_245">
<rect width="26" height="26" fill="white" transform="translate(0.293213)"/>
</clipPath>
</defs>
</svg>
