<svg width="56" height="56" viewBox="0 0 56 56" fill="none" xmlns="http://www.w3.org/2000/svg">
<path d="M28.5469 2.5776C28.3391 2.59948 27.6938 2.67604 27.125 2.74166C21.4703 3.38697 15.5422 6.37291 11.6266 10.5401C8.09377 14.3026 5.84064 18.8088 4.91095 23.9495C4.6047 25.612 4.50627 29.1338 4.70314 30.9713C4.84533 32.2182 4.85627 32.2729 5.07502 32.2073C6.01564 31.901 6.82502 31.726 7.37189 31.726L8.00627 31.7151L7.94064 31.3651C7.78752 30.5776 7.74377 27.0338 7.86408 25.9292C8.12658 23.5557 8.73908 21.2479 9.71252 19.0495C10.2375 17.8573 10.3906 17.7807 10.3906 18.7213C10.3906 19.9901 11.0469 22.2432 11.8672 23.8292C13.2563 26.4979 14.6781 27.6026 18.1563 28.7073C20.9453 29.5932 21.6453 29.976 22.0281 30.7745C22.2578 31.2667 22.2797 32.2401 22.061 32.6667C21.8641 33.0385 21.1203 33.7495 20.4641 34.176C20.2235 34.3401 20.0156 34.5042 20.0156 34.5479C20.0156 34.5807 20.5297 34.7557 21.1641 34.9198L22.3125 35.2151L24.9047 34.351C26.3375 33.8698 27.9891 33.3667 28.5797 33.2245C29.1594 33.0932 29.6406 32.9401 29.6406 32.9073C29.6406 32.8635 29.1594 32.6229 28.5797 32.3713C25.8781 31.212 25.386 30.9057 24.8938 30.0307C24.4672 29.3088 24.3031 28.6526 24.0735 26.9135C23.7235 24.2448 23.461 24.0151 21.5141 24.5401C20.9453 24.6932 20.2672 24.8245 20.0047 24.8245C19.5891 24.8245 19.4797 24.7698 19.0313 24.2885C18.386 23.6213 18.1781 22.9323 18.375 22.101C18.5938 21.2042 19.3813 20.2417 20.3438 19.7276C20.836 19.4651 22.0172 19.4651 22.8703 19.7167C23.7235 19.9682 24.9485 20.8104 25.9219 21.8167C27.5735 23.512 28.1203 23.6542 29.1922 22.6917C29.9141 22.0354 30.5047 20.8213 30.6797 19.6292C30.7781 19.0167 30.5813 18.6885 29.936 18.3604C29.3125 18.0542 29.0938 17.7588 29.0938 17.212C29.0938 16.4463 29.6735 15.8557 31.9047 14.3354C33.6 13.187 33.9938 12.5526 33.4906 11.787C33.1953 11.3385 32.8781 11.1307 31.0625 10.2229C28.7875 9.08541 28.1531 8.69166 27.7703 8.16666C27.2235 7.41197 27.3656 6.83229 28.1969 6.40572C29.0172 5.9901 29.8813 5.84791 31.6094 5.85885C33.6766 5.86979 35.4047 6.18697 37.7891 7.02916C38.6313 7.32447 38.861 7.46666 39.5063 8.06822C41.2125 9.67604 42.3391 12.2573 42.3719 14.5979C42.3828 15.3854 42.35 15.5604 42.0219 16.2167C41.3438 17.5948 39.8016 18.9292 38.1172 19.6182C36.411 20.3182 35.9844 20.5479 35.4922 21.0729C34.7813 21.8057 34.3547 22.7354 34.2672 23.687C34.1469 25.1635 34.5516 25.8307 35.9406 26.3995C37.811 27.187 38.5328 27.6682 38.9047 28.3682C39.0141 28.576 39.0797 29.0463 39.1016 29.626C39.1125 30.162 39.1891 30.7307 39.2875 30.9495C39.7141 31.9557 41.3985 32.8088 42.9735 32.8088C43.4656 32.8088 43.8266 32.8745 44.1547 33.0385C44.7344 33.3229 45.4125 34.0776 45.6094 34.6573C45.8281 35.3135 45.6422 35.6307 44.6906 36.2432C43.3453 37.1073 43.0938 37.4901 43.0938 38.6167V39.2729L44.0016 39.6885C44.4938 39.9182 44.9641 40.1917 45.0516 40.2901C45.2594 40.5307 45.2266 41.0229 44.9641 41.887C44.5813 43.1557 44.6141 43.6807 45.1172 44.3479L45.5 44.851L45.2047 45.1245C44.4719 45.7698 42.6781 47.0713 41.7266 47.6401C39.55 48.9198 37.0453 49.8823 34.7922 50.3198L34.0922 50.451L34.1688 51.2713C34.2016 51.7198 34.2344 52.4417 34.2344 52.8792V53.6667L35.4703 53.4151C42.1094 52.0479 47.8625 48.1542 51.7016 42.4338C54.8406 37.7417 56.3938 31.737 55.9016 26.1042C55.4641 21.226 53.7688 16.7963 50.7828 12.7604C49.7438 11.3713 47.2063 8.81197 45.8281 7.78385C42.2078 5.09322 38.2266 3.41979 33.9063 2.78541C32.7031 2.61041 29.3563 2.47916 28.5469 2.5776Z" fill="white"/>
<path d="M7.12026 33.3594C6.39839 33.4688 4.80151 34.2454 4.49526 34.6391C4.19995 35 4.18901 35.6454 4.47339 35.9407C4.58276 36.061 6.47495 37.3297 8.68432 38.7625C10.8828 40.1954 12.6874 41.3985 12.6874 41.4313C12.6874 41.475 12.2062 41.7485 11.6265 42.0547C11.0468 42.35 9.85464 43.0063 8.97964 43.4985L7.38276 44.3954L6.72651 44.0344C4.3312 42.711 2.82182 41.9891 2.32964 41.9235C1.0937 41.7813 -0.0875521 42.4813 0.0327604 43.2797C0.0655729 43.4766 0.612448 44.5594 1.24682 45.686L2.39526 47.7422L1.97964 48.1797C1.0937 49.1094 0.929635 49.5688 1.25776 50.1922C1.60776 50.8813 3.22651 51.286 4.79057 51.0672C6.0812 50.8922 10.3468 49.9516 13.4531 49.1532C21.8749 46.9875 28.2843 44.8 33.0859 42.4266C37.5046 40.25 39.4953 38.2157 39.0359 36.3454C38.8499 35.6344 38.2703 35.0875 37.3843 34.7922L36.6843 34.5625L33.589 35.9844C31.8828 36.7719 30.4609 37.3954 30.439 37.3625C30.4171 37.3407 30.4281 37.0344 30.4828 36.6844L30.5703 36.05L32.3093 35.2625C33.2609 34.825 34.1468 34.4204 34.2781 34.3547C34.4531 34.2672 34.0703 34.2454 32.7578 34.2782C31.3249 34.311 30.789 34.3657 29.8156 34.6063C28.1859 35 26.4249 35.5579 24.314 36.3344L22.5531 36.9797L15.6734 35.175C11.8999 34.1797 8.56401 33.3485 8.25776 33.3157C7.96245 33.2938 7.44839 33.3047 7.12026 33.3594Z" fill="white"/>
<path d="M26.6219 46.4625C24.6313 47.1625 22.925 47.8078 22.8156 47.8953C22.7172 47.9719 22.6406 48.1469 22.6406 48.2781C22.6406 48.4859 24.5328 50.7281 27.1906 53.6703C28.2078 54.7859 28.3719 54.8406 29.4219 54.3484C30.5266 53.8453 31.1391 53.1125 31.3906 52.0187C31.4781 51.614 31.4344 50.9687 31.1719 48.7375C30.9969 47.2062 30.8438 45.8828 30.8438 45.7844C30.8438 45.5984 30.4719 45.1719 30.3297 45.1828C30.275 45.1828 28.6125 45.7625 26.6219 46.4625Z" fill="white"/>
</svg>
