<svg width="321" height="321" viewBox="0 0 321 321" fill="none" xmlns="http://www.w3.org/2000/svg">
<path d="M124.548 146.78L123.264 158.619L121.98 170.457C121.693 173.431 121.565 176.417 121.598 179.404C121.637 184.54 122.147 191.021 124.012 196.362C124.237 197.004 124.465 197.646 124.686 198.288C124.908 198.93 125.132 199.572 125.328 200.214L129.848 214.072L134.367 227.932L154.504 223.387L174.637 218.842L168.194 199.768L161.784 180.701C161.294 179.239 161.157 177.683 161.386 176.158L163.989 158.991L166.599 141.824C166.608 141.751 166.644 141.684 166.7 141.637C166.756 141.589 166.827 141.564 166.901 141.567C166.974 141.566 167.046 141.593 167.101 141.641C167.156 141.69 167.191 141.757 167.199 141.831L170.711 168.233L174.22 194.632C175.383 203.322 177.679 211.823 181.05 219.917C182.737 223.972 184.464 228.056 186.231 232.166C187.999 236.277 189.808 240.415 191.659 244.58C193.675 249.089 195.701 253.547 197.736 257.956C199.771 262.364 201.804 266.706 203.835 270.982L223.737 265.637L243.639 260.289L232.789 234.629L221.959 208.971C221.274 207.368 220.841 205.669 220.675 203.935L216.402 157.932L212.11 111.926L170.48 111.47L128.853 111.015L126.705 128.898L124.548 146.78Z" fill="#14AF6C" stroke="black" stroke-width="2.52756" stroke-miterlimit="10" stroke-linecap="round"/>
<path d="M262.963 293.754L214.813 303.499L166.663 313.245C167.858 315.447 169.727 317.208 171.997 318.269C174.266 319.33 176.816 319.636 179.272 319.141L197.219 315.543L215.163 311.929C216.266 311.704 217.343 311.361 218.373 310.908C219.407 310.455 220.388 309.891 221.301 309.226L222.129 308.622L222.954 308.022C223.06 307.943 223.184 307.891 223.314 307.87C223.445 307.849 223.579 307.859 223.704 307.9C223.83 307.942 223.944 308.012 224.037 308.107C224.13 308.201 224.199 308.316 224.238 308.442C224.369 308.871 224.655 309.234 225.041 309.463C225.426 309.692 225.882 309.768 226.321 309.678L234.606 308.009L242.891 306.34C243.279 306.261 243.633 306.065 243.905 305.778C244.177 305.49 244.355 305.126 244.413 304.735L244.474 304.363L244.531 303.99C244.545 303.9 244.584 303.816 244.644 303.747C244.703 303.678 244.781 303.628 244.868 303.602C244.955 303.575 245.047 303.574 245.134 303.599C245.221 303.623 245.3 303.672 245.36 303.74L245.79 304.356L246.22 304.972C246.344 305.15 246.517 305.288 246.717 305.371C246.921 305.453 247.144 305.473 247.359 305.428L249.07 305.085L250.781 304.738C251.005 304.694 251.209 304.582 251.367 304.418C251.525 304.254 251.629 304.045 251.664 303.82L251.773 303.12L251.882 302.424C251.896 302.334 251.935 302.25 251.995 302.181C252.054 302.112 252.132 302.062 252.219 302.035C252.306 302.009 252.398 302.008 252.485 302.032C252.572 302.057 252.65 302.106 252.71 302.173L252.983 302.562L253.256 302.953C253.49 303.289 253.816 303.549 254.195 303.701C254.575 303.853 254.99 303.891 255.391 303.81L256.582 303.57L257.776 303.329C258.794 303.123 259.754 302.696 260.589 302.079C261.424 301.462 262.113 300.669 262.608 299.756C263.104 298.843 263.393 297.833 263.455 296.796C263.517 295.76 263.352 294.722 262.97 293.757L262.963 293.754Z" fill="#EF3F3F" stroke="black" stroke-width="2.52756" stroke-miterlimit="10" stroke-linecap="round"/>
<path d="M226.584 108.466C228.316 100.426 229.615 92.2998 230.478 84.1212C231.871 70.7291 232.166 54.9102 227.778 45.1422C227.204 43.8894 226.533 42.6831 225.772 41.5342C224.586 39.7441 223.209 38.0877 221.667 36.594C220.755 35.7048 218.543 33.6761 214.142 31.6955C209.741 29.715 203.148 27.7825 193.47 27.0956C188.857 26.7746 183.58 27.1919 176.489 28.2801C169.398 29.3683 160.5 31.137 148.623 33.461C144.678 34.2378 141.301 34.9473 138.123 35.9648C134.847 36.9927 131.721 38.4522 128.83 40.3047C123.281 43.848 118.628 48.6299 115.239 54.2747C113.274 57.5491 111.762 61.0747 110.745 64.7553C108.618 72.4593 106.492 80.1719 104.367 87.893C102.242 95.6141 100.115 103.327 97.9852 111.031C98.502 111.525 101.176 114.09 104.617 117.13C108.058 120.17 112.289 123.726 115.881 126.153C116.9 126.876 117.992 127.49 119.139 127.986C120.487 128.559 121.954 128.801 123.415 128.689C124.098 128.63 124.773 128.497 125.428 128.291C125.951 128.127 126.46 127.92 126.949 127.671L125.755 137.221L124.548 146.78L137.985 146.967L151.422 147.153C151.85 141.131 152.272 135.108 152.687 129.084C153.102 123.06 153.524 117.037 153.952 111.015C156.372 111.056 161.068 111.21 165.764 111.361C170.461 111.512 175.154 111.666 177.574 111.708C178.216 117.683 178.869 123.657 179.532 129.629C180.195 135.602 180.848 141.577 181.49 147.554L206.528 144.505L231.566 141.455L229.072 124.962L226.584 108.466Z" fill="#5F9DFA" stroke="black" stroke-width="2.52756" stroke-miterlimit="10" stroke-linecap="round"/>
<path d="M193.939 127.758L221.426 137.805L230.735 141.211C230.805 141.224 230.876 141.232 230.947 141.234C231.066 141.244 231.186 141.219 231.29 141.16C231.332 141.124 231.367 141.08 231.39 141.03C231.414 140.98 231.427 140.926 231.428 140.871C231.436 140.782 231.436 140.693 231.428 140.604C231.386 140.174 230.353 133.327 229.252 126.076C228.151 118.825 226.982 111.166 226.668 109.105C226.415 110.22 226.1 111.321 225.724 112.401C225.242 113.779 224.66 115.119 223.981 116.411C223.406 117.536 222.762 118.625 222.055 119.672C221.093 121.089 219.971 122.39 218.71 123.55C217.082 125.048 215.244 126.301 213.253 127.267C210.711 128.506 207.964 129.274 205.148 129.533C203.354 129.697 201.548 129.652 199.765 129.398C198.644 129.238 197.537 128.994 196.452 128.67C195.598 128.413 194.759 128.109 193.939 127.758Z" fill="black" stroke="black" stroke-width="2.52756" stroke-miterlimit="10" stroke-linecap="round"/>
<path d="M129.058 105.365L141.683 105.153L154.308 104.941L153.855 111.974C153.703 114.318 153.554 116.662 153.406 119.008L141.24 112.186L129.058 105.365Z" fill="black" stroke="black" stroke-width="2.52756" stroke-miterlimit="10" stroke-linecap="round"/>
<path d="M211.687 277.604H153.233H94.7784V274.295V270.982H153.233H211.687V274.295V277.604Z" fill="#D1B7E5" stroke="black" stroke-width="2.52756" stroke-miterlimit="10" stroke-linecap="round"/>
<path d="M97.9788 273.437C97.9828 277.119 96.7096 280.689 94.3764 283.537C92.0432 286.386 88.7944 288.337 85.1837 289.058C81.573 289.779 77.824 289.226 74.5755 287.492C71.3271 285.759 68.7804 282.953 67.3695 279.552C65.9586 276.151 65.7708 272.366 66.8381 268.842C67.9055 265.318 70.1619 262.273 73.2228 260.227C76.2837 258.18 79.9596 257.258 83.6239 257.619C87.2883 257.979 90.7142 259.599 93.3179 262.202C94.7959 263.676 95.9684 265.427 96.7682 267.355C97.568 269.283 97.9794 271.35 97.9788 273.437Z" fill="black" stroke="black" stroke-width="2.52756" stroke-miterlimit="10" stroke-linecap="round"/>
<path d="M164.769 47.5915L160.68 39.483L156.587 31.3938C158.066 30.4907 159.642 29.7584 161.286 29.211C164.941 27.9106 168.858 27.5206 172.698 28.0747L169.167 37.8074L165.617 47.5433C165.585 47.6265 165.531 47.6987 165.459 47.7514C165.387 47.804 165.302 47.8347 165.213 47.8398C165.125 47.8449 165.036 47.8242 164.959 47.7801C164.882 47.736 164.82 47.6705 164.779 47.5915H164.769Z" fill="#FFF8F8" stroke="black" stroke-width="2.52756" stroke-miterlimit="10" stroke-linecap="round"/>
<path d="M154.212 111.217L165.768 111.567L177.324 111.917C177.361 111.918 177.399 111.911 177.434 111.895C177.468 111.88 177.499 111.856 177.523 111.827C177.547 111.798 177.565 111.764 177.575 111.727C177.585 111.691 177.587 111.652 177.58 111.615L171.366 79.0751L165.151 46.545C165.141 46.4864 165.11 46.4333 165.064 46.3956C165.018 46.3578 164.96 46.3379 164.901 46.3396C164.841 46.3396 164.784 46.361 164.738 46.3998C164.693 46.4387 164.663 46.4924 164.654 46.5514L159.312 78.7317L153.968 110.922C153.962 110.957 153.963 110.994 153.973 111.029C153.982 111.064 153.999 111.096 154.022 111.124C154.045 111.152 154.074 111.175 154.107 111.191C154.14 111.207 154.175 111.216 154.212 111.217Z" fill="#FFF8F8" stroke="black" stroke-width="2.52756" stroke-miterlimit="10" stroke-linecap="round"/>
<path d="M133.854 67.1853L130.4 97.4363L126.949 127.684" stroke="black" stroke-width="2.52756" stroke-miterlimit="10" stroke-linecap="round"/>
<path d="M149.223 33.1561L148.623 45.0652L148.026 56.9743L156.584 52.2652L165.138 47.5562L160.468 38.4879L155.791 29.4165L152.507 31.2879L149.223 33.1561Z" fill="#5F9DFA" stroke="black" stroke-width="2.52756" stroke-miterlimit="10" stroke-linecap="round"/>
<path d="M165.142 47.5562C166.055 44.2627 166.969 40.9714 167.883 37.6822L170.628 27.8082H179.169L182.328 40.706L185.455 53.607L175.298 50.5832L165.142 47.5562Z" fill="#5F9DFA" stroke="black" stroke-width="2.52756" stroke-miterlimit="10" stroke-linecap="round"/>
<path d="M226.584 108.466C226.308 109.671 226.006 110.812 225.679 111.891C225.352 112.97 224.999 113.99 224.62 114.953C223.496 117.841 221.799 120.472 219.631 122.687C217.462 124.901 214.868 126.654 212.004 127.838C209.141 129.034 206.067 129.644 202.964 129.631C199.861 129.617 196.792 128.982 193.939 127.761C191.46 126.706 188.907 125.529 186.28 124.23C183.652 122.931 180.977 121.511 178.255 119.971C175.41 118.366 172.73 116.706 170.21 115.059C167.69 113.412 165.334 111.769 163.148 110.148C165.489 108.053 167.596 105.711 169.433 103.163C173.513 97.5458 176.063 90.9656 176.836 84.0667C177.042 82.2146 177.124 80.3507 177.08 78.4877L184.845 82.3236L192.6 86.1692L194.205 77.2647C194.734 74.2965 195.269 71.3273 195.81 68.3569" fill="#5F9DFA"/>
<path d="M226.584 108.466C226.308 109.671 226.006 110.812 225.679 111.891C225.352 112.97 224.999 113.99 224.62 114.953C223.496 117.841 221.799 120.472 219.631 122.687C217.462 124.901 214.868 126.654 212.004 127.838C209.141 129.034 206.067 129.644 202.964 129.631C199.861 129.617 196.792 128.982 193.939 127.761C191.46 126.706 188.907 125.529 186.28 124.23C183.652 122.931 180.977 121.511 178.255 119.971C175.41 118.366 172.73 116.706 170.21 115.059C167.69 113.412 165.334 111.769 163.148 110.148C165.489 108.053 167.596 105.711 169.433 103.163C173.513 97.5458 176.063 90.9656 176.836 84.0667C177.042 82.2146 177.124 80.3507 177.08 78.4877L184.845 82.3236L192.6 86.1692L194.205 77.2647C194.734 74.2965 195.269 71.3273 195.81 68.3569" stroke="black" stroke-width="2.52756" stroke-miterlimit="10" stroke-linecap="round"/>
<path d="M177.057 78.5006L170.091 75.0016L163.126 71.5028C162.529 71.2652 161.787 70.9892 160.917 70.7099C160.047 70.4306 159.046 70.1481 157.932 69.8978C157.45 69.7918 157.017 69.7052 156.629 69.6377C156.24 69.5703 155.9 69.5093 155.602 69.4644C151.897 68.8962 148.642 68.3955 145.535 68.2671C142.438 68.092 139.333 68.4392 136.351 69.2943C135.805 69.4548 135.26 69.6153 134.679 69.8207C134.031 70.0513 133.399 70.3215 132.785 70.6296C129.193 72.4369 126.878 75.5185 124.94 80.327C123.001 85.1356 121.444 91.668 119.364 100.377C119.234 100.888 119.159 101.412 119.139 101.94C119.08 103.002 119.41 104.05 120.067 104.887C120.395 105.302 120.805 105.646 121.271 105.898C121.981 106.269 122.787 106.416 123.582 106.318C124.023 106.273 124.455 106.165 124.866 105.997C125.468 106.81 126.277 107.447 127.209 107.84C128.055 108.201 128.996 108.277 129.889 108.055C130.42 107.911 130.915 107.659 131.344 107.314C131.643 107.077 131.911 106.804 132.143 106.501C132.372 106.882 132.657 107.225 132.99 107.519C133.639 108.118 134.467 108.486 135.346 108.567C136.225 108.648 137.107 108.436 137.853 107.965C138.237 107.733 138.584 107.444 138.881 107.108C139.19 107.708 139.645 108.221 140.203 108.601C140.743 108.968 141.374 109.18 142.026 109.214C142.879 109.242 143.714 108.969 144.386 108.443C145.099 107.89 145.612 107.119 145.846 106.248L151.191 105.773L156.565 105.288L159.858 107.728L163.139 110.161C163.139 110.161 166.618 107.317 170.101 101.937C174.646 94.9656 177.063 86.8223 177.057 78.5006Z" fill="#FFC0C0" stroke="black" stroke-width="2.52756" stroke-miterlimit="10" stroke-linecap="round"/>
<path d="M147.307 100.171C147.766 97.6033 148.27 95.0128 148.79 92.432C149.31 89.8511 149.814 87.2703 150.273 84.6894C150.321 84.1968 150.55 83.7394 150.915 83.4054C151.267 83.0859 151.724 82.9075 152.199 82.9047C152.442 82.9047 152.682 82.9599 152.9 83.0661C153.119 83.1723 153.31 83.3268 153.46 83.5178C153.774 83.9328 153.929 84.4463 153.897 84.9655C153.871 85.4727 153.73 86.7631 153.412 89.2027C153.095 91.6423 152.607 95.2247 151.881 100.329L149.583 100.245L147.307 100.171Z" fill="black" stroke="black" stroke-width="2.52756" stroke-miterlimit="10" stroke-linecap="round"/>
<path d="M124.853 106.001L127.395 96.1684L129.934 86.3362" stroke="black" stroke-width="2.52756" stroke-miterlimit="10" stroke-linecap="round"/>
<path d="M132.111 106.768L134.412 97.0255L136.714 87.2799" stroke="black" stroke-width="2.52756" stroke-miterlimit="10" stroke-linecap="round"/>
<path d="M138.868 107.111L141.028 97.3978L143.188 87.6844" stroke="black" stroke-width="2.52756" stroke-miterlimit="10" stroke-linecap="round"/>
<path d="M61.6095 101.853C60.486 101.808 59.4264 101.319 58.6632 100.493C57.9001 99.6676 57.4958 98.5727 57.5392 97.4492L57.7062 93.1927L57.8731 88.9395C57.9182 87.8166 58.4069 86.7574 59.2319 85.9943C60.0569 85.2313 61.151 84.8266 62.274 84.8692C62.8304 84.8911 63.3771 85.0224 63.8828 85.2556C64.3885 85.4888 64.8433 85.8193 65.2213 86.2282C65.5992 86.6372 65.8929 87.1166 66.0856 87.6391C66.2783 88.1616 66.3662 88.7169 66.3443 89.2733L66.1774 93.5266L66.0104 97.783C65.9885 98.3395 65.8572 98.8861 65.624 99.3918C65.3908 99.8975 65.0603 100.352 64.6514 100.73C64.2424 101.108 63.763 101.402 63.2405 101.595C62.7181 101.787 62.1628 101.875 61.6063 101.853H61.6095Z" fill="#14AF6C" stroke="black" stroke-width="2.52756" stroke-miterlimit="10" stroke-linecap="round"/>
<path d="M91.2635 273.437C91.2641 275.565 90.5268 277.627 89.1772 279.273C87.8277 280.918 85.9495 282.044 83.8626 282.459C81.7758 282.875 79.6094 282.554 77.7327 281.551C75.856 280.548 74.3851 278.926 73.5706 276.96C72.7562 274.994 72.6485 272.807 73.2661 270.771C73.8837 268.734 75.1882 266.975 76.9574 265.793C78.7266 264.611 80.851 264.079 82.9686 264.287C85.0861 264.496 87.0659 265.432 88.5704 266.937C89.4254 267.79 90.1034 268.803 90.5656 269.919C91.0278 271.034 91.265 272.23 91.2635 273.437Z" fill="#F9851C" stroke="black" stroke-width="2.52756" stroke-miterlimit="10" stroke-linecap="round"/>
<path d="M192.587 86.1692L195.406 87.6844L198.227 89.1995" stroke="black" stroke-width="2.52756" stroke-miterlimit="10" stroke-linecap="round"/>
<path d="M253.121 269.672C251.898 267.547 250.425 264.934 248.759 261.885C247.093 258.835 245.228 255.349 243.26 251.465C242.797 250.425 242.059 249.53 241.126 248.878C240.633 248.538 240.082 248.292 239.501 248.149C238.919 248.008 238.316 247.976 237.723 248.056C236.195 248.266 234.684 248.587 233.203 249.019C232.072 249.347 230.96 249.742 229.875 250.2C228.68 250.679 227.515 251.231 226.388 251.853C225.063 252.604 223.843 253.526 222.761 254.598C221.416 255.929 220.289 257.463 219.42 259.143C219.42 259.143 218.912 256.254 217.295 254.062C215.677 251.869 212.951 250.351 208.518 253.099L203.857 256.097L199.2 259.095C198.819 259.34 198.49 259.658 198.232 260.031C197.975 260.403 197.793 260.822 197.697 261.265C197.601 261.708 197.594 262.165 197.675 262.611C197.756 263.056 197.924 263.481 198.169 263.862L200.516 267.493L202.872 271.117C203.549 272.148 203.913 273.353 203.918 274.587C203.918 276.647 202.907 279.36 198.782 281.97L191.027 286.383L183.269 290.797C181.985 291.52 180.706 292.233 179.433 292.935C178.159 293.637 176.875 294.332 175.581 295.021C173.334 296.228 169.616 298.527 167.219 301.657C164.821 304.786 163.71 308.751 166.67 313.296L214.852 303.566L263.034 293.837C261.384 287.516 258.906 281.475 256.839 277.017C254.771 272.558 253.121 269.672 253.121 269.672Z" fill="#F9851C" stroke="black" stroke-width="2.52756" stroke-miterlimit="10" stroke-linecap="round"/>
<path d="M219.42 259.137C219.469 261.308 219.319 263.478 218.97 265.621C218.392 269.152 217.105 273.325 214.28 275.733" stroke="black" stroke-width="2.52756" stroke-miterlimit="10" stroke-linecap="round"/>
<path d="M202.474 278.699L206.326 279.951L210.178 281.199" stroke="black" stroke-width="2.52756" stroke-miterlimit="10" stroke-linecap="round"/>
<path d="M194.086 284.775L197.662 286.451L201.235 288.126" stroke="black" stroke-width="2.52756" stroke-miterlimit="10" stroke-linecap="round"/>
<path d="M232.972 261.39C233.033 262.152 232.828 262.912 232.392 263.54C231.955 264.167 231.314 264.624 230.579 264.832C229.843 265.04 229.058 264.987 228.358 264.681C227.657 264.375 227.084 263.835 226.737 263.154C226.39 262.473 226.289 261.693 226.453 260.946C226.617 260.2 227.035 259.533 227.635 259.06C228.235 258.586 228.981 258.336 229.746 258.351C230.51 258.367 231.245 258.646 231.826 259.143C232.156 259.424 232.427 259.766 232.624 260.152C232.821 260.538 232.939 260.959 232.972 261.39Z" fill="#14AF6C" stroke="black" stroke-width="2.52756" stroke-miterlimit="10" stroke-linecap="round"/>
<path d="M183.699 235.001C182.736 232.754 181.577 229.98 180.283 226.758C178.99 223.535 177.561 219.85 176.049 215.76C175.913 215.33 175.734 214.915 175.513 214.521C175.175 213.928 174.741 213.394 174.229 212.942C173.78 212.546 173.262 212.236 172.701 212.027C172.14 211.816 171.544 211.714 170.945 211.725C169.404 211.751 167.866 211.89 166.345 212.142C165.183 212.337 164.033 212.597 162.901 212.923C161.659 213.26 160.438 213.671 159.245 214.155C157.84 214.743 156.519 215.516 155.319 216.454C153.829 217.62 152.53 219.01 151.467 220.575C151.467 220.575 151.3 217.654 149.952 215.282C148.604 212.91 146.077 211.083 141.352 213.279L136.377 215.712L131.398 218.139C130.989 218.338 130.623 218.616 130.321 218.957C130.02 219.298 129.789 219.696 129.641 220.127C129.494 220.557 129.433 221.013 129.463 221.467C129.492 221.922 129.611 222.366 129.812 222.774L131.716 226.658L133.623 230.539C134.177 231.641 134.4 232.879 134.265 234.105C134.03 236.153 132.698 238.728 128.304 240.846L120.07 244.281L111.846 247.751C110.498 248.318 109.144 248.876 107.785 249.423C106.426 249.971 105.067 250.506 103.705 251.028C101.32 251.963 97.3721 253.808 94.6212 256.633C91.8702 259.458 90.3166 263.268 92.7176 268.125L141.709 264.128L190.703 260.132C189.807 253.661 188.055 247.372 186.53 242.702C185.005 238.031 183.699 235.001 183.699 235.001Z" fill="#F9851C" stroke="black" stroke-width="2.52756" stroke-miterlimit="10" stroke-linecap="round"/>
<path d="M151.47 220.575C151.263 222.732 150.858 224.865 150.26 226.947C149.268 230.398 147.506 234.369 144.415 236.439" stroke="black" stroke-width="2.52756" stroke-miterlimit="10" stroke-linecap="round"/>
<path d="M132.342 238.009L136.03 239.704L139.718 241.392" fill="#14AF6C"/>
<path d="M132.342 238.009L136.03 239.704L139.718 241.392" stroke="black" stroke-width="2.52756" stroke-miterlimit="10" stroke-linecap="round"/>
<path d="M123.299 243.058L126.651 245.141L130.002 247.228" fill="#14AF6C"/>
<path d="M123.299 243.058L126.651 245.141L130.002 247.228" stroke="black" stroke-width="2.52756" stroke-miterlimit="10" stroke-linecap="round"/>
<path d="M164.673 224.408C164.641 225.17 164.347 225.898 163.839 226.468C163.331 227.038 162.641 227.413 161.887 227.532C161.133 227.65 160.361 227.503 159.703 227.116C159.045 226.729 158.542 226.126 158.279 225.41C158.015 224.694 158.008 223.908 158.259 223.187C158.51 222.467 159.003 221.855 159.654 221.457C160.305 221.058 161.074 220.898 161.83 221.003C162.586 221.108 163.282 221.472 163.8 222.032C164.095 222.351 164.324 222.725 164.474 223.133C164.624 223.541 164.691 223.974 164.673 224.408Z" fill="#14AF6C" stroke="black" stroke-width="2.52756" stroke-miterlimit="10" stroke-linecap="round"/>
<path d="M147.095 126.179C147.094 126.47 146.992 126.753 146.807 126.978C146.621 127.203 146.363 127.356 146.077 127.413C145.79 127.469 145.494 127.424 145.237 127.286C144.98 127.148 144.778 126.925 144.667 126.656C144.556 126.386 144.542 126.086 144.627 125.807C144.712 125.528 144.891 125.287 145.134 125.125C145.377 124.963 145.668 124.891 145.958 124.919C146.248 124.948 146.52 125.077 146.726 125.283C146.843 125.401 146.937 125.54 147 125.694C147.063 125.848 147.096 126.012 147.095 126.179Z" fill="black" stroke="black" stroke-width="2.52756" stroke-miterlimit="10" stroke-linecap="round"/>
<path d="M119.922 84.8082L113.884 79.4283L107.856 74.0451C107.131 73.3327 106.354 72.675 105.532 72.0774C104.465 71.3035 103.322 70.641 102.12 70.1C100.703 69.4683 99.2004 69.0497 97.661 68.8577C96.0207 68.6266 94.1044 68.5367 91.562 68.3859C88.6131 68.1973 85.6534 68.2607 82.7153 68.5753C81.4758 68.7079 80.2503 68.9485 79.0527 69.2943C78.7573 69.381 78.2277 69.535 77.5889 69.7565C76.8709 70.0018 76.1697 70.2934 75.4896 70.6297C71.8976 72.4369 69.58 75.5185 67.6443 80.3271C65.7087 85.1356 64.1454 91.668 62.0686 100.377C61.9359 100.888 61.8595 101.412 61.8406 101.94C61.8112 102.686 61.9621 103.428 62.2804 104.104C62.4146 104.382 62.5793 104.645 62.7715 104.887C63.0977 105.303 63.5064 105.647 63.9721 105.898C64.6821 106.269 65.4881 106.416 66.2833 106.318C66.7244 106.273 67.1568 106.165 67.5673 105.997C68.17 106.81 68.9791 107.446 69.9106 107.84C70.7579 108.201 71.7 108.277 72.5941 108.055C73.1247 107.91 73.6197 107.658 74.0483 107.314C74.3465 107.076 74.6149 106.803 74.8476 106.501C75.0758 106.881 75.3605 107.224 75.6918 107.519C76.3409 108.118 77.1695 108.487 78.0493 108.567C78.9291 108.648 79.8109 108.436 80.5582 107.965C80.9414 107.734 81.2868 107.445 81.5821 107.108C81.8919 107.708 82.3465 108.221 82.9047 108.601C83.4451 108.968 84.0756 109.18 84.728 109.214C85.5804 109.242 86.4156 108.969 87.0873 108.443C87.8006 107.89 88.3135 107.119 88.5479 106.248L93.915 105.77L99.2404 105.288L102.226 107.127L105.208 108.963C106.37 107.859 107.609 106.585 108.874 105.111C112.319 101.124 115.166 96.656 117.322 91.8478C118.349 89.5636 119.218 87.2116 119.922 84.8082Z" fill="#FFC0C0" stroke="black" stroke-width="2.52756" stroke-miterlimit="10" stroke-linecap="round"/>
<path d="M67.5287 106.001L70.0711 96.1684L72.6102 86.3362" stroke="black" stroke-width="2.52756" stroke-miterlimit="10" stroke-linecap="round"/>
<path d="M74.7866 106.768L77.0913 97.0255L79.3929 87.2799" stroke="black" stroke-width="2.52756" stroke-miterlimit="10" stroke-linecap="round"/>
<path d="M81.5436 107.111L83.704 97.3978L85.8643 87.6844" stroke="black" stroke-width="2.52756" stroke-miterlimit="10" stroke-linecap="round"/>
<path d="M81.7844 277.604C81.2349 277.605 80.6915 277.489 80.1902 277.264C79.689 277.039 79.2414 276.71 78.8771 276.298C78.5128 275.887 78.2401 275.403 78.0773 274.878C77.9144 274.353 77.865 273.8 77.9324 273.254L88.7051 186.122L99.4779 98.9932H107.285L96.4605 186.601L85.63 274.205C85.5139 275.144 85.058 276.008 84.3484 276.635C83.6388 277.261 82.7244 277.606 81.778 277.604H81.7844Z" fill="#D1B7E5" stroke="black" stroke-width="2.52756" stroke-miterlimit="10" stroke-linecap="round"/>
<path d="M176.444 14.0309L170.156 14.8623L163.867 15.6937C164.188 17.3706 164.728 18.9981 165.472 20.5344C166.516 22.6714 167.993 24.568 169.809 26.1037C170.794 26.9377 171.871 27.6561 173.019 28.2448C173.946 28.7198 174.912 29.1118 175.908 29.4164C176.473 28.1287 176.903 26.7863 177.192 25.4103C177.49 23.9775 177.639 22.5178 177.638 21.0544C177.636 19.8393 177.529 18.6268 177.317 17.4303C177.123 16.2745 176.831 15.1373 176.444 14.0309Z" fill="black" stroke="black" stroke-width="2.52756" stroke-miterlimit="10" stroke-linecap="round"/>
<path d="M170.91 26.964C170.531 26.6912 170.236 26.4536 170.011 26.2578C169.787 26.062 169.623 25.9047 169.514 25.7924C169.405 25.68 169.356 25.6319 169.292 25.5612L169.125 25.3751L169.289 25.404L169.485 25.4328H169.652C169.754 25.4328 169.889 25.4328 170.024 25.4328C170.771 25.4454 171.51 25.2762 172.177 24.9399C172.844 24.6036 173.419 24.1103 173.853 23.5023C174.287 22.8944 174.567 22.19 174.668 21.45C174.77 20.7099 174.69 19.9562 174.435 19.2539C174.181 18.5516 173.76 17.9216 173.208 17.4182C172.656 16.9148 171.99 16.5531 171.267 16.3642C170.544 16.1753 169.787 16.1649 169.059 16.3338C168.331 16.5028 167.656 16.846 167.09 17.334C166.252 18.0514 165.685 19.0351 165.485 20.1203C165.305 19.8186 165.122 19.4783 164.939 19.0931C164.743 18.6747 164.57 18.2461 164.419 17.8091C164.281 17.4143 164.172 17.0355 164.098 16.676C164.025 16.3164 163.944 15.9826 163.893 15.6712L153.162 17.0933L142.431 18.5121C142.383 18.9262 142.344 19.3435 142.319 19.7608C142.293 20.1781 142.277 20.605 142.277 21.0448C142.235 26.1099 144.084 31.0085 147.461 34.7836C150.671 38.3146 155.085 40.4749 159.98 40.4749C163.409 40.4685 166.751 39.3924 169.539 37.3965C172.369 35.37 174.59 32.6067 175.959 29.4068C175.336 29.2128 174.723 28.9868 174.123 28.7295C173.587 28.4984 173.125 28.2673 172.746 28.065C172.534 27.9495 172.268 27.8018 171.96 27.6156C171.652 27.4295 171.273 27.2144 170.91 26.964Z" fill="#FFC0C0" stroke="black" stroke-width="2.52756" stroke-miterlimit="10" stroke-linecap="round"/>
<path d="M165.341 26.887C165.341 27.459 165.144 28.0136 164.781 28.4562C164.419 28.8988 163.914 29.2019 163.353 29.3139C162.792 29.4259 162.209 29.3398 161.705 29.0703C161.2 28.8008 160.805 28.3647 160.586 27.8362C160.367 27.3077 160.338 26.7196 160.504 26.1722C160.67 25.6247 161.021 25.1519 161.497 24.8343C161.972 24.5166 162.544 24.3739 163.113 24.4304C163.682 24.4868 164.214 24.739 164.618 25.1439C164.848 25.3726 165.029 25.6443 165.153 25.9434C165.277 26.2425 165.341 26.5632 165.341 26.887Z" fill="#EF3F3F" stroke="black" stroke-width="2.52756" stroke-miterlimit="10" stroke-linecap="round"/>
<path d="M153.611 33.2428C153.611 33.8131 153.414 34.3659 153.052 34.8068C152.69 35.2478 152.187 35.5496 151.627 35.661C151.068 35.7723 150.487 35.6863 149.984 35.4175C149.481 35.1487 149.087 34.7138 148.869 34.1869C148.65 33.6599 148.621 33.0736 148.787 32.5278C148.952 31.982 149.302 31.5104 149.776 31.1935C150.25 30.8766 150.82 30.7339 151.387 30.7897C151.955 30.8456 152.486 31.0965 152.889 31.4997C153.118 31.7284 153.3 32.0001 153.424 32.2992C153.548 32.5983 153.612 32.919 153.611 33.2428Z" fill="#EF3F3F" stroke="black" stroke-width="2.52756" stroke-miterlimit="10" stroke-linecap="round"/>
<path d="M154.86 33.7499C155.521 33.9303 156.217 33.9402 156.882 33.7788C157.961 33.506 159.177 32.6553 159.726 30.357" stroke="black" stroke-width="2.52756" stroke-miterlimit="10" stroke-linecap="round"/>
<path d="M149.862 28.0843C149.862 28.3491 149.757 28.603 149.57 28.7905C149.383 28.9759 149.13 29.08 148.867 29.08C148.604 29.08 148.351 28.9759 148.164 28.7905C148.071 28.6981 147.998 28.5882 147.948 28.4673C147.897 28.3464 147.872 28.2168 147.872 28.0859C147.872 27.955 147.897 27.8254 147.948 27.7045C147.998 27.5836 148.071 27.4737 148.164 27.3813C148.303 27.2424 148.48 27.1478 148.673 27.1095C148.866 27.0713 149.066 27.091 149.248 27.1662C149.429 27.2414 149.585 27.3687 149.694 27.5321C149.803 27.6955 149.862 27.8877 149.862 28.0843Z" fill="#231F20"/>
<path d="M159.431 23.9819C159.431 24.2467 159.326 24.5006 159.139 24.6881C158.952 24.8736 158.699 24.9776 158.436 24.9776C158.173 24.9776 157.92 24.8736 157.733 24.6881C157.595 24.5485 157.5 24.3712 157.462 24.1783C157.424 23.9854 157.444 23.7856 157.519 23.6039C157.594 23.4222 157.721 23.2667 157.884 23.1569C158.047 23.0471 158.239 22.988 158.436 22.9868C158.7 22.9877 158.952 23.0928 159.139 23.2792C159.325 23.4656 159.43 23.7183 159.431 23.9819Z" fill="#231F20"/>
<path d="M148.029 22.5856L153.233 20.4509L158.436 18.3163" stroke="black" stroke-width="2.52756" stroke-miterlimit="10" stroke-linecap="round"/>
<path d="M150.69 21.4974L152.305 25.9272L153.923 30.357L154.529 30.0777L155.136 29.8016" stroke="black" stroke-width="2.52756" stroke-miterlimit="10" stroke-linecap="round"/>
<path d="M159.948 1.62427C155.551 1.64907 151.341 3.40153 148.225 6.50347C144.964 9.729 142.91 13.976 142.405 18.5345L159.418 16.2875L176.431 14.0405C175.208 10.5099 172.987 7.40997 170.037 5.11675C167.153 2.86835 163.605 1.64006 159.948 1.62427Z" fill="#F9851C" stroke="black" stroke-width="2.52756" stroke-miterlimit="10" stroke-linecap="round"/>
<path d="M168.58 22.3769L170.024 21.1764L171.469 19.9758" stroke="black" stroke-width="2.52756" stroke-miterlimit="10" stroke-linecap="round"/>
<path d="M148.867 17.6807C149.201 19.4809 148.985 21.3399 148.247 23.0157C147.552 24.6134 146.352 25.9393 144.832 26.7907C144.262 27.1033 143.653 27.3397 143.022 27.4936C142.455 27.6324 141.875 27.7067 141.291 27.7151C139.807 27.7492 138.344 27.3655 137.067 26.6077C136.154 26.0695 135.372 25.3343 134.779 24.4558C134.186 23.5773 133.797 22.5776 133.639 21.5295C133.546 20.8908 133.546 20.2421 133.639 19.6035C133.853 18.1955 134.453 16.8743 135.372 15.7868C135.821 15.2277 136.375 14.7625 137.004 14.4177C137.632 14.0729 138.322 13.8553 139.035 13.7773C139.917 13.7155 140.8 13.8778 141.603 14.2492C142.132 14.4881 142.628 14.7933 143.079 15.1576C142.983 15.4786 142.89 15.8285 142.803 16.188C142.717 16.5475 142.64 16.9263 142.569 17.3212C142.53 17.533 142.498 17.7449 142.469 17.9632C142.441 18.1814 142.415 18.3676 142.392 18.5634L145.628 18.1365L148.867 17.6807Z" fill="black" stroke="black" stroke-width="2.52756" stroke-miterlimit="10" stroke-linecap="round"/>
<path d="M144.036 12.5415L159.017 10.8915L173.995 9.24481" stroke="black" stroke-width="2.52756" stroke-miterlimit="10" stroke-linecap="round"/>
<path d="M148.568 12.0439V14.8816V17.7192" stroke="black" stroke-width="2.52756" stroke-miterlimit="10" stroke-linecap="round"/>
<path d="M154.488 11.434V14.1144V16.7979" stroke="black" stroke-width="2.52756" stroke-miterlimit="10" stroke-linecap="round"/>
<path d="M161.717 10.7086V13.344V15.9794" stroke="black" stroke-width="2.52756" stroke-miterlimit="10" stroke-linecap="round"/>
<path d="M169.077 9.89001V12.3842V14.8751" stroke="black" stroke-width="2.52756" stroke-miterlimit="10" stroke-linecap="round"/>
<path d="M190.741 260.11L141.689 264.035L92.6406 267.961C93.5696 270.291 95.2198 272.263 97.3499 273.588C99.4801 274.913 101.978 275.522 104.479 275.325L122.757 273.877L141.035 272.43C143.295 272.252 145.491 271.587 147.471 270.481L148.363 269.98L149.259 269.483C149.373 269.419 149.502 269.383 149.633 269.379C149.764 269.374 149.894 269.401 150.013 269.457C150.132 269.513 150.236 269.596 150.316 269.7C150.397 269.804 150.451 269.925 150.475 270.054C150.556 270.495 150.798 270.89 151.154 271.163C151.51 271.436 151.954 271.567 152.401 271.531L160.84 270.86L169.279 270.192C169.673 270.161 170.047 270.011 170.352 269.76C170.657 269.51 170.877 269.172 170.984 268.793L171.087 268.43L171.189 268.067C171.214 267.979 171.263 267.901 171.33 267.84C171.398 267.779 171.482 267.739 171.571 267.724C171.66 267.707 171.752 267.717 171.835 267.751C171.919 267.785 171.991 267.842 172.043 267.916L172.399 268.581L172.753 269.245C172.856 269.437 173.012 269.595 173.202 269.701C173.392 269.804 173.609 269.85 173.825 269.833L175.568 269.695L177.311 269.557C177.538 269.538 177.754 269.45 177.931 269.306C178.107 269.161 178.236 268.967 178.299 268.748L178.489 268.067L178.681 267.387C178.706 267.3 178.756 267.221 178.823 267.161C178.891 267.101 178.974 267.061 179.063 267.046C179.152 267.029 179.244 267.038 179.328 267.072C179.412 267.107 179.484 267.164 179.535 267.239L179.76 267.659L179.985 268.08C180.177 268.441 180.47 268.738 180.829 268.934C181.188 269.13 181.596 269.217 182.004 269.184L183.22 269.088L184.437 268.992C185.473 268.91 186.478 268.601 187.381 268.089C188.285 267.576 189.065 266.871 189.666 266.024C190.268 265.177 190.676 264.209 190.862 263.187C191.049 262.165 191.009 261.114 190.745 260.11H190.741Z" fill="#EF3F3F" stroke="black" stroke-width="2.52756" stroke-miterlimit="10" stroke-linecap="round"/>
<path d="M119.926 84.8082L121.421 85.5722L122.917 86.3362" stroke="black" stroke-width="2.52756" stroke-miterlimit="10" stroke-linecap="round"/>
<path d="M89.9346 98.9932C90.4011 96.6114 90.8687 94.2274 91.3373 91.8413C91.806 89.4552 92.2736 87.0713 92.7401 84.6894C92.7881 84.1968 93.0168 83.7394 93.3821 83.4054C93.7386 83.0814 94.2036 82.9027 94.6854 82.9047C95.1388 82.9121 95.5743 83.0831 95.9116 83.3862C96.2523 83.6913 96.4788 84.1034 96.5536 84.5546C96.5716 84.6606 96.5781 84.7682 96.5728 84.8756C96.5675 84.9834 96.5546 85.0907 96.5343 85.1966L95.3402 92.0724C94.94 94.3644 94.5409 96.6563 94.1429 98.9483H92.0307L89.9346 98.9932Z" fill="black" stroke="black" stroke-width="2.52756" stroke-miterlimit="10" stroke-linecap="round"/>
<path d="M153.859 86.2848C153.237 86.2812 152.624 86.4312 152.074 86.7214C151.74 86.8905 151.427 87.0973 151.14 87.3377C150.578 87.819 150.142 88.4307 149.872 89.1192C149.711 89.5142 149.603 89.9287 149.551 90.3519L148.427 95.2632L147.304 100.171L149.23 100.242L151.156 100.312C151.329 100.42 151.508 100.519 151.692 100.608C151.929 100.72 152.175 100.814 152.427 100.887C152.427 100.887 152.568 100.932 152.78 100.977C153.028 101.034 153.28 101.068 153.534 101.076C154.544 101.1 155.522 100.721 156.253 100.023C156.984 99.3255 157.408 98.3662 157.431 97.3561L157.515 93.7705L157.598 90.1817C157.621 89.1717 157.243 88.1937 156.545 87.4629C155.847 86.7321 154.888 86.3084 153.878 86.2848H153.859Z" fill="#14AF6C" stroke="black" stroke-width="2.52756" stroke-miterlimit="10" stroke-linecap="round"/>
<path d="M147.747 97.7092L146.832 101.802L145.917 105.898" stroke="black" stroke-width="2.52756" stroke-miterlimit="10" stroke-linecap="round"/>
<path d="M89.9346 98.9932L89.222 102.624L88.5093 106.251" stroke="black" stroke-width="2.52756" stroke-miterlimit="10" stroke-linecap="round"/>
<path d="M119.486 98.9932H104.71H89.9346L90.8045 94.5538L91.6744 90.1176H106.672H121.665L120.577 94.5538L119.486 98.9932Z" fill="#D1B7E5" stroke="black" stroke-width="2.52756" stroke-miterlimit="10" stroke-linecap="round"/>
</svg>
