<svg width="325" height="245" viewBox="0 0 325 245" fill="none" xmlns="http://www.w3.org/2000/svg">
<path d="M131.352 242.844C141.403 242.521 150.479 242.328 158.353 242.211C166.228 242.094 172.905 242.062 178.149 242.054C208.136 242.018 230.627 241.985 245.877 241.981C261.126 241.977 269.134 241.981 270.153 242.054C277.246 242.457 281.675 242.594 285.105 242.417C288.147 242.269 291.161 241.753 294.08 240.881C307.29 237.21 314.403 226.893 318.304 214.662C322.205 202.431 322.898 188.286 323.265 176.965C323.353 174.185 323.49 169.929 323.486 164.956C323.482 159.983 323.325 154.297 322.838 148.655C321.915 138.032 320.766 124.817 317.228 111.808C313.689 98.7996 307.757 86.0164 297.275 76.2275C289.904 69.3564 281.881 65.4634 271.806 62.8802C261.731 60.297 249.592 59.0194 234.004 57.3792C220.275 55.8975 206.417 56.0558 192.725 57.8507C185.105 58.8443 177.58 60.4617 170.226 62.6867C166.812 63.7305 163.632 64.7017 160.453 65.8906C157.083 67.1368 153.816 68.6432 150.68 70.3961C138.231 77.368 129.498 87.2496 123.389 96.9941C117.279 106.739 113.801 116.302 111.855 122.669L108.429 136.923L105.008 151.182L90.6209 133.502L76.258 115.838L54.496 135.227L32.734 154.611L34.346 156.674C34.8578 157.319 35.3293 157.924 35.7646 158.476L36.4456 159.35C36.8486 159.862 37.3725 160.535 37.8602 161.164C39.4722 163.235 47.9352 175.748 57.853 189.41C67.7708 203.072 79.0629 217.882 86.3532 224.556C86.8771 225.035 87.5823 225.66 88.4729 226.345C89.499 227.135 90.576 227.857 91.6969 228.505C93.0854 229.29 94.534 229.964 96.0292 230.52C99.2301 231.792 102.636 232.469 106.08 232.519C112.275 232.451 118.264 230.286 123.07 226.377C128.14 222.258 131.748 216.616 133.359 210.286C133.026 215.71 132.693 221.136 132.36 226.563L131.352 242.844Z" fill="#5F9DFA" stroke="black" stroke-width="3" stroke-miterlimit="10" stroke-linecap="round"/>
<path d="M191.701 101.379L184.923 171.718L178.153 242.054H202.292H226.428L209.063 171.718L191.701 101.379Z" fill="#FFF8F8" stroke="black" stroke-width="3" stroke-miterlimit="10" stroke-linecap="round"/>
<path d="M183.182 85.5489L187.438 93.4639L191.701 101.379L194.559 92.4564L197.416 83.5339L190.299 84.5414L183.182 85.5489Z" fill="#FFF8F8" stroke="black" stroke-width="3" stroke-miterlimit="10" stroke-linecap="round"/>
<path d="M104.996 151.161L110.944 158.851L116.892 166.54C116.932 166.591 116.988 166.627 117.051 166.64C117.115 166.653 117.181 166.643 117.237 166.612C117.294 166.581 117.337 166.53 117.36 166.47C117.382 166.409 117.382 166.343 117.36 166.282C115.748 161.911 114.147 157.538 112.556 153.164C110.966 148.79 109.364 144.419 107.752 140.051L106.374 145.604L104.996 151.161Z" fill="black" stroke="black" stroke-width="3" stroke-miterlimit="10" stroke-linecap="round"/>
<path d="M137.317 149.271C136.664 159.819 136.012 170.364 135.362 180.907C134.712 191.449 134.06 201.994 133.407 212.542" stroke="black" stroke-width="3" stroke-miterlimit="10" stroke-linecap="round"/>
<path d="M170.213 62.6827L164.688 64.4398L162.798 65.0443C162.798 65.0443 162.254 72.8302 161.464 84.1626C160.674 95.495 159.631 110.378 158.643 124.575L175.166 112.977L191.689 101.379L180.949 82.0348L170.213 62.6827Z" fill="#5F9DFA" stroke="black" stroke-width="3" stroke-miterlimit="10" stroke-linecap="round"/>
<path d="M207.382 56.5491L199.54 78.976C196.928 86.4476 194.314 93.9192 191.697 101.391L211.992 112.022L232.288 122.657C231.216 118.704 226.718 102.104 222.483 86.504L214.286 56.279L210.884 56.4161L207.382 56.5491Z" fill="#104FC1" stroke="black" stroke-width="3" stroke-miterlimit="10" stroke-linecap="round"/>
<path d="M214.229 33.3564L202.852 36.258L191.476 39.1596C192.439 42.1716 193.794 45.0441 195.506 47.7032C199.189 53.4584 204.647 57.8569 211.053 60.2325C212.86 60.9024 214.723 61.4121 216.619 61.7558C217.366 59.2598 217.858 56.6943 218.086 54.0988C218.514 49.1511 218.01 44.167 216.599 39.4054C215.978 37.3269 215.185 35.3036 214.229 33.3564Z" fill="black" stroke="black" stroke-width="3" stroke-miterlimit="10" stroke-linecap="round"/>
<path d="M206.87 58.3182C206.117 57.9152 205.524 57.5122 205.065 57.214C204.605 56.9158 204.259 56.6498 204.049 56.4684L203.594 56.0896L203.247 55.7833L203.558 55.8035H203.92H204.231C204.42 55.8035 204.67 55.7833 204.92 55.7511C206.292 55.6079 207.609 55.1338 208.758 54.3694C209.907 53.6051 210.854 52.5733 211.516 51.3627C212.178 50.1521 212.537 48.7989 212.561 47.4192C212.585 46.0394 212.274 44.6745 211.655 43.4414C211.035 42.2083 210.126 41.144 209.004 40.3398C207.883 39.5357 206.583 39.0156 205.217 38.8244C203.85 38.6332 202.457 38.7765 201.158 39.242C199.859 39.7075 198.693 40.4813 197.758 41.497C196.367 42.9962 195.533 44.9285 195.397 46.9697C194.994 46.4539 194.591 45.8655 194.188 45.2046C193.738 44.4882 193.326 43.7483 192.955 42.9881C192.616 42.2909 192.33 41.6139 192.088 40.9731C191.846 40.3323 191.653 39.7278 191.492 39.1717L172.075 44.1205L152.663 49.0694C152.663 49.8391 152.683 50.6128 152.727 51.3906C152.772 52.1684 152.836 52.9502 152.929 53.7361C154.097 63.5975 158.796 72.0927 165.45 77.8556C172.103 83.6185 180.703 86.6572 189.686 85.5932C195.997 84.8361 201.914 82.1283 206.612 77.8476C211.365 73.504 214.839 67.9436 216.659 61.7679C215.47 61.5463 214.293 61.2638 213.133 60.9216C212.093 60.6113 211.198 60.2929 210.457 59.9987C210.054 59.8375 209.518 59.6199 208.917 59.3459C208.317 59.0718 207.6 58.7172 206.87 58.3182Z" fill="#FFC0C0" stroke="black" stroke-width="3" stroke-miterlimit="10" stroke-linecap="round"/>
<path d="M199.33 57.8427C199.454 58.8916 199.211 59.9512 198.641 60.8407C198.071 61.7302 197.211 62.3948 196.206 62.7212C195.202 63.0475 194.115 63.0155 193.132 62.6305C192.148 62.2455 191.328 61.5314 190.812 60.6098C190.296 59.6883 190.115 58.6162 190.301 57.5764C190.486 56.5366 191.027 55.5932 191.83 54.9071C192.633 54.2209 193.649 53.8345 194.705 53.8135C195.761 53.7925 196.792 54.1383 197.621 54.792C198.094 55.1623 198.488 55.6227 198.781 56.1463C199.074 56.6699 199.261 57.2465 199.33 57.8427Z" fill="#EF3F3F" stroke="black" stroke-width="3" stroke-miterlimit="10" stroke-linecap="round"/>
<path d="M176.025 75.4538C176.149 76.5028 175.905 77.5623 175.335 78.4518C174.766 79.3414 173.906 80.0059 172.901 80.3323C171.896 80.6586 170.81 80.6266 169.826 80.2416C168.842 79.8566 168.023 79.1425 167.507 78.2209C166.99 77.2994 166.81 76.2274 166.995 75.1875C167.181 74.1477 167.721 73.2043 168.524 72.5182C169.327 71.832 170.343 71.4456 171.399 71.4246C172.456 71.4036 173.486 71.7494 174.316 72.4031C174.788 72.7741 175.181 73.2345 175.474 73.7581C175.768 74.2816 175.955 74.8578 176.025 75.4538Z" fill="#EF3F3F" stroke="black" stroke-width="3" stroke-miterlimit="10" stroke-linecap="round"/>
<path d="M168.432 64.9798C168.47 65.2243 168.459 65.474 168.398 65.7139C168.338 65.9538 168.229 66.1791 168.08 66.3762C167.93 66.5734 167.743 66.7384 167.528 66.8614C167.313 66.9844 167.076 67.0628 166.83 67.0921C166.584 67.1213 166.335 67.1008 166.098 67.0316C165.86 66.9625 165.639 66.8462 165.447 66.6897C165.256 66.5331 165.098 66.3396 164.982 66.1206C164.867 65.9016 164.797 65.6617 164.777 65.4151C164.739 65.1706 164.75 64.9209 164.811 64.681C164.872 64.4411 164.98 64.2158 165.129 64.0187C165.279 63.8215 165.467 63.6565 165.681 63.5335C165.896 63.4105 166.133 63.3321 166.379 63.3028C166.625 63.2735 166.874 63.2941 167.111 63.3632C167.349 63.4324 167.57 63.5487 167.762 63.7052C167.953 63.8617 168.112 64.0553 168.227 64.2743C168.342 64.4933 168.412 64.7332 168.432 64.9798Z" fill="#231F20"/>
<path d="M185.128 55.3562C185.171 55.7178 185.106 56.0841 184.941 56.4086C184.775 56.7331 184.518 57.0014 184.2 57.1795C183.882 57.3575 183.519 57.4374 183.156 57.409C182.793 57.3806 182.446 57.2452 182.16 57.0199C181.874 56.7946 181.661 56.4895 181.548 56.1432C181.436 55.7969 181.428 55.425 181.527 55.0744C181.625 54.7238 181.825 54.4103 182.102 54.1735C182.379 53.9368 182.72 53.7873 183.081 53.7442C183.321 53.7155 183.565 53.7344 183.798 53.7999C184.031 53.8654 184.249 53.9762 184.439 54.1259C184.629 54.2756 184.788 54.4613 184.906 54.6724C185.024 54.8835 185.1 55.1159 185.128 55.3562Z" fill="#231F20"/>
<path d="M163.709 55.199C165.014 54.027 166.401 52.9496 167.86 51.975C172.388 48.9379 177.543 46.96 182.94 46.1879" stroke="black" stroke-width="3" stroke-miterlimit="10" stroke-linecap="round"/>
<path d="M168.263 52.3619L172.2 60.1559L176.142 67.9459L177.193 67.3011L178.245 66.6603" stroke="black" stroke-width="3" stroke-miterlimit="10" stroke-linecap="round"/>
<path d="M181.203 14.1494C172.938 15.1327 165.797 19.4126 160.723 25.6712C155.441 32.3108 152.596 40.5612 152.663 49.0452L183.456 41.2028L214.249 33.3564C211.23 27.1333 206.471 21.9199 200.547 18.3487C194.742 14.8464 187.938 13.3695 181.203 14.1494Z" fill="#F9851C" stroke="black" stroke-width="3" stroke-miterlimit="10" stroke-linecap="round"/>
<path d="M201.595 50.4114L203.985 47.8926L206.379 45.3698" stroke="black" stroke-width="3" stroke-miterlimit="10" stroke-linecap="round"/>
<path d="M164.338 46.0711C165.341 49.3079 165.349 52.7714 164.362 56.0131C163.431 59.101 161.515 61.7991 158.905 63.6942C157.926 64.3961 156.858 64.9652 155.73 65.3868C152.121 66.7185 148.137 66.5986 144.615 65.0524C142.819 64.2609 141.223 63.0795 139.941 61.5941C138.659 60.1086 137.724 58.3563 137.204 56.4644C136.886 55.3031 136.738 54.1017 136.764 52.8979C136.857 50.2701 137.674 47.7191 139.126 45.527C140.605 43.3105 142.753 41.5816 145.417 41.0336C147.028 40.7236 148.692 40.8276 150.253 41.3358C151.278 41.6614 152.257 42.1164 153.167 42.6899C153.062 43.3065 152.965 43.9593 152.884 44.6404C152.804 45.3215 152.743 46.0348 152.699 46.7763C152.679 47.1793 152.663 47.5823 152.655 47.9531C152.647 48.3238 152.655 48.7107 152.655 49.0734L158.502 47.5823L164.338 46.0711Z" fill="black" stroke="black" stroke-width="3" stroke-miterlimit="10" stroke-linecap="round"/>
<path d="M154.343 37.6806L181.514 31.3857L208.688 25.0909" stroke="black" stroke-width="3" stroke-miterlimit="10" stroke-linecap="round"/>
<path d="M162.56 35.7784L163.181 40.9932L163.798 46.2081" stroke="black" stroke-width="3" stroke-miterlimit="10" stroke-linecap="round"/>
<path d="M173.308 33.3645L173.893 38.2972L174.477 43.2259" stroke="black" stroke-width="3" stroke-miterlimit="10" stroke-linecap="round"/>
<path d="M186.434 30.4588L187.006 35.3029L187.583 40.147" stroke="black" stroke-width="3" stroke-miterlimit="10" stroke-linecap="round"/>
<path d="M199.79 27.3517L200.33 31.9338L200.874 36.5159" stroke="black" stroke-width="3" stroke-miterlimit="10" stroke-linecap="round"/>
<path d="M190.537 64.7622C190.428 64.6151 190.29 64.4928 190.131 64.4031C189.972 64.3135 189.796 64.2587 189.614 64.2423C189.433 64.2238 189.251 64.2445 189.079 64.3029C188.907 64.3613 188.75 64.4561 188.618 64.5808L186.43 66.6281C185.705 67.3132 184.977 67.9956 184.246 68.6753C183.85 70.2553 183.748 71.8944 183.944 73.5113C184.078 74.7542 184.348 75.9785 184.75 77.1625C185.809 77.1701 186.86 76.9673 187.841 76.566C188.807 76.1718 189.671 75.5627 190.367 74.7848C191.519 73.4466 192.158 71.7425 192.169 69.977C192.206 68.1076 191.633 66.2769 190.537 64.7622Z" fill="#EF3F3F" stroke="black" stroke-width="3" stroke-miterlimit="10" stroke-linecap="round"/>
<path d="M179.361 73.2574C179.229 73.3836 179.124 73.5365 179.055 73.7059C178.985 73.8754 178.952 74.0577 178.958 74.2408C178.961 74.4246 179.003 74.6057 179.081 74.7719C179.16 74.9381 179.273 75.0854 179.414 75.2039C180.916 76.4683 182.815 77.1644 184.778 77.1706C184.377 75.9866 184.106 74.7622 183.972 73.5194C183.776 71.9025 183.878 70.2633 184.274 68.6834L181.832 70.9765L179.361 73.2574Z" fill="black" stroke="black" stroke-width="3" stroke-miterlimit="10" stroke-linecap="round"/>
<path d="M175.211 156.977C175.206 157.485 175.024 157.976 174.698 158.366C174.371 158.756 173.919 159.02 173.419 159.114C172.919 159.208 172.402 159.125 171.957 158.88C171.511 158.635 171.164 158.243 170.975 157.771C170.786 157.299 170.767 156.776 170.921 156.291C171.075 155.806 171.392 155.39 171.819 155.113C172.245 154.836 172.755 154.716 173.26 154.773C173.766 154.83 174.236 155.06 174.59 155.425C174.994 155.84 175.218 156.398 175.211 156.977Z" fill="black" stroke="black" stroke-width="3" stroke-miterlimit="10" stroke-linecap="round"/>
<path d="M171.576 199.098C171.576 199.46 171.487 199.816 171.317 200.134C171.147 200.453 170.901 200.725 170.601 200.926C170.301 201.127 169.955 201.251 169.596 201.287C169.236 201.322 168.873 201.269 168.539 201.131C168.205 200.992 167.911 200.774 167.681 200.494C167.452 200.215 167.295 199.883 167.225 199.529C167.155 199.174 167.173 198.808 167.278 198.462C167.383 198.116 167.572 197.802 167.828 197.547C168.135 197.24 168.526 197.031 168.952 196.947C169.377 196.862 169.818 196.906 170.219 197.072C170.62 197.238 170.963 197.519 171.204 197.88C171.446 198.24 171.575 198.664 171.576 199.098Z" fill="black" stroke="black" stroke-width="3" stroke-miterlimit="10" stroke-linecap="round"/>
<path d="M270.153 242.054C255.859 240.728 242.491 215.053 232.674 189.664C222.857 164.275 216.675 139.265 216.675 139.265L243.414 126.482L270.153 113.703L281.84 141.663L293.527 169.619" stroke="black" stroke-width="3" stroke-miterlimit="10" stroke-linecap="round"/>
<path d="M233.243 97.5583L220.129 96.0753L206.999 94.5922C206.493 94.5351 206.004 94.3789 205.558 94.1325C205.112 93.8861 204.72 93.5543 204.402 93.1561C204.085 92.758 203.849 92.3012 203.708 91.8119C203.568 91.3225 203.525 90.8103 203.582 90.3043L206.705 62.6464L209.828 34.9885C209.945 33.9669 210.461 33.033 211.265 32.3917C212.069 31.7503 213.094 31.4538 214.116 31.5671L227.234 33.034L240.36 34.517C240.866 34.5741 241.355 34.7304 241.801 34.9768C242.246 35.2232 242.639 35.555 242.956 35.9531C243.274 36.3513 243.51 36.8081 243.65 37.2974C243.791 37.7867 243.834 38.299 243.777 38.805L240.654 66.483L237.531 94.1449C237.473 94.6509 237.317 95.1406 237.071 95.5862C236.824 96.0318 236.493 96.4245 236.094 96.7418C235.696 97.0591 235.239 97.2949 234.75 97.4357C234.261 97.5765 233.749 97.6196 233.243 97.5624V97.5583Z" fill="#D1B7E5" stroke="black" stroke-width="3" stroke-miterlimit="10" stroke-linecap="round"/>
<path d="M237.692 44.9386C237.695 45.5619 237.481 46.1669 237.088 46.6508C236.695 47.1346 236.147 47.4673 235.536 47.5923C234.926 47.7173 234.291 47.6269 233.739 47.3364C233.188 47.046 232.754 46.5734 232.512 45.9991C232.269 45.4249 232.233 44.7844 232.41 44.1867C232.587 43.589 232.965 43.0709 233.481 42.7207C233.996 42.3705 234.617 42.2098 235.238 42.2659C235.859 42.322 236.441 42.5914 236.886 43.0284C237.139 43.2778 237.341 43.5751 237.48 43.9029C237.618 44.2308 237.69 44.5828 237.692 44.9386Z" fill="black" stroke="black" stroke-width="3" stroke-miterlimit="10" stroke-linecap="round"/>
<path d="M236.704 54.6791C236.708 55.3046 236.495 55.9119 236.101 56.3978C235.707 56.8836 235.157 57.218 234.544 57.3438C233.932 57.4696 233.294 57.3792 232.741 57.0879C232.187 56.7966 231.752 56.3224 231.509 55.7462C231.266 55.1699 231.23 54.5272 231.407 53.9275C231.585 53.3278 231.965 52.8081 232.482 52.457C233 52.1059 233.623 51.9451 234.246 52.002C234.869 52.0589 235.453 52.3299 235.898 52.7689C236.152 53.0186 236.353 53.3159 236.492 53.6437C236.63 53.9715 236.702 54.3234 236.704 54.6791Z" fill="black" stroke="black" stroke-width="3" stroke-miterlimit="10" stroke-linecap="round"/>
<path d="M244.067 44.588C244.322 44.2945 244.621 44.0429 244.954 43.8425C245.28 43.6479 245.642 43.5204 246.018 43.4677C246.212 43.4474 246.408 43.4474 246.602 43.4677C247.072 43.5155 247.529 43.6522 247.948 43.8707C249.963 44.9185 251.015 48.477 251.551 51.7775C251.881 53.8729 252.069 55.988 252.115 58.1087C252.16 63.0012 252.564 67.8839 253.324 72.7174C254.041 77.4244 255.037 82.2 256.189 87.7332C256.189 87.7332 256.363 88.5392 257.58 92.4926C258.797 96.446 261.074 103.511 265.265 116.052C263.234 117.019 261.199 117.99 259.16 118.966L253.042 121.895C248.107 124.271 243.189 126.647 238.288 129.025C233.388 131.402 228.51 133.785 223.655 136.174C217.336 128.517 211.968 121.666 207.785 116.137C203.602 110.607 200.575 106.34 198.943 103.821C198.216 102.646 197.579 101.417 197.037 100.146C196.118 97.9895 195.26 95.2088 195.518 92.6901C195.576 92.1202 195.671 91.5547 195.804 90.9975C195.921 90.5058 196.05 90.0988 196.155 89.7885C195.468 89.0977 194.881 88.3152 194.41 87.4632C193.523 85.912 193.12 84.131 193.253 82.3491C193.336 81.3458 193.591 80.3643 194.007 79.4475C194.289 78.8262 194.638 78.2371 195.046 77.6904C194.716 77.1765 194.46 76.619 194.285 76.0341C193.914 74.8603 193.908 73.6016 194.268 72.4244C194.627 71.2472 195.336 70.2069 196.3 69.441C196.817 69.0077 197.397 68.6558 198.02 68.3972C197.628 67.3764 197.537 66.2644 197.758 65.1934C197.959 64.1823 198.477 63.2617 199.237 62.5658C200.151 61.7699 201.326 61.3393 202.538 61.3568C203.833 61.3617 205.088 61.8065 206.097 62.6182C206.254 62.743 206.403 62.8776 206.544 63.0212C206.689 63.1663 206.822 63.3194 206.947 63.4766C208.146 64.9008 209.448 66.2343 210.844 67.4663C212.581 68.9985 214.459 70.3627 216.454 71.5406C220.653 73.999 225.295 75.6079 230.115 76.2759C233.234 76.7176 236.393 76.7946 239.529 76.5056C240.335 70.0858 240.714 66.7248 240.924 64.9677C241.133 63.2106 241.137 63.0615 241.137 63.0615C241.278 60.8934 241.464 58.8703 241.738 56.4402C242.012 54.0101 242.362 51.2012 242.838 47.4171C242.9 46.8941 243.035 46.3825 243.241 45.8978C243.446 45.4207 243.725 44.9787 244.067 44.588Z" fill="#FFC0C0" stroke="black" stroke-width="3" stroke-miterlimit="10" stroke-linecap="round"/>
<path d="M198.008 68.3811C199.832 70.9679 201.837 73.4217 204.009 75.7238C207.664 79.6127 212.637 83.945 217.892 85.698" stroke="black" stroke-width="3" stroke-miterlimit="10" stroke-linecap="round"/>
<path d="M195.05 77.6743C196.9 80.1383 198.887 82.4956 201.003 84.7349C204.513 88.4505 209.087 92.541 213.346 94.0321" stroke="black" stroke-width="3" stroke-miterlimit="10" stroke-linecap="round"/>
<path d="M196.159 89.7724C196.159 89.7724 198.202 92.1138 200.995 94.8139C203.787 97.514 207.277 100.565 210.203 101.987" stroke="black" stroke-width="3" stroke-miterlimit="10" stroke-linecap="round"/>
<path d="M122.289 2.15614H65.3125C63.5454 2.15828 61.8512 2.86123 60.6016 4.11081C59.352 5.3604 58.649 7.05458 58.6469 8.82176V40.558C58.6469 42.3258 59.3492 44.0213 60.5992 45.2713C61.8493 46.5214 63.5447 47.2236 65.3125 47.2236H91.2496L98.9872 54.9572L106.721 62.6867L105.355 54.9572L103.988 47.2236H122.289C124.057 47.2236 125.752 46.5214 127.002 45.2713C128.252 44.0213 128.954 42.3258 128.954 40.558V8.82176C128.952 7.05458 128.249 5.3604 127 4.11081C125.75 2.86123 124.056 2.15828 122.289 2.15614Z" fill="#14AF6C" stroke="black" stroke-width="3" stroke-miterlimit="10" stroke-linecap="round"/>
<path d="M81.6219 26.0419C81.6229 27.0144 81.2866 27.9572 80.6703 28.7095C80.0541 29.4619 79.196 29.9772 78.2424 30.1678C77.2887 30.3584 76.2985 30.2125 75.4404 29.7548C74.5824 29.2971 73.9096 28.556 73.5366 27.6579C73.1637 26.7597 73.1138 25.76 73.3953 24.8292C73.6769 23.8983 74.2725 23.0939 75.0807 22.553C75.8889 22.012 76.8597 21.7681 77.8276 21.8627C78.7955 21.9573 79.7006 22.3846 80.3887 23.0718C80.7797 23.4613 81.0899 23.9242 81.3015 24.4339C81.5132 24.9436 81.622 25.4901 81.6219 26.0419Z" fill="#F7CE21" stroke="black" stroke-width="3" stroke-miterlimit="10" stroke-linecap="round"/>
<path d="M114.378 26.0419C114.372 27.0127 114.03 27.9516 113.41 28.6984C112.79 29.4453 111.93 29.954 110.977 30.1378C110.024 30.3217 109.036 30.1692 108.183 29.7064C107.329 29.2437 106.663 28.4993 106.297 27.6002C105.931 26.701 105.888 25.7028 106.176 24.7756C106.463 23.8484 107.064 23.0496 107.874 22.5155C108.685 21.9813 109.656 21.7448 110.621 21.8462C111.586 21.9477 112.487 22.3808 113.169 23.0718C113.556 23.4632 113.861 23.9269 114.069 24.4366C114.276 24.9462 114.381 25.4917 114.378 26.0419Z" fill="#F7CE21" stroke="black" stroke-width="3" stroke-miterlimit="10" stroke-linecap="round"/>
<path d="M98.02 26.0419C98.0192 27.0124 97.6821 27.9525 97.0659 28.7023C96.4498 29.452 95.5928 29.965 94.641 30.1538C93.6891 30.3426 92.7012 30.1955 91.8455 29.7377C90.9899 29.2799 90.3194 28.5396 89.9484 27.6429C89.5773 26.7462 89.5285 25.7487 89.8104 24.8201C90.0923 23.8915 90.6874 23.0894 91.4943 22.5503C92.3013 22.0112 93.2701 21.7686 94.2359 21.8637C95.2016 21.9588 96.1045 22.3857 96.7908 23.0718C97.5779 23.8599 98.0199 24.9282 98.02 26.0419Z" fill="#F7CE21" stroke="black" stroke-width="3" stroke-miterlimit="10" stroke-linecap="round"/>
<path d="M35.3535 97.6994C33.8726 96.2407 32.5439 94.6353 31.388 92.9077C30.3643 91.4045 29.5865 90.0464 28.8974 89.0026C26.7431 85.7501 24.7603 82.3872 22.9572 78.9276C21.1512 75.4709 19.5904 71.8915 18.2864 68.2159C17.9679 67.2428 17.5436 66.3076 17.021 65.4271C16.3345 64.1973 15.2522 63.2358 13.9501 62.6988C13.6261 62.5781 13.2895 62.4943 12.9467 62.449C12.3872 62.3727 11.8176 62.4265 11.2823 62.6061C10.4506 62.9054 9.74184 63.4724 9.26728 64.2181C8.72328 65.067 8.39281 66.0349 8.30412 67.0391C7.75709 67.141 7.22769 67.3215 6.73242 67.5751C6.3913 67.749 6.07204 67.9627 5.78134 68.2119C4.77895 69.1151 4.12211 70.339 3.92351 71.6736C3.67587 73.2175 3.81432 74.7986 4.32651 76.2759C4.09915 76.3938 3.88092 76.5285 3.67365 76.6789C3.48341 76.8209 3.30423 76.9772 3.13766 77.1464C1.15893 79.1291 1.2758 82.5466 1.92866 85.5731C2.40776 87.6646 3.09773 89.7021 3.98799 91.6544L4.64891 93.0891C4.86653 93.5646 5.08818 94.0442 5.3058 94.5237C5.11206 94.6283 4.92619 94.7468 4.74966 94.8784C4.52228 95.0501 4.31177 95.2431 4.12098 95.4547C3.40767 96.2607 2.65406 97.6954 3.03288 100.75C3.4117 103.805 4.92698 108.472 8.73936 115.722C11.4916 120.911 14.5616 125.926 17.9318 130.737C23.2316 138.3 29.0203 145.507 35.2608 152.314L55.7372 134.07L76.258 115.838C69.4634 101.983 63.628 90.0746 59.3803 81.4021C55.1327 72.7295 52.481 67.289 52.0417 66.354C51.9826 66.227 51.9166 66.1033 51.8442 65.9833C51.2886 65.0354 50.4827 64.2588 49.5149 63.7386C48.8642 63.4004 48.1286 63.2602 47.3991 63.3356C47.163 63.3623 46.9305 63.415 46.706 63.4927C46.2703 63.6311 45.8662 63.8544 45.5171 64.1496C44.3081 65.1773 44.0381 66.612 44.155 68.095C44.3378 69.5517 44.688 70.9824 45.1988 72.3587C46.7782 77.0971 48.0027 81.9465 48.862 86.8667C49.8574 93.081 49.8655 99.2791 46.6133 101.294C46.0536 101.624 45.4271 101.826 44.7796 101.883C44.1454 101.937 43.5077 101.937 42.8735 101.883C41.7293 101.804 40.6151 101.483 39.6051 100.94C38.0356 100.075 36.6029 98.9835 35.3535 97.6994Z" fill="#FFC0C0" stroke="black" stroke-width="3" stroke-miterlimit="10" stroke-linecap="round"/>
<path d="M5.33002 94.5399C5.33002 94.5399 6.81709 98.5981 8.95702 103.237C11.0969 107.875 13.8253 113.09 16.3521 115.407" stroke="black" stroke-width="3" stroke-miterlimit="10" stroke-linecap="round"/>
<path d="M4.33862 76.288C4.33862 76.288 7.54247 84.2634 11.3387 92.4765C15.135 100.69 19.5156 109.124 21.853 110.047" stroke="black" stroke-width="3" stroke-miterlimit="10" stroke-linecap="round"/>
<path d="M8.30817 67.0512C8.30817 67.0512 11.3629 75.486 15.3123 84.3802C19.2617 93.2744 24.1098 102.636 27.6925 104.486" stroke="black" stroke-width="3" stroke-miterlimit="10" stroke-linecap="round"/>
<path d="M226.456 172.279V207.166V242.054H267.832C266.671 242.054 265.479 241.425 264.362 240.631C263.246 239.837 262.206 238.87 261.356 238.213C256.476 234.332 252.458 229.408 248.996 224.076C245.534 218.744 242.628 212.998 239.981 207.481C238.312 204.007 236.966 200.912 235.713 197.809C234.46 194.706 233.295 191.602 231.997 188.112C231.232 186.061 230.385 183.679 229.434 181.048C228.483 178.416 227.5 175.458 226.456 172.279Z" fill="black" stroke="black" stroke-width="3" stroke-miterlimit="10" stroke-linecap="round"/>
</svg>
