<svg width="285" height="271" viewBox="0 0 285 271" fill="none" xmlns="http://www.w3.org/2000/svg">
<path d="M57.0184 32.7627L65.2382 36.2701L73.4579 39.7774L76.3878 32.5048L79.3138 25.2321L70.2855 23.6652L61.2611 22.0982L59.1398 27.4305L57.0184 32.7627Z" fill="#D1B7E5" stroke="black" stroke-width="2.92405" stroke-miterlimit="10" stroke-linecap="round"/>
<path d="M60.522 25.2167L68.5454 27.6191L76.5649 30.0254" fill="#D1B7E5"/>
<path d="M60.522 25.2167L68.5454 27.6191L76.5649 30.0254" stroke="black" stroke-width="2.92405" stroke-miterlimit="10" stroke-linecap="round"/>
<path d="M21.9565 14.9835L25.1636 16.5119L28.3706 18.0365V14.9835V11.9266L25.1636 13.455L21.9565 14.9835Z" fill="#F9851C" stroke="black" stroke-width="2.92405" stroke-miterlimit="10" stroke-linecap="round"/>
<path d="M93.0159 261.253L161.115 262.793L229.21 264.333C229.21 264.333 242.13 269.869 255.278 269.037C268.426 268.206 281.808 261.01 282.732 235.542C282.732 235.542 282.732 231.796 280.873 220.162C279.013 208.527 275.286 189.015 267.841 157.445C266.509 151.773 264.538 146.271 261.965 141.044C259.396 135.818 256.208 130.919 252.471 126.453C252.063 125.967 251.646 125.482 251.22 124.997C250.794 124.512 250.359 124.035 249.915 123.565C241.945 115.07 232.136 108.513 221.24 104.396C214.666 101.871 207.8 100.181 200.804 99.3678C200.804 99.3678 174.782 95.8604 147.008 99.2292C119.234 102.598 89.6857 112.839 82.6748 140.336C80.6061 147.522 78.5399 154.7 76.4763 161.869C74.4127 169.037 72.3466 176.214 70.2778 183.398C68.2861 176.645 66.2931 169.891 64.2988 163.135L58.3159 142.877L34.9579 149.456L11.6 156.036C13.3556 163.492 15.1125 170.95 16.8706 178.408L22.1374 200.784C24.8324 213.262 26.5572 220.639 27.589 224.901C28.6208 229.163 28.9635 230.291 28.9635 230.291C29.8352 234.692 31.3381 238.944 33.4256 242.915C36.6134 249.044 41.9495 256.086 50.7506 261.01C60.9223 266.677 71.1094 266.935 78.9403 265.68C83.8293 264.926 88.5753 263.433 93.0159 261.253Z" fill="#5F9DFA" stroke="black" stroke-width="2.92405" stroke-miterlimit="10" stroke-linecap="round"/>
<path d="M174.601 237.463L185.046 241.556L188.608 242.95L194.383 246.238C197.463 247.989 200.928 249.968 202.514 250.858C205.498 252.54 209.186 254.554 213.625 256.825C218.064 259.097 223.25 261.63 229.225 264.36L214.356 263.955L199.488 263.57L187.052 250.526L174.601 237.463Z" fill="black" stroke="black" stroke-width="2.92405" stroke-miterlimit="10" stroke-linecap="round"/>
<path d="M130.808 102.04L124.49 121.548L118.172 141.056L133.025 131.569L147.882 122.083L139.343 112.061L130.808 102.04Z" fill="#5F9DFA" stroke="black" stroke-width="2.92405" stroke-miterlimit="10" stroke-linecap="round"/>
<path d="M121.04 215.472C121.04 215.958 120.871 216.428 120.563 216.803C120.255 217.178 119.826 217.435 119.35 217.529C118.873 217.624 118.379 217.55 117.951 217.321C117.523 217.092 117.188 216.721 117.002 216.272C116.817 215.823 116.793 215.324 116.935 214.86C117.076 214.395 117.374 213.994 117.778 213.725C118.183 213.456 118.667 213.335 119.151 213.383C119.634 213.432 120.085 213.646 120.428 213.99C120.82 214.384 121.04 214.917 121.04 215.472Z" fill="black" stroke="black" stroke-width="2.92405" stroke-miterlimit="10" stroke-linecap="round"/>
<path d="M147.882 122.083L159.49 109.928L171.098 97.77L173.369 121.613L175.641 145.456L161.762 133.771L147.882 122.083Z" fill="#5F9DFA" stroke="black" stroke-width="2.92405" stroke-miterlimit="10" stroke-linecap="round"/>
<path d="M137.256 109.613L142.569 115.85L147.882 122.083L154 115.676L160.118 109.274L148.687 109.443L137.256 109.613Z" fill="#FFF8F8" stroke="black" stroke-width="2.92405" stroke-miterlimit="10" stroke-linecap="round"/>
<path d="M147.798 122.552L136.121 192.168L124.447 261.78L146.104 262.319L167.764 262.854L157.865 192.707L147.967 122.552C147.965 122.532 147.955 122.512 147.939 122.499C147.924 122.485 147.903 122.478 147.882 122.479C147.862 122.479 147.842 122.486 147.826 122.5C147.811 122.513 147.8 122.532 147.798 122.552Z" fill="#FFF8F8" stroke="black" stroke-width="2.92405" stroke-miterlimit="10" stroke-linecap="round"/>
<path d="M216.555 169.815C217.548 175.405 218.54 180.997 219.531 186.59C220.522 192.182 221.514 197.772 222.507 203.36" stroke="black" stroke-width="2.92405" stroke-miterlimit="10" stroke-linecap="round"/>
<path d="M136.54 187.614H131.108H125.675L125.225 190.289L124.775 192.965H131.046H137.318L136.929 190.289L136.54 187.614Z" fill="#F7CE21" stroke="black" stroke-width="2.92405" stroke-miterlimit="10" stroke-linecap="round"/>
<path d="M144.602 243.015L140.96 217.99L137.318 192.965H131.046H124.775L120.624 217.605L116.474 242.241L130.538 242.63L144.602 243.015Z" fill="#14AF6C" stroke="black" stroke-width="2.92405" stroke-miterlimit="10" stroke-linecap="round"/>
<path d="M118.407 230.768C121.062 229.569 123.867 228.733 126.746 228.285C131.57 227.515 137.703 227.727 142.939 231.588" stroke="black" stroke-width="2.92405" stroke-miterlimit="10" stroke-linecap="round"/>
<path d="M166.174 187.614H160.741H155.309L154.858 190.289L154.408 192.965H160.68H166.951L166.563 190.289L166.174 187.614Z" fill="#F7CE21" stroke="black" stroke-width="2.92405" stroke-miterlimit="10" stroke-linecap="round"/>
<path d="M174.232 243.015L170.593 217.99L166.951 192.965H160.68H154.408L150.254 217.605L146.104 242.241L160.168 242.63L174.232 243.015Z" fill="#14AF6C" stroke="black" stroke-width="2.92405" stroke-miterlimit="10" stroke-linecap="round"/>
<path d="M144.914 242.241C144.914 244.47 143.309 246.476 140.717 247.947C138.126 249.418 134.557 250.311 130.592 250.311C126.626 250.311 123.057 249.406 120.466 247.947C117.875 246.488 116.274 244.482 116.274 242.241C116.274 240.001 117.875 238.006 120.466 236.539C123.057 235.073 126.626 234.176 130.592 234.176C134.557 234.176 138.126 235.08 140.717 236.539C143.309 237.999 144.914 240.016 144.914 242.241Z" fill="black" stroke="black" stroke-width="2.92405" stroke-miterlimit="10" stroke-linecap="round"/>
<path d="M174.601 242.241C174.601 244.47 173.004 246.476 170.428 247.947C167.852 249.418 164.287 250.311 160.352 250.311C156.418 250.311 152.856 249.406 150.277 247.947C147.697 246.488 146.104 244.482 146.104 242.241C146.104 240.001 147.697 238.006 150.277 236.539C152.856 235.073 156.418 234.176 160.352 234.176C164.287 234.176 167.848 235.08 170.428 236.539C173.007 237.999 174.601 240.016 174.601 242.241Z" fill="black" stroke="black" stroke-width="2.92405" stroke-miterlimit="10" stroke-linecap="round"/>
<path d="M148.036 230.768C150.693 229.569 153.499 228.734 156.379 228.285C161.203 227.515 167.336 227.727 172.569 231.588" stroke="black" stroke-width="2.92405" stroke-miterlimit="10" stroke-linecap="round"/>
<path d="M70.1739 182.817L71.1441 187.614L72.1143 192.415" stroke="black" stroke-width="2.92405" stroke-miterlimit="10" stroke-linecap="round"/>
<path d="M98.995 178.093C97.9966 191.953 97.0007 205.813 96.0074 219.673C95.0141 233.533 94.0195 247.393 93.0237 261.253" stroke="black" stroke-width="2.92405" stroke-miterlimit="10" stroke-linecap="round"/>
<path d="M151.301 211.395L145.661 211.484L140.024 211.572L139.374 207.095L138.723 202.621H145.753H152.787L152.044 207.006L151.301 211.395Z" fill="black" stroke="black" stroke-width="2.92405" stroke-miterlimit="10" stroke-linecap="round"/>
<path d="M196.1 194.932C191.308 192.862 186.308 191.313 181.185 190.312C172.896 188.722 162.94 188.588 156.275 194.397L144.81 203.499L133.337 212.608C132.258 213.442 131.322 214.446 130.565 215.58C129.487 217.282 129.025 219.43 131.547 221.201C130.925 222.199 130.457 223.285 130.161 224.423C129.776 226.106 129.991 227.935 132.421 228.512C131.893 229.489 131.559 230.558 131.435 231.661C131.327 233.259 131.982 234.911 135.043 235.126C134.594 235.841 134.294 236.638 134.161 237.471C134.031 238.135 134.16 238.824 134.523 239.396C135.508 240.747 136.867 240.801 138.215 240.328C139.562 239.854 140.887 238.849 141.811 238.083C143.228 236.905 144.591 235.696 145.98 234.518C147.366 233.322 148.813 232.199 150.315 231.153C152.839 229.427 155.487 227.89 158.239 226.556C160.542 225.438 162.912 224.462 165.334 223.634C166.263 223.315 167.212 223.057 168.176 222.864C169.138 222.673 170.114 222.559 171.094 222.522C172.634 222.464 174.255 222.595 174.775 223.292C175.294 223.988 174.732 225.267 171.949 227.492C172.187 229.078 172.423 230.662 172.657 232.243C172.891 233.824 173.127 235.406 173.365 236.99L181 239.962L188.627 242.95L192.373 218.941L196.119 194.932" fill="#FFC0C0"/>
<path d="M196.1 194.932C191.308 192.862 186.308 191.313 181.185 190.312C172.896 188.722 162.94 188.588 156.275 194.397L144.81 203.499L133.337 212.608C132.258 213.442 131.322 214.446 130.565 215.58C129.487 217.282 129.025 219.43 131.547 221.201C130.925 222.199 130.457 223.285 130.161 224.423C129.776 226.106 129.991 227.935 132.421 228.512C131.893 229.489 131.559 230.558 131.435 231.661C131.327 233.259 131.982 234.911 135.043 235.126C134.594 235.841 134.294 236.638 134.161 237.471C134.031 238.135 134.16 238.824 134.523 239.396C135.508 240.747 136.867 240.801 138.215 240.328C139.562 239.854 140.887 238.849 141.811 238.083C143.228 236.905 144.591 235.696 145.98 234.518C147.366 233.322 148.813 232.199 150.315 231.153C152.839 229.427 155.487 227.89 158.239 226.556C160.542 225.438 162.912 224.462 165.334 223.634C166.263 223.315 167.212 223.057 168.176 222.864C169.138 222.673 170.114 222.559 171.094 222.522C172.634 222.464 174.255 222.595 174.775 223.292C175.294 223.988 174.732 225.267 171.949 227.492C172.187 229.078 172.423 230.662 172.657 232.243C172.891 233.824 173.127 235.406 173.365 236.99L181 239.962L188.627 242.95L192.373 218.941L196.119 194.932" stroke="black" stroke-width="2.92405" stroke-miterlimit="10" stroke-linecap="round"/>
<path d="M131.535 221.189L143.139 212.361L154.743 203.53" stroke="black" stroke-width="2.92405" stroke-miterlimit="10" stroke-linecap="round"/>
<path d="M132.409 228.501L143.847 220.038L155.29 211.572" stroke="black" stroke-width="2.92405" stroke-miterlimit="10" stroke-linecap="round"/>
<path d="M135.031 235.096L145.16 227.565L155.29 220.038" stroke="black" stroke-width="2.92405" stroke-miterlimit="10" stroke-linecap="round"/>
<path d="M130.107 187.614C127.499 176.988 125.637 166.193 124.532 155.308C122.734 137.406 122.907 116.011 130.804 102.04" stroke="black" stroke-width="2.92405" stroke-miterlimit="10" stroke-linecap="round"/>
<path d="M160.68 187.614C165.836 176.82 170.086 165.616 173.385 154.119C178.678 135.473 181.855 113.012 173.435 97.7508" stroke="black" stroke-width="2.92405" stroke-miterlimit="10" stroke-linecap="round"/>
<path d="M126.184 179.278C126.183 179.764 126.015 180.234 125.707 180.609C125.398 180.985 124.97 181.241 124.493 181.336C124.017 181.43 123.523 181.356 123.095 181.127C122.667 180.898 122.331 180.527 122.146 180.078C121.961 179.63 121.937 179.13 122.078 178.666C122.22 178.201 122.518 177.8 122.922 177.531C123.326 177.262 123.811 177.141 124.294 177.19C124.777 177.238 125.229 177.452 125.572 177.796C125.766 177.991 125.921 178.222 126.026 178.476C126.131 178.73 126.184 179.003 126.184 179.278Z" fill="black" stroke="black" stroke-width="2.92405" stroke-miterlimit="10" stroke-linecap="round"/>
<path d="M225.275 46.7691C225.275 47.4043 224.89 47.9895 224.193 48.4207C223.377 48.8814 222.46 49.1328 221.524 49.1523C220.587 49.1718 219.66 48.9588 218.826 48.5323C218.129 48.1281 217.694 47.5622 217.671 46.9269C217.648 46.2917 218.056 45.7065 218.749 45.2753C219.566 44.8145 220.483 44.5632 221.421 44.5437C222.358 44.5242 223.285 44.7372 224.12 45.1636C224.828 45.5678 225.275 46.1338 225.275 46.7691Z" fill="black" stroke="black" stroke-width="2.92405" stroke-miterlimit="10" stroke-linecap="round"/>
<path d="M225.025 46.8576L227.516 36.4626L230.003 26.0676C230.012 26.0268 230.034 25.9901 230.066 25.9636C230.098 25.937 230.138 25.9221 230.18 25.9213C230.221 25.9197 230.262 25.9322 230.296 25.9566C230.329 25.9811 230.353 26.0161 230.365 26.056L233.025 30.6491L235.67 35.2152" stroke="white" stroke-width="4.87342" stroke-miterlimit="10" stroke-linecap="round"/>
<path d="M194.279 80.0908C196.052 79.1757 197.712 78.054 199.222 76.749C201.052 75.1659 202.593 73.277 203.777 71.1665C204.328 70.2044 204.814 69.2063 205.232 68.1789C205.653 67.1428 205.913 66.0482 206.002 64.9334C206.049 63.7452 205.722 62.5723 205.066 61.58C204.393 60.5944 203.372 59.9438 202.048 60.2441C201.67 60.3264 201.32 60.5072 201.034 60.7682C200.748 61.0291 200.536 61.361 200.419 61.7302C200.173 62.4772 200.149 63.2797 200.35 64.0402C200.631 65.1644 201.713 66.8391 203.268 68.252C204.824 69.665 206.845 70.8239 209.013 70.9201C211.48 71.0241 214.102 69.7651 216.247 67.4359C218.391 65.1066 220.051 61.7533 220.609 57.6684" stroke="white" stroke-width="2.92405" stroke-miterlimit="10" stroke-linecap="round"/>
<path d="M58.2659 142.661C54.5891 129.956 51.1665 117.944 47.7477 105.94C44.3289 93.9354 40.9101 81.9234 37.2295 69.2145C37.1348 68.8813 37.0151 68.5557 36.8714 68.2405C36.7268 67.927 36.5528 67.6279 36.3517 67.3473C35.6004 66.2965 34.5143 65.5323 33.2717 65.1797C32.2025 64.8514 31.0468 64.9594 30.0569 65.48C29.2687 65.9574 28.667 66.6894 28.3514 67.5552C27.9852 68.529 27.8842 69.5826 28.0588 70.6082L30.0608 83.2054L32.0666 95.8065C31.4392 95.4276 30.7631 95.1362 30.0569 94.9402C28.7952 94.559 27.4435 94.5996 26.2069 95.0557C24.7378 95.6592 23.552 96.7969 22.8882 98.2397C22.1337 99.8447 21.9255 101.653 22.2953 103.387C21.4846 102.384 20.41 101.626 19.1922 101.2C18.0435 100.792 16.796 100.751 15.6233 101.085C14.11 101.56 12.8454 102.613 12.1044 104.015C11.2845 105.525 11.0475 107.284 11.4383 108.958C10.7809 108.563 10.0741 108.256 9.3362 108.046C8.11543 107.659 6.79633 107.726 5.62095 108.234C5.39788 108.343 5.18524 108.472 4.98571 108.619C4.58221 108.911 4.21739 109.252 3.9 109.636C2.66415 111.126 2.28685 113.016 2.2445 114.641C2.22654 115.833 2.35585 117.022 2.6295 118.183L7.0801 136.998L11.5307 155.813L34.8887 149.233L58.2659 142.661Z" fill="#FFC0C0" stroke="black" stroke-width="2.92405" stroke-miterlimit="10" stroke-linecap="round"/>
<path d="M2.98755 119.623C3.64205 120.909 4.3081 122.194 4.9857 123.473C5.6633 124.751 6.3563 126.021 7.057 127.284C7.6268 128.308 8.1658 129.352 8.72405 130.383C9.2823 131.415 9.87905 132.435 10.5181 133.413C11.1579 134.413 11.8929 135.35 12.7126 136.208C13.5073 137.084 14.5491 137.698 15.7002 137.968C16.5738 138.121 17.4734 137.96 18.239 137.512C19.0047 137.064 19.5866 136.36 19.8813 135.523C20.1463 134.588 20.1793 133.602 19.9776 132.651C19.8159 131.646 19.5233 130.645 19.3115 129.798C18.0025 126.325 16.6948 122.853 15.3884 119.38L11.4652 108.962" stroke="black" stroke-width="2.92405" stroke-miterlimit="10" stroke-linecap="round"/>
<path d="M19.1999 129.521C19.7386 131.132 20.6199 132.607 21.7832 133.845C22.7842 134.838 23.8699 135.342 24.8825 135.234C25.3363 135.179 25.7706 135.017 26.1491 134.761C26.4052 134.591 26.6415 134.394 26.8537 134.172C28.0087 133.017 28.3937 131.334 28.4668 129.644C28.4704 128.077 28.3091 126.515 27.9856 124.982C27.1963 120.747 26.1453 116.512 25.1096 112.727C24.074 108.943 23.0537 105.666 22.3222 103.387" stroke="black" stroke-width="2.92405" stroke-miterlimit="10" stroke-linecap="round"/>
<path d="M28.6247 128.004C28.9562 128.849 29.3948 129.647 29.9298 130.379C30.746 131.488 31.9472 132.597 33.5488 132.759C33.7698 132.785 33.9927 132.791 34.2149 132.778C34.5431 132.761 34.8659 132.688 35.1697 132.562C36.0975 132.177 36.8098 131.292 37.2448 130.075C37.7141 128.632 37.8548 127.102 37.6568 125.598C36.7251 120.636 35.7947 115.671 34.8655 110.702C33.9364 105.733 33.006 100.768 32.0743 95.8065" stroke="black" stroke-width="2.92405" stroke-miterlimit="10" stroke-linecap="round"/>
<path d="M48.7255 109.366C44.9063 109.139 41.0987 108.823 37.2949 108.469C33.4911 108.115 29.6873 107.699 25.8835 107.314C24.1972 107.145 21.4906 106.633 19.0805 106.767C16.6704 106.902 14.5606 107.684 14.0755 110.094C13.6482 112.181 14.576 113.455 15.9774 114.329C17.3788 115.203 19.2538 115.696 20.7091 116.204C23.1808 117.07 25.0403 117.721 26.3455 118.233C27.6506 118.745 28.4052 119.114 28.6555 119.415C29.8105 120.704 29.8644 122.156 29.7296 124.008C29.5949 125.86 29.2407 128.116 29.5217 131.015C29.6913 132.74 30.0581 134.44 30.6151 136.081C31.3883 138.346 32.4493 140.502 33.7721 142.495" fill="#FFC0C0"/>
<path d="M48.7255 109.366C44.9063 109.139 41.0987 108.823 37.2949 108.469C33.4911 108.115 29.6873 107.699 25.8835 107.314C24.1972 107.145 21.4906 106.633 19.0805 106.767C16.6704 106.902 14.5606 107.684 14.0755 110.094C13.6482 112.181 14.576 113.455 15.9774 114.329C17.3788 115.203 19.2538 115.696 20.7091 116.204C23.1808 117.07 25.0403 117.721 26.3455 118.233C27.6506 118.745 28.4052 119.114 28.6555 119.415C29.8105 120.704 29.8644 122.156 29.7296 124.008C29.5949 125.86 29.2407 128.116 29.5217 131.015C29.6913 132.74 30.0581 134.44 30.6151 136.081C31.3883 138.346 32.4493 140.502 33.7721 142.495" stroke="black" stroke-width="2.92405" stroke-miterlimit="10" stroke-linecap="round"/>
<path d="M66.4125 1.85109C66.1584 1.85109 65.9043 1.85109 65.6425 1.87804C65.3807 1.90499 65.1381 1.92039 64.8725 1.95504C64.4991 2.0143 64.129 2.09269 63.7637 2.1899C62.9063 2.41395 62.0733 2.72216 61.2766 3.11004C59.5465 4.06469 57.8717 5.11613 56.26 6.25934C53.8576 7.88404 50.8238 10.0477 47.405 12.6426C47.0713 10.3181 45.9663 8.1731 44.2673 6.55195C42.5326 4.80527 40.1837 3.80626 37.7223 3.76839C36.412 3.78913 35.1192 4.0724 33.9203 4.60142C32.7214 5.13045 31.6407 5.89449 30.7422 6.84839C28.9481 8.70024 27.8278 11.1604 27.8278 13.5897C27.8434 15.7717 28.7191 17.8593 30.2648 19.3994C31.8879 21.0209 34.011 22.0465 36.2901 22.31C36.9299 26.0082 38.8139 29.3769 41.63 31.858C44.2519 34.1179 47.4974 35.323 50.716 35.142C54.0155 34.9418 56.5988 33.2902 58.3968 31.6193C59.555 30.5512 60.5569 29.3251 61.3728 27.9772C63.1505 28.2928 64.9816 28.085 66.6432 27.3789C68.3049 26.6728 69.7255 25.4989 70.7322 24.0001C71.1832 23.3368 71.5481 22.6188 71.8179 21.8634C72.6714 21.8505 73.52 21.7302 74.3435 21.5053C75.9075 21.0918 77.345 20.2978 78.5279 19.1942C79.7109 18.0905 80.6024 16.7115 81.1233 15.1798C81.4462 14.277 81.6418 13.3337 81.7047 12.377C83.5129 12.4463 85.3131 12.1013 86.9676 11.3683C89.6395 10.1555 92.3923 7.51829 92.7426 1.85109H66.4125Z" fill="#D1B7E5" stroke="black" stroke-width="2.92405" stroke-miterlimit="10" stroke-linecap="round"/>
<path d="M35.1812 11.453C35.1812 11.7593 35.0596 12.0531 34.843 12.2697C34.6264 12.4863 34.3326 12.608 34.0262 12.608C33.7199 12.608 33.4261 12.4863 33.2095 12.2697C32.9929 12.0531 32.8712 11.7593 32.8712 11.453C32.8709 11.2998 32.901 11.1481 32.9598 11.0066C33.0186 10.8652 33.105 10.7368 33.2139 10.6291C33.322 10.5209 33.4504 10.4352 33.5919 10.3771C33.7333 10.3189 33.8849 10.2894 34.0378 10.2903C34.1907 10.2894 34.3423 10.3189 34.4837 10.3771C34.6252 10.4352 34.7536 10.5209 34.8617 10.6291C35.0711 10.8519 35.1857 11.1473 35.1812 11.453Z" fill="black"/>
<path d="M81.7085 12.377H73.4579H65.2112" stroke="black" stroke-width="2.92405" stroke-miterlimit="10" stroke-linecap="round"/>
<path d="M71.8217 21.8634H66.913H62.0004" stroke="black" stroke-width="2.92405" stroke-miterlimit="10" stroke-linecap="round"/>
<path d="M60.0446 30.0254L67.6137 32.7627L75.1789 35.504" fill="#D1B7E5"/>
<path d="M60.0446 30.0254L67.6137 32.7627L75.1789 35.504" stroke="black" stroke-width="2.92405" stroke-miterlimit="10" stroke-linecap="round"/>
<path d="M229.21 264.359C224.608 262.242 219.926 259.982 215.165 257.58C210.404 255.177 205.576 252.62 200.681 249.907C198.607 248.754 196.564 247.599 194.552 246.442C192.54 245.284 190.558 244.12 188.608 242.95C189.855 234.944 191.104 226.941 192.354 218.941C193.604 210.941 194.852 202.938 196.1 194.932L217.521 202.105L238.942 209.281" stroke="black" stroke-width="2.92405" stroke-miterlimit="10" stroke-linecap="round"/>
<path d="M185.435 85.3692L175.11 80.9917L164.784 76.6142C163.773 79.4645 163.142 82.4352 162.905 85.45C162.373 91.9563 163.976 98.4586 167.471 103.972C168.457 105.527 169.578 106.992 170.821 108.35C172.838 106.886 174.701 105.221 176.38 103.379C179.568 99.8654 182.069 95.7844 183.753 91.3482C184.483 89.4067 185.045 87.4064 185.435 85.3692Z" fill="black" stroke="black" stroke-width="2.92405" stroke-miterlimit="10" stroke-linecap="round"/>
<path d="M165.4 100.08C165.069 99.31 164.834 98.7017 164.664 98.1973C164.495 97.693 164.395 97.3118 164.326 97.0423C164.276 96.8421 164.233 96.6574 164.199 96.488C164.164 96.3186 164.137 96.1799 164.114 96.0567L164.333 96.2492L164.607 96.4687C164.607 96.4687 164.699 96.5419 164.845 96.642C164.992 96.7421 165.192 96.8807 165.396 97.0039C166.522 97.68 167.795 98.0738 169.107 98.1515C170.418 98.2293 171.729 97.9888 172.927 97.4506C174.125 96.9123 175.176 96.0922 175.989 95.0603C176.802 94.0283 177.353 92.8151 177.595 91.524C177.838 90.233 177.765 88.9024 177.382 87.6457C177 86.389 176.319 85.2436 175.397 84.307C174.476 83.3703 173.342 82.6704 172.092 82.2667C170.842 81.8631 169.513 81.7678 168.218 81.9889C166.292 82.3243 164.54 83.311 163.255 84.7839C163.255 84.1641 163.278 83.4749 163.348 82.7319C163.42 81.9267 163.535 81.126 163.694 80.3333C163.837 79.6095 164.01 78.9281 164.199 78.3044C164.387 77.6807 164.584 77.107 164.784 76.5911L147.162 69.1183L129.541 61.6455C129.099 62.2255 128.668 62.8248 128.247 63.4434C127.826 64.062 127.426 64.6959 127.046 65.3453C122.23 73.5188 120.886 82.6934 122.603 90.9247C124.32 99.156 129.11 106.444 136.552 110.829C141.781 113.899 147.837 115.261 153.877 114.725C160.002 114.174 165.859 111.958 170.817 108.319C170.039 107.46 169.308 106.561 168.626 105.624C168.018 104.789 167.521 104.03 167.125 103.376C166.905 103.014 166.632 102.548 166.335 101.99C166.039 101.431 165.719 100.811 165.4 100.08Z" fill="#FFC0C0" stroke="black" stroke-width="2.92405" stroke-miterlimit="10" stroke-linecap="round"/>
<path d="M159.944 95.3638C159.432 96.233 158.634 96.8977 157.686 97.2445C156.738 97.5913 155.7 97.5988 154.747 97.2657C153.795 96.9326 152.987 96.2796 152.462 95.4178C151.937 94.5561 151.727 93.5389 151.867 92.5397C152.008 91.5404 152.491 90.6209 153.234 89.9377C153.977 89.2545 154.933 88.85 155.941 88.793C156.948 88.7361 157.944 89.0302 158.759 89.6253C159.574 90.2203 160.158 91.0796 160.41 92.0566C160.554 92.6115 160.586 93.1891 160.506 93.7565C160.426 94.324 160.235 94.8701 159.944 95.3638Z" fill="#EF3F3F" stroke="black" stroke-width="2.92405" stroke-miterlimit="10" stroke-linecap="round"/>
<path d="M132.036 95.2636C131.526 96.1348 130.73 96.8024 129.784 97.1526C128.837 97.5028 127.799 97.514 126.845 97.1843C125.891 96.8545 125.081 96.2043 124.553 95.3443C124.025 94.4843 123.811 93.4678 123.949 92.468C124.086 91.4682 124.566 90.5469 125.306 89.8612C126.047 89.1755 127.002 88.7677 128.01 88.7074C129.017 88.647 130.014 88.9379 130.831 89.5303C131.648 90.1228 132.234 90.9802 132.49 91.9565C132.783 93.0755 132.619 94.265 132.036 95.2636Z" fill="#EF3F3F" stroke="black" stroke-width="2.92405" stroke-miterlimit="10" stroke-linecap="round"/>
<path d="M132.324 82.909C132.211 83.1153 132.057 83.2966 131.872 83.4424C131.687 83.5881 131.475 83.6953 131.248 83.7575C131.021 83.8197 130.784 83.8358 130.55 83.8046C130.317 83.7735 130.092 83.6958 129.889 83.5763C129.687 83.4567 129.51 83.2976 129.37 83.1085C129.229 82.9194 129.129 82.704 129.073 82.4752C129.018 82.2464 129.009 82.0088 129.047 81.7765C129.085 81.5441 129.169 81.3218 129.295 81.1226C129.532 80.7209 129.919 80.4297 130.371 80.3128C130.822 80.1959 131.302 80.2628 131.705 80.4989C132.105 80.738 132.396 81.1253 132.513 81.5769C132.571 81.8004 132.584 82.0332 132.551 82.2617C132.519 82.4903 132.442 82.7103 132.324 82.909Z" fill="#231F20"/>
<path d="M150.585 85.2536C150.471 85.4599 150.318 85.6413 150.133 85.787C149.948 85.9328 149.736 86.0399 149.509 86.1022C149.282 86.1644 149.044 86.1804 148.811 86.1493C148.578 86.1181 148.353 86.0405 148.15 85.9209C147.947 85.8013 147.77 85.6423 147.63 85.4532C147.49 85.264 147.389 85.0487 147.334 84.8199C147.278 84.5911 147.269 84.3535 147.307 84.1211C147.345 83.8888 147.43 83.6664 147.555 83.4672C147.792 83.0666 148.179 82.7761 148.63 82.6593C149.08 82.5424 149.559 82.6087 149.961 82.8435C150.161 82.9608 150.335 83.1161 150.474 83.3007C150.613 83.4853 150.715 83.6955 150.773 83.9193C150.831 84.1432 150.844 84.3762 150.812 84.6052C150.779 84.8341 150.702 85.0545 150.585 85.2536Z" fill="#231F20"/>
<path d="M134.38 72.745C136.054 72.6048 137.736 72.5842 139.412 72.6834C144.612 72.9943 149.674 74.4735 154.223 77.0108" stroke="black" stroke-width="2.92405" stroke-miterlimit="10" stroke-linecap="round"/>
<path d="M139.497 73.2186L137.984 81.4229L136.467 89.6234L137.641 89.7427L138.812 89.866" stroke="black" stroke-width="2.92405" stroke-miterlimit="10" stroke-linecap="round"/>
<path d="M171.448 51.6624C164.595 47.6238 156.691 46.746 149.214 48.5824C141.351 50.5651 134.407 55.1857 129.541 61.6724L157.488 73.515L185.435 85.3653C186.741 78.8908 186.144 72.1765 183.714 66.0345C181.327 60.0191 177.014 54.9648 171.448 51.6624Z" fill="#F9851C" stroke="black" stroke-width="2.92405" stroke-miterlimit="10" stroke-linecap="round"/>
<path d="M165.962 91.0248L169.238 90.4935L172.515 89.9622" stroke="black" stroke-width="2.92405" stroke-miterlimit="10" stroke-linecap="round"/>
<path d="M140.155 66.1653C139.045 69.2084 137.045 71.8471 134.415 73.7383C131.922 75.5491 128.906 76.4954 125.826 76.4333C124.674 76.3972 123.533 76.2109 122.43 75.8789C121.444 75.5763 120.494 75.1685 119.596 74.6623C117.314 73.3806 115.436 71.4854 114.176 69.1914C113.269 67.5513 112.739 65.7298 112.623 63.8592C112.508 61.9886 112.811 60.1158 113.51 58.3768C113.941 57.3092 114.525 56.3095 115.242 55.4084C116.835 53.4495 118.941 51.9725 121.325 51.1426C123.727 50.3149 126.33 50.234 128.705 51.3698C130.11 52.0654 131.314 53.1067 132.205 54.3959C132.796 55.236 133.277 56.1482 133.637 57.1101C133.198 57.5182 132.748 57.961 132.294 58.4307C131.839 58.9004 131.381 59.4086 130.919 59.9476C130.669 60.2363 130.43 60.5289 130.203 60.8138C129.976 61.0987 129.757 61.3836 129.545 61.6647L134.854 63.9131L140.155 66.1653Z" fill="black" stroke="black" stroke-width="2.92405" stroke-miterlimit="10" stroke-linecap="round"/>
<path d="M137.414 54.0032L161.708 64.9449L186.005 75.8828" stroke="black" stroke-width="2.92405" stroke-miterlimit="10" stroke-linecap="round"/>
<path d="M144.764 57.3142L142.211 61.6339L139.663 65.9575" stroke="black" stroke-width="2.92405" stroke-miterlimit="10" stroke-linecap="round"/>
<path d="M154.327 61.6993L151.917 65.7842L149.507 69.869" stroke="black" stroke-width="2.92405" stroke-miterlimit="10" stroke-linecap="round"/>
<path d="M165.985 67.0855L163.617 71.1011L161.253 75.1128" stroke="black" stroke-width="2.92405" stroke-miterlimit="10" stroke-linecap="round"/>
<path d="M177.935 72.4486L175.695 76.2485L173.458 80.0446" stroke="black" stroke-width="2.92405" stroke-miterlimit="10" stroke-linecap="round"/>
<path d="M136.34 95.9413C137.107 96.7804 138.074 97.4121 139.15 97.7777C140.906 98.3552 143.385 98.2474 146.181 95.5101" stroke="black" stroke-width="2.92405" stroke-miterlimit="10" stroke-linecap="round"/>
<path d="M216.586 169.992L219.542 186.64C220.523 192.191 221.507 197.742 222.495 203.291C222.499 203.297 222.5 203.303 222.5 203.31C222.5 203.317 222.499 203.323 222.495 203.329C222.489 203.333 222.482 203.335 222.474 203.335C222.467 203.335 222.459 203.333 222.453 203.329L214.984 200.95L207.534 198.571C207.523 198.567 207.514 198.56 207.508 198.55C207.503 198.54 207.501 198.528 207.503 198.517L212.004 184.245C213.503 179.491 215.002 174.734 216.501 169.973C216.505 169.964 216.511 169.956 216.519 169.951C216.528 169.945 216.537 169.942 216.547 169.942C216.559 169.944 216.569 169.95 216.576 169.96C216.583 169.969 216.587 169.981 216.586 169.992Z" fill="black" stroke="black" stroke-width="2.92405" stroke-miterlimit="10" stroke-linecap="round"/>
</svg>
