<svg width="41" height="41" viewBox="0 0 41 41" fill="none" xmlns="http://www.w3.org/2000/svg">
<g clip-path="url(#clip0_64_1376)">
<path d="M20.773 1.87565C20.6218 1.89157 20.1522 1.94728 19.7383 1.99503C15.6235 2.46461 11.3097 4.63742 8.46043 7.66979C5.88967 10.4077 4.25012 13.6868 3.57361 17.4275C3.35076 18.6373 3.27913 21.2001 3.42239 22.5372C3.52586 23.4445 3.53381 23.4843 3.69299 23.4365C4.37747 23.2137 4.96643 23.0863 5.36438 23.0863L5.826 23.0784L5.77825 22.8237C5.66682 22.2506 5.63499 19.6719 5.72254 18.8681C5.91355 17.141 6.35925 15.4616 7.0676 13.8619C7.44964 12.9943 7.56106 12.9386 7.56106 13.6231C7.56106 14.5464 8.0386 16.1859 8.63552 17.34C9.64632 19.2819 10.681 20.0858 13.2119 20.8897C15.2415 21.5343 15.7509 21.8129 16.0294 22.3939C16.1966 22.7521 16.2125 23.4604 16.0533 23.7708C15.91 24.0414 15.3688 24.5588 14.8913 24.8692C14.7162 24.9885 14.565 25.1079 14.565 25.1398C14.565 25.1636 14.939 25.291 15.4007 25.4104L16.2364 25.6253L18.1226 24.9965C19.1653 24.6463 20.3671 24.2802 20.7969 24.1767C21.2187 24.0812 21.5689 23.9698 21.5689 23.9459C21.5689 23.9141 21.2187 23.739 20.7969 23.5559C18.831 22.7123 18.4728 22.4894 18.1147 21.8527C17.8043 21.3274 17.6849 20.8499 17.5178 19.5844C17.2631 17.6424 17.072 17.4753 15.6553 17.8573C15.2415 17.9687 14.748 18.0642 14.557 18.0642C14.2546 18.0642 14.175 18.0244 13.8487 17.6742C13.3791 17.1887 13.2279 16.6873 13.3711 16.0824C13.5303 15.4298 14.1033 14.7294 14.8037 14.3553C15.1619 14.1643 16.0215 14.1643 16.6423 14.3474C17.2631 14.5304 18.1545 15.1433 18.8628 15.8755C20.0646 17.1091 20.4626 17.2126 21.2426 16.5122C21.7679 16.0347 22.1976 15.1512 22.325 14.2837C22.3966 13.838 22.2533 13.5992 21.7838 13.3605C21.3301 13.1376 21.1709 12.9227 21.1709 12.5248C21.1709 11.9676 21.5928 11.5379 23.2164 10.4316C24.45 9.59586 24.7366 9.13424 24.3704 8.57711C24.1555 8.2508 23.9247 8.09958 22.6035 7.43898C20.9481 6.61124 20.4865 6.32472 20.2079 5.94269C19.8099 5.39352 19.9134 4.97169 20.5183 4.66129C21.1152 4.35885 21.744 4.25539 23.0015 4.26334C24.5057 4.2713 25.7633 4.50211 27.4983 5.11496C28.1112 5.32985 28.2783 5.43332 28.7479 5.87106C29.9895 7.04103 30.8093 8.91935 30.8331 10.6226C30.8411 11.1956 30.8172 11.323 30.5784 11.8005C30.085 12.8033 28.9628 13.7743 27.7371 14.2757C26.4955 14.7851 26.1851 14.9523 25.8269 15.3343C25.3096 15.8675 24.9992 16.5441 24.9355 17.2365C24.848 18.311 25.1425 18.7964 26.1532 19.2103C27.5142 19.7834 28.0395 20.1336 28.3101 20.6429C28.3897 20.7942 28.4375 21.1364 28.4534 21.5582C28.4614 21.9482 28.5171 22.3621 28.5887 22.5213C28.8991 23.2535 30.1248 23.8743 31.2709 23.8743C31.629 23.8743 31.8917 23.922 32.1304 24.0414C32.5523 24.2484 33.0457 24.7975 33.189 25.2193C33.3482 25.6969 33.2129 25.9277 32.5204 26.3734C31.5415 27.0022 31.3584 27.2807 31.3584 28.1005V28.578L32.019 28.8805C32.3772 29.0476 32.7194 29.2466 32.7831 29.3182C32.9343 29.4933 32.9104 29.8515 32.7194 30.4802C32.4408 31.4035 32.4647 31.7855 32.8308 32.271L33.1094 32.6371L32.8945 32.8361C32.3613 33.3057 31.056 34.2528 30.3636 34.6667C28.7797 35.5979 26.9571 36.2983 25.3176 36.6166L24.8082 36.7121L24.8639 37.309C24.8878 37.6354 24.9116 38.1607 24.9116 38.479V39.0521L25.811 38.869C30.6421 37.8741 34.8285 35.0407 37.6221 30.8782C39.9064 27.4638 41.0366 23.0943 40.6784 18.9954C40.36 15.4457 39.1264 12.2223 36.9536 9.28546C36.1975 8.27467 34.351 6.41227 33.3482 5.66412C30.7137 3.70621 27.8167 2.48849 24.6729 2.02687C23.7974 1.89952 21.3619 1.80402 20.773 1.87565Z" fill="white"/>
<path d="M5.18128 24.2749C4.65599 24.3545 3.49398 24.9196 3.27113 25.2061C3.05624 25.4688 3.04828 25.9383 3.25521 26.1532C3.3348 26.2408 4.7117 27.164 6.31942 28.2066C7.91917 29.2493 9.23241 30.1248 9.23241 30.1486C9.23241 30.1805 8.88221 30.3794 8.46039 30.6023C8.03856 30.8172 7.17103 31.2947 6.53431 31.6529L5.3723 32.3055L4.89476 32.0429C3.15174 31.0798 2.0534 30.5545 1.69525 30.5068C0.795884 30.4033 -0.0636864 30.9127 0.0238624 31.4937C0.0477394 31.637 0.445689 32.4249 0.90731 33.2447L1.743 34.741L1.44056 35.0593C0.795884 35.7358 0.676499 36.0701 0.915269 36.5238C1.16996 37.0252 2.34789 37.3197 3.48602 37.1605C4.42518 37.0332 7.52918 36.3487 9.78954 35.7677C15.918 34.1918 20.5819 32.6 24.0759 30.8729C27.2913 29.2891 28.7399 27.8087 28.4056 26.4477C28.2703 25.9304 27.8485 25.5324 27.2038 25.3175L26.6944 25.1504L24.442 26.1851C23.2004 26.7581 22.1658 27.2118 22.1498 27.1879C22.1339 27.172 22.1419 26.9491 22.1817 26.6944L22.2453 26.2328L23.5108 25.6598C24.2033 25.3414 24.8479 25.0469 24.9434 24.9992C25.0708 24.9355 24.7922 24.9196 23.8371 24.9435C22.7945 24.9673 22.4045 25.0071 21.6962 25.1822C20.5103 25.4688 19.2289 25.8747 17.6928 26.4397L16.4114 26.9093L11.4052 25.5961C8.65936 24.8718 6.23187 24.2669 6.00902 24.2431C5.79413 24.2271 5.42005 24.2351 5.18128 24.2749Z" fill="white"/>
<path d="M19.3722 33.8097C17.9236 34.3191 16.682 34.7887 16.6024 34.8524C16.5308 34.9081 16.4751 35.0354 16.4751 35.1309C16.4751 35.2822 17.852 36.9137 19.786 39.0547C20.5262 39.8665 20.6456 39.9063 21.4097 39.5482C22.2135 39.1821 22.6592 38.6488 22.8423 37.8529C22.906 37.5584 22.8741 37.0888 22.6831 35.4652C22.5558 34.351 22.4443 33.3879 22.4443 33.3163C22.4443 33.181 22.1737 32.8706 22.0703 32.8785C22.0305 32.8785 20.8207 33.3004 19.3722 33.8097Z" fill="white"/>
</g>
<defs>
<clipPath id="clip0_64_1376">
<rect width="40.75" height="40.75" fill="white"/>
</clipPath>
</defs>
</svg>
